<svg width="51" height="53" viewBox="0 0 51 53" fill="none" xmlns="http://www.w3.org/2000/svg">
<circle cx="25.0962" cy="25.963" r="19.963" fill="#7A40F2"/>
<mask id="mask0_0_118" style="mask-type:luminance" maskUnits="userSpaceOnUse" x="5" y="6" width="41" height="40">
<circle cx="25.0962" cy="25.963" r="19.963" fill="white"/>
</mask>
<g mask="url(#mask0_0_118)">
<path fill-rule="evenodd" clip-rule="evenodd" d="M18.9284 16.5177C17.8499 18.5624 15.3683 19.3155 13.1976 20.1114C11.0272 20.907 8.64107 22.3376 8.47474 24.6434C8.37053 26.0934 9.21549 27.4946 9.07158 28.9415C8.77468 31.9281 4.87526 32.9324 3.06749 35.3283C1.76657 37.0527 1.67598 39.5158 2.57184 41.4814C3.4677 43.447 5.23548 44.9291 7.21655 45.7904C11.3053 47.567 16.2727 46.7566 19.9061 44.1735C23.5392 41.5908 25.8769 37.422 26.7285 33.046C27.5801 28.6704 27.0348 24.105 25.713 19.8475C25.2219 18.2661 24.5293 16.5995 23.1023 15.7591C21.6757 14.9186 19.3771 15.5015 19.1172 17.1369L18.9284 16.5177Z" fill="#0A0F21"/>
<path fill-rule="evenodd" clip-rule="evenodd" d="M17.9874 20.631C17.9874 14.8714 22.2668 10.2027 27.5456 10.2027C32.8244 10.2027 37.1034 14.8714 37.1034 20.631C37.1034 26.3903 32.8244 31.0589 27.5456 31.0589C22.2668 31.0589 17.9874 26.3903 17.9874 20.631Z" fill="#0A0F21"/>
<path fill-rule="evenodd" clip-rule="evenodd" d="M20.6302 18.7329C20.6302 18.7329 18.5731 17.1057 18.5994 16.7443L17.9874 16.9903L19.8649 19.3243L20.6302 18.7329Z" fill="#FF05DB"/>
<path fill-rule="evenodd" clip-rule="evenodd" d="M15.7476 47.9071C15.7476 47.9071 23.1035 51.7022 27.1375 51.6096C31.285 51.5144 40.2921 47.3437 40.2921 47.3437C40.2921 47.3437 38.5285 38.1888 28.9498 40.2138C28.9498 40.2138 20.0082 37.9815 15.7476 47.9071Z" fill="#57C6FF"/>
<path fill-rule="evenodd" clip-rule="evenodd" d="M32.8001 30.0979L24.4617 31.513L24.3848 41.6992C24.3848 41.6992 24.8634 44.3377 29.1749 44.4116C33.2443 44.4813 33.5154 41.5777 33.5154 41.5777L32.8001 30.0979L20.2297 39.3364Z" fill="#FBDED4"/>
<path fill-rule="evenodd" clip-rule="evenodd" d="M24.4178 37.3014L24.4617 31.5131L24.4178 37.3014Z" fill="#0A0F21"/>
<path fill-rule="evenodd" clip-rule="evenodd" d="M24.8456 37.3144C24.5738 37.3144 24.4193 37.3017 24.4178 37.3014L24.4617 31.513L32.8001 30.0979L33.0077 33.4314C30.2855 37.0091 26.171 37.3144 24.8456 37.3144Z" fill="#F6D3C8"/>
<path fill-rule="evenodd" clip-rule="evenodd" d="M38.5706 25.4387C38.5706 26.2488 37.5851 27.3958 36.4538 27.0662C35.6761 26.8396 34.68 26.2488 34.68 25.4387C34.68 24.6282 35.8152 23.8139 36.6253 23.8139C37.9326 23.8139 38.5706 24.6282 38.5706 25.4387Z" fill="#FBDED4"/>
<path fill-rule="evenodd" clip-rule="evenodd" d="M37.1034 26.0394C37.1049 25.8625 37.134 25.6883 37.1919 25.5211C37.2537 25.3544 37.3182 25.1854 37.5033 25.046C37.5451 25.013 37.6209 24.9879 37.6872 24.9879C37.7223 24.9912 37.7614 24.9939 37.7917 25.0054C37.8199 25.0197 37.8484 25.0348 37.8744 25.053C37.9238 25.089 37.949 25.1327 37.9847 25.1724C38.0314 25.2402 38.0308 25.2978 38.0335 25.3469C38.0347 25.5414 37.9756 25.7047 37.9008 25.8655C37.8805 25.6925 37.8702 25.5153 37.8396 25.3705C37.8305 25.3369 37.8166 25.3063 37.8105 25.3057L37.7399 25.2481C37.6951 25.2199 37.6863 25.2302 37.6393 25.256C37.5451 25.3163 37.4527 25.4671 37.3688 25.6029C37.2861 25.7447 37.1976 25.8904 37.1034 26.0394Z" fill="#EEA08E"/>
<path fill-rule="evenodd" clip-rule="evenodd" d="M19.2117 25.4387C19.2117 26.2488 20.1976 27.3958 21.3285 27.0662C22.1065 26.8396 23.1024 26.2488 23.1024 25.4387C23.1024 24.6282 21.9672 23.8139 21.157 23.8139C19.8498 23.8139 19.2117 24.6282 19.2117 25.4387Z" fill="#FBDED4"/>
<path fill-rule="evenodd" clip-rule="evenodd" d="M20.679 26.0394C20.585 25.8904 20.4966 25.7447 20.4139 25.6029C20.3296 25.4671 20.2372 25.3163 20.1427 25.256C20.0964 25.2302 20.0876 25.2199 20.0427 25.2481L19.9718 25.3057C19.9658 25.3063 19.9518 25.3369 19.9428 25.3705C19.9122 25.5153 19.9019 25.6925 19.8819 25.8655C19.8067 25.7047 19.7476 25.5414 19.7489 25.3469C19.7519 25.2978 19.7513 25.2402 19.7976 25.1724C19.8334 25.1327 19.8585 25.089 19.9079 25.053C19.934 25.0348 19.9624 25.0197 19.9906 25.0054C20.0212 24.9939 20.06 24.9912 20.0951 24.9879C20.1615 24.9879 20.2372 25.013 20.2793 25.046C20.4645 25.1854 20.5287 25.3544 20.5905 25.5211C20.6487 25.6883 20.6774 25.8625 20.679 26.0394Z" fill="#EEA08E"/>
<path fill-rule="evenodd" clip-rule="evenodd" d="M36.6199 23.3282C36.7644 28.986 34.0862 34.3939 29.4348 34.513C24.7832 34.6317 21.4239 29.8022 21.2794 24.1444C21.1349 18.4866 24.2593 14.1434 28.9107 14.0243C33.5624 13.9052 36.4751 17.6704 36.6199 23.3282Z" fill="#FBDED4"/>
<path fill-rule="evenodd" clip-rule="evenodd" d="M26.2855 23.6154C26.278 23.9287 26.0835 24.178 25.8517 24.1726C25.6196 24.1668 25.4375 23.9084 25.4451 23.5951C25.453 23.2819 25.6472 23.0325 25.8793 23.038C26.1113 23.0437 26.2931 23.3025 26.2855 23.6154Z" fill="#172133"/>
<path fill-rule="evenodd" clip-rule="evenodd" d="M32.3372 23.6154C32.3297 23.9287 32.1355 24.178 31.9031 24.1726C31.6713 24.1668 31.4892 23.9084 31.4968 23.5951C31.5044 23.2819 31.6989 23.0325 31.931 23.038C32.1627 23.0437 32.3448 23.3025 32.3372 23.6154Z" fill="#172133"/>
<path fill-rule="evenodd" clip-rule="evenodd" d="M27.1375 26.5787C27.4325 26.9156 27.7337 27.2243 28.0627 27.4652C28.3926 27.7018 28.7507 27.8611 29.1128 27.849C29.4757 27.8527 29.8405 27.6888 30.1889 27.4703C30.5367 27.2464 30.8624 26.9613 31.2123 26.6781C31.0329 27.0904 30.7784 27.4712 30.4358 27.7875C30.2646 27.9466 30.0677 28.0823 29.8474 28.1917C29.6242 28.2932 29.3745 28.3574 29.1176 28.3641C28.861 28.3625 28.6047 28.3038 28.3805 28.1953C28.1584 28.0826 27.9597 27.939 27.7985 27.7663C27.4722 27.4264 27.2456 27.0174 27.1375 26.5787Z" fill="#292929"/>
<path fill-rule="evenodd" clip-rule="evenodd" d="M28.6323 25.5147C28.7495 25.3363 28.8913 25.1966 29.0422 25.0709C29.1912 24.943 29.3524 24.834 29.5215 24.7367L29.5118 25.1933C29.3654 25.0824 29.2588 24.9509 29.1761 24.8146C29.0949 24.6767 29.0328 24.538 28.9901 24.3938C28.9013 24.1084 28.8649 23.8148 28.8992 23.5194C29.0616 23.766 29.2021 24.0038 29.3509 24.2226C29.4297 24.3283 29.4975 24.4377 29.5814 24.5243C29.662 24.6128 29.7432 24.691 29.8241 24.7431L30.1595 24.9597L29.8144 25.1996C29.6548 25.3108 29.4872 25.4099 29.3079 25.4902C29.1297 25.5729 28.9428 25.6414 28.7316 25.671C28.6759 25.6792 28.6244 25.6404 28.6165 25.5847L28.6323 25.5147Z" fill="#D1746F"/>
<path fill-rule="evenodd" clip-rule="evenodd" d="M33.0077 12.8315C31.325 11.4631 28.2548 12.0432 28.2548 12.0432C25.4563 12.3816 22.9075 14.0013 21.633 16.5156C19.6719 20.3835 21.3415 24.4574 21.3415 24.4574C25.8332 22.8305 28.6514 17.854 29.842 15.2961C30.3722 17.8658 31.99 21.3505 36.6253 23.8136C36.6253 23.8136 37.9423 16.8446 33.0077 12.8315Z" fill="#0A0F21"/>
</g>
</svg>
