<svg width="44" height="44" viewBox="0 0 44 44" fill="none" xmlns="http://www.w3.org/2000/svg">
<path fill-rule="evenodd" clip-rule="evenodd" d="M11.3176 22.3155C11.7041 22.9485 12.3859 23.3336 13.12 23.3335H21.6969V33.3334H17.244C16.7838 33.3334 16.4107 33.7064 16.4107 34.1667C16.4107 34.6269 16.7838 35 17.244 35H27.7928C28.253 35 28.6261 34.6269 28.6261 34.1667C28.6261 33.7064 28.253 33.3334 27.7928 33.3334H23.3399V23.3335H31.9168C32.6459 23.3208 33.3174 22.9288 33.6945 22.2958C34.0716 21.6627 34.1015 20.8775 33.7735 20.2168L29.6658 11.8086C29.122 10.6985 28.0043 9.99761 26.7822 10.0003H18.2546C17.0159 9.98315 15.8779 10.69 15.3299 11.8169L11.2222 20.2252C10.895 20.8917 10.9311 21.6825 11.3176 22.3155ZM16.8333 12.5586C17.1002 12.0103 17.6518 11.6643 18.2546 11.667H26.7822C27.3968 11.6513 27.9643 11.9993 28.2363 12.5586L32.344 20.9668C32.4182 21.1169 32.4103 21.2952 32.3232 21.4379C32.2362 21.5806 32.0823 21.6673 31.9168 21.6668H13.0871C12.9216 21.6673 12.7678 21.5806 12.6807 21.4379C12.5936 21.2952 12.5857 21.1169 12.6599 20.9668L16.8333 12.5586Z" fill="white"/>
<path d="M13.12 23.3335V23.2335H13.12L13.12 23.3335ZM11.3176 22.3155L11.4029 22.2634L11.3176 22.3155ZM21.6969 23.3335H21.7969V23.2335H21.6969V23.3335ZM21.6969 33.3334V33.4334H21.7969V33.3334H21.6969ZM23.3399 33.3334H23.2399V33.4334H23.3399V33.3334ZM23.3399 23.3335V23.2335H23.2399V23.3335H23.3399ZM31.9168 23.3335V23.4335L31.9186 23.4335L31.9168 23.3335ZM33.7735 20.2168L33.6837 20.2607L33.684 20.2613L33.7735 20.2168ZM29.6658 11.8086L29.7557 11.7647L29.7556 11.7646L29.6658 11.8086ZM26.7822 10.0003V10.1003L26.7824 10.1003L26.7822 10.0003ZM18.2546 10.0003L18.2532 10.1003H18.2546V10.0003ZM15.3299 11.8169L15.4198 11.8608L15.4198 11.8607L15.3299 11.8169ZM11.2222 20.2252L11.312 20.2692L11.3121 20.2691L11.2222 20.2252ZM18.2546 11.667L18.2542 11.767H18.2546V11.667ZM16.8333 12.5586L16.9229 12.6031L16.9233 12.6024L16.8333 12.5586ZM26.7822 11.667V11.767L26.7847 11.7669L26.7822 11.667ZM28.2363 12.5586L28.1464 12.6023L28.1465 12.6025L28.2363 12.5586ZM32.344 20.9668L32.2542 21.0107L32.2544 21.0112L32.344 20.9668ZM31.9168 21.6668L31.9171 21.5668H31.9168V21.6668ZM13.0871 21.6668V21.5668L13.0868 21.5668L13.0871 21.6668ZM12.6807 21.4379L12.7661 21.3858L12.6807 21.4379ZM12.6599 20.9668L12.5703 20.9224L12.5703 20.9225L12.6599 20.9668ZM13.12 23.2335C12.4212 23.2336 11.7715 22.867 11.4029 22.2634L11.2322 22.3676C11.6366 23.03 12.3506 23.4336 13.12 23.4335L13.12 23.2335ZM21.6969 23.2335H13.12V23.4335H21.6969V23.2335ZM21.7969 33.3334V23.3335H21.5969V33.3334H21.7969ZM17.244 33.4334H21.6969V33.2334H17.244V33.4334ZM16.5107 34.1667C16.5107 33.7617 16.839 33.4334 17.244 33.4334V33.2334C16.7286 33.2334 16.3107 33.6512 16.3107 34.1667H16.5107ZM17.244 34.9C16.839 34.9 16.5107 34.5717 16.5107 34.1667H16.3107C16.3107 34.6821 16.7286 35.1 17.244 35.1V34.9ZM27.7928 34.9H17.244V35.1H27.7928V34.9ZM28.5261 34.1667C28.5261 34.5717 28.1978 34.9 27.7928 34.9V35.1C28.3082 35.1 28.7261 34.6821 28.7261 34.1667H28.5261ZM27.7928 33.4334C28.1978 33.4334 28.5261 33.7617 28.5261 34.1667H28.7261C28.7261 33.6512 28.3083 33.2334 27.7928 33.2334V33.4334ZM23.3399 33.4334H27.7928V33.2334H23.3399V33.4334ZM23.2399 23.3335V33.3334H23.4399V23.3335H23.2399ZM31.9168 23.2335H23.3399V23.4335H31.9168V23.2335ZM33.6086 22.2446C33.249 22.8483 32.6091 23.2214 31.9151 23.2335L31.9186 23.4335C32.6827 23.4201 33.3858 23.0093 33.7804 22.3469L33.6086 22.2446ZM33.684 20.2613C33.9968 20.8915 33.9683 21.6407 33.6086 22.2446L33.7804 22.3469C34.175 21.6847 34.2061 20.8634 33.8631 20.1724L33.684 20.2613ZM29.576 11.8525L33.6837 20.2607L33.8634 20.173L29.7557 11.7647L29.576 11.8525ZM26.7824 10.1003C27.9657 10.0977 29.0488 10.7764 29.576 11.8526L29.7556 11.7646C29.1952 10.6207 28.0429 9.89753 26.782 9.90031L26.7824 10.1003ZM18.2546 10.1003H26.7822V9.90031H18.2546V10.1003ZM15.4198 11.8607C15.9511 10.7681 17.0539 10.0837 18.2532 10.1003L18.256 9.90031C16.978 9.88262 15.8047 10.6119 15.24 11.7732L15.4198 11.8607ZM11.3121 20.2691L15.4198 11.8608L15.2401 11.7731L11.1324 20.1813L11.3121 20.2691ZM11.4029 22.2634C11.0343 21.6596 10.9998 20.9051 11.312 20.2692L11.1324 20.1811C10.7902 20.8783 10.8279 21.7054 11.2322 22.3676L11.4029 22.2634ZM18.255 11.567C17.6133 11.5641 17.0269 11.9325 16.7434 12.5148L16.9233 12.6024C17.1736 12.0881 17.6903 11.7645 18.2542 11.767L18.255 11.567ZM26.7822 11.567H18.2546V11.767H26.7822V11.567ZM28.3263 12.5149C28.0374 11.9209 27.434 11.5503 26.7797 11.567L26.7847 11.7669C27.3596 11.7523 27.8913 12.0778 28.1464 12.6023L28.3263 12.5149ZM32.4339 20.9229L28.3262 12.5147L28.1465 12.6025L32.2542 21.0107L32.4339 20.9229ZM32.4086 21.49C32.5136 21.318 32.523 21.1033 32.4337 20.9225L32.2544 21.0112C32.3134 21.1305 32.3071 21.2724 32.2379 21.3858L32.4086 21.49ZM31.9166 21.7668C32.1174 21.7674 32.3035 21.6622 32.4086 21.49L32.2379 21.3858C32.1688 21.4991 32.0472 21.5672 31.9171 21.5668L31.9166 21.7668ZM13.0871 21.7668H31.9168V21.5668H13.0871V21.7668ZM12.5953 21.49C12.7004 21.6622 12.8865 21.7674 13.0874 21.7668L13.0868 21.5668C12.9568 21.5672 12.8352 21.4991 12.7661 21.3858L12.5953 21.49ZM12.5703 20.9225C12.4809 21.1033 12.4904 21.318 12.5953 21.49L12.7661 21.3858C12.6969 21.2724 12.6906 21.1305 12.7495 21.0112L12.5703 20.9225ZM16.7438 12.5141L12.5703 20.9224L12.7495 21.0113L16.9229 12.6031L16.7438 12.5141Z" fill="white"/>
</svg>
