<svg width="51" height="53" viewBox="0 0 51 53" fill="none" xmlns="http://www.w3.org/2000/svg">
<circle cx="25.0962" cy="25.963" r="19.963" fill="#FF9060"/>
<mask id="mask0_0_174" style="mask-type:luminance" maskUnits="userSpaceOnUse" x="5" y="6" width="41" height="40">
<circle cx="25.0962" cy="25.963" r="19.963" fill="white"/>
</mask>
<g mask="url(#mask0_0_174)">
<path fill-rule="evenodd" clip-rule="evenodd" d="M14 45C14 45 22.3333 50 26 50C29 50 36 45 36 45C36 45 33.3368 34.4693 25.6256 36.0995C25.6256 36.0995 18 35 14 45Z" fill="#78ECF1"/>
<path fill-rule="evenodd" clip-rule="evenodd" d="M28.3156 27.9557L21.6024 29.0949L21.5407 37.2954C21.5407 37.2954 21.9261 39.4196 25.3971 39.4791C28.6731 39.5352 28.8912 37.1976 28.8912 37.1976L28.3156 27.9557Z" fill="#FFD3C5"/>
<path fill-rule="evenodd" clip-rule="evenodd" d="M21.5673 33.7549L21.6024 29.0949L21.5673 33.7549ZM28.4827 30.6393L28.3156 27.9557L28.4827 30.6393Z" fill="#E5B4AD"/>
<path opacity="0.312988" fill-rule="evenodd" clip-rule="evenodd" d="M21.9115 33.7654C21.6949 33.7654 21.571 33.7554 21.5673 33.7549L21.6024 29.0949L28.3156 27.9557L28.4827 30.6393C26.291 33.5196 22.9785 33.7654 21.9115 33.7654Z" fill="#E49789"/>
<path fill-rule="evenodd" clip-rule="evenodd" d="M27.2271 12.4649C23.6683 11.1452 19.6817 12.7293 17.7995 16.0252C15.6888 19.7203 15 24.3983 15 28.8859H34.4007C34.4007 28.8859 34.0205 22.9661 33.1544 20.4659C32.5785 18.8047 31.8102 14.1649 27.2271 12.4649Z" fill="#172133"/>
<path fill-rule="evenodd" clip-rule="evenodd" d="M32.4983 24.2739C32.4983 24.9264 31.7049 25.8498 30.7944 25.5844C30.168 25.402 29.3661 24.9264 29.3661 24.2739C29.3661 23.6217 30.2802 22.9661 30.9322 22.9661C31.9849 22.9661 32.4983 23.6217 32.4983 24.2739Z" fill="#FFD3C5"/>
<path fill-rule="evenodd" clip-rule="evenodd" d="M31.3173 24.7578C31.3183 24.6154 31.3417 24.4752 31.3885 24.3405C31.4381 24.2064 31.49 24.07 31.639 23.9578C31.6729 23.9315 31.7339 23.9113 31.7871 23.9113C31.8154 23.9139 31.8468 23.9159 31.8715 23.9252C31.8942 23.9369 31.9171 23.9491 31.9378 23.9635C31.9778 23.9927 31.9981 24.0276 32.0268 24.0598C32.0642 24.1144 32.0637 24.1608 32.0661 24.2003C32.0671 24.3566 32.0193 24.4881 31.959 24.6178C31.9429 24.4783 31.9346 24.3356 31.91 24.2193C31.9027 24.192 31.8915 24.1674 31.8863 24.1671L31.8295 24.1205C31.7934 24.0981 31.7863 24.1064 31.7488 24.1269C31.6729 24.1756 31.5985 24.2971 31.5307 24.4061C31.4642 24.5205 31.3929 24.6378 31.3173 24.7578Z" fill="#EEA08E"/>
<path fill-rule="evenodd" clip-rule="evenodd" d="M16.9134 24.2739C16.9134 24.9264 17.7068 25.8498 18.6173 25.5844C19.2439 25.402 20.0456 24.9264 20.0456 24.2739C20.0456 23.6217 19.1319 22.9661 18.4795 22.9661C17.4268 22.9661 16.9134 23.6217 16.9134 24.2739Z" fill="#FFD3C5"/>
<path fill-rule="evenodd" clip-rule="evenodd" d="M18.0946 24.7578C18.0188 24.6378 17.9475 24.5205 17.881 24.4061C17.8132 24.2971 17.739 24.1756 17.6629 24.1269C17.6254 24.1064 17.6183 24.0981 17.5822 24.1205L17.5254 24.1671C17.5202 24.1674 17.509 24.192 17.5017 24.2193C17.4771 24.3356 17.4688 24.4783 17.4527 24.6178C17.3924 24.4881 17.3446 24.3566 17.3456 24.2003C17.348 24.1608 17.3475 24.1144 17.3849 24.0598C17.4139 24.0276 17.4341 23.9927 17.4739 23.9635C17.4949 23.9491 17.5175 23.9369 17.5402 23.9252C17.5649 23.9159 17.5963 23.9139 17.6246 23.9113C17.678 23.9113 17.739 23.9315 17.7727 23.9578C17.9217 24.07 17.9736 24.2064 18.0232 24.3405C18.07 24.4752 18.0934 24.6154 18.0946 24.7578Z" fill="#EEA08E"/>
<path fill-rule="evenodd" clip-rule="evenodd" d="M30.9278 22.5752C31.0441 27.13 28.8883 31.4837 25.1434 31.5795C21.3988 31.6752 18.6944 27.7869 18.5778 23.232C18.4614 18.6774 20.9771 15.1805 24.7217 15.0849C28.4663 14.9891 30.8112 18.0203 30.9278 22.5752Z" fill="#FFD3C5"/>
<path fill-rule="evenodd" clip-rule="evenodd" d="M22.6553 22.8064C22.6492 23.0583 22.4929 23.2593 22.3061 23.2547C22.1195 23.2503 21.9729 23.042 21.979 22.7898C21.9851 22.5376 22.1414 22.3369 22.3283 22.3415C22.5151 22.3461 22.6614 22.5542 22.6553 22.8064Z" fill="#172133"/>
<path fill-rule="evenodd" clip-rule="evenodd" d="M27.5273 22.8064C27.5212 23.0583 27.3646 23.2593 27.178 23.2547C26.9912 23.2503 26.8449 23.042 26.851 22.7898C26.8571 22.5376 27.0134 22.3369 27.2002 22.3415C27.3871 22.3461 27.5334 22.5542 27.5273 22.8064Z" fill="#172133"/>
<path fill-rule="evenodd" clip-rule="evenodd" d="M23.3412 25.192C23.5788 25.4632 23.8212 25.7115 24.0861 25.9056C24.3517 26.0961 24.6403 26.2244 24.9315 26.2147C25.2237 26.2176 25.5176 26.0854 25.7978 25.9098C26.0778 25.7295 26.34 25.4998 26.622 25.272C26.4776 25.6039 26.2725 25.9103 25.9966 26.1649C25.8591 26.2932 25.7003 26.4022 25.5232 26.4905C25.3432 26.572 25.1425 26.6239 24.9354 26.6291C24.7291 26.6281 24.5227 26.5805 24.3422 26.4932C24.1632 26.4025 24.0034 26.2871 23.8734 26.1478C23.611 25.8744 23.4283 25.5449 23.3412 25.192Z" fill="#D1746F"/>
<path fill-rule="evenodd" clip-rule="evenodd" d="M24.5448 24.3352C24.6392 24.1915 24.7531 24.0793 24.8746 23.9781C24.9948 23.8749 25.1246 23.7871 25.2602 23.7091L25.2527 24.0764C25.1351 23.9874 25.0492 23.8815 24.9827 23.7715C24.917 23.6605 24.8673 23.5488 24.8329 23.4327C24.7614 23.203 24.7319 22.9669 24.7597 22.7291C24.8905 22.9274 25.0036 23.1191 25.1231 23.2952C25.1866 23.38 25.2412 23.4681 25.309 23.5381C25.3736 23.6093 25.439 23.6722 25.5041 23.7142L25.7741 23.8883L25.4963 24.0815C25.3678 24.171 25.2329 24.251 25.0883 24.3157C24.9451 24.382 24.7946 24.4374 24.6246 24.4613C24.5797 24.4676 24.5385 24.4364 24.5319 24.3917L24.5448 24.3352Z" fill="#D1746F"/>
<path fill-rule="evenodd" clip-rule="evenodd" d="M18.4795 22.9662C18.4795 22.9662 19.7639 21.4852 20.661 18.4001C21.5278 15.4193 23.0385 17.5486 26.2819 17.5486C29.5254 17.5486 29.3661 16.3388 29.3661 16.3388C29.3661 16.3388 25.2859 11.7142 20.4476 15.6274C15.6093 19.5408 18.4795 22.9662 18.4795 22.9662Z" fill="#172133"/>
<path fill-rule="evenodd" clip-rule="evenodd" d="M28.608 16.4744C28.608 16.4744 28.2141 19.7166 30.1129 20.4905C30.7166 20.7364 30.5473 20.4856 30.9322 22.9661C30.9322 22.9661 32.1053 17.4195 28.608 16.4744Z" fill="#172133"/>
</g>
</svg>
