<svg width="50" height="51" viewBox="0 0 50 51" fill="none" xmlns="http://www.w3.org/2000/svg">
<circle cx="25" cy="26" r="19" fill="#7A40F2"/>
<mask id="mask0_0_327" style="mask-type:luminance" maskUnits="userSpaceOnUse" x="6" y="7" width="38" height="38">
<circle cx="25" cy="26" r="19" fill="white"/>
</mask>
<g mask="url(#mask0_0_327)">
<path fill-rule="evenodd" clip-rule="evenodd" d="M19.1298 17.0103C18.1033 18.9564 15.7414 19.6732 13.6754 20.4307C11.6097 21.1879 9.33866 22.5494 9.18036 24.7441C9.08117 26.1241 9.88537 27.4577 9.7484 28.8348C9.46582 31.6774 5.75451 32.6332 4.03394 34.9135C2.79578 36.5547 2.70956 38.899 3.56221 40.7698C4.41485 42.6406 6.09735 44.0512 7.98285 44.871C11.8744 46.5618 16.6021 45.7905 20.0603 43.332C23.5181 40.8739 25.743 36.9062 26.5535 32.7414C27.3641 28.5768 26.8451 24.2317 25.587 20.1795C25.1196 18.6744 24.4604 17.0882 23.1023 16.2883C21.7445 15.4884 19.5568 16.0432 19.3094 17.5997L19.1298 17.0103Z" fill="#0A0F21"/>
<path fill-rule="evenodd" clip-rule="evenodd" d="M18.2341 20.9252C18.2341 15.4434 22.307 11 27.3312 11C32.3553 11 36.428 15.4434 36.428 20.9252C36.428 26.4067 32.3553 30.8501 27.3312 30.8501C22.307 30.8501 18.2341 26.4067 18.2341 20.9252Z" fill="#0A0F21"/>
<path fill-rule="evenodd" clip-rule="evenodd" d="M20.7494 19.1187C20.7494 19.1187 18.7915 17.57 18.8166 17.226L18.2341 17.4601L20.021 19.6815L20.7494 19.1187Z" fill="#FF05DB"/>
<path fill-rule="evenodd" clip-rule="evenodd" d="M16.1024 46.8855C16.1024 46.8855 23.1034 50.4975 26.9428 50.4094C30.8903 50.3188 39.4628 46.3493 39.4628 46.3493C39.4628 46.3493 37.7844 37.636 28.6677 39.5634C28.6677 39.5634 20.1574 37.4387 16.1024 46.8855Z" fill="#57C6FF"/>
<path fill-rule="evenodd" clip-rule="evenodd" d="M32.3323 29.9355L24.3962 31.2823L24.3229 40.9771C24.3229 40.9771 24.7785 43.4883 28.882 43.5587C32.7551 43.625 33.0131 40.8615 33.0131 40.8615L32.3323 29.9355L20.3683 38.7283Z" fill="#FBDED4"/>
<path fill-rule="evenodd" clip-rule="evenodd" d="M24.3543 36.7915L24.3962 31.2823L24.3543 36.7915Z" fill="#0A0F21"/>
<path fill-rule="evenodd" clip-rule="evenodd" d="M24.7615 36.8039C24.5029 36.8039 24.3558 36.7918 24.3544 36.7915L24.3962 31.2823L32.3324 29.9355L32.5299 33.1081C29.9391 36.5132 26.023 36.8039 24.7615 36.8039Z" fill="#F6D3C8"/>
<path fill-rule="evenodd" clip-rule="evenodd" d="M37.8244 25.501C37.8244 26.272 36.8864 27.3637 35.8097 27.05C35.0695 26.8343 34.1215 26.272 34.1215 25.501C34.1215 24.7296 35.2019 23.9546 35.9729 23.9546C37.2172 23.9546 37.8244 24.7296 37.8244 25.501Z" fill="#FBDED4"/>
<path fill-rule="evenodd" clip-rule="evenodd" d="M36.428 26.0728C36.4294 25.9044 36.4571 25.7386 36.5122 25.5794C36.571 25.4208 36.6324 25.2599 36.8086 25.1273C36.8484 25.0958 36.9205 25.0719 36.9836 25.0719C37.0171 25.0751 37.0543 25.0777 37.0831 25.0886C37.1099 25.1022 37.137 25.1166 37.1618 25.1339C37.2088 25.1682 37.2328 25.2097 37.2668 25.2475C37.3112 25.3121 37.3106 25.3669 37.3132 25.4136C37.3144 25.5987 37.2581 25.7541 37.1869 25.9072C37.1676 25.7426 37.1578 25.5739 37.1287 25.4361C37.12 25.4041 37.1067 25.375 37.101 25.3744L37.0338 25.3196C36.9911 25.2928 36.9828 25.3026 36.9381 25.3271C36.8484 25.3845 36.7604 25.5281 36.6806 25.6572C36.6019 25.7922 36.5177 25.9309 36.428 26.0728Z" fill="#EEA08E"/>
<path fill-rule="evenodd" clip-rule="evenodd" d="M19.3994 25.501C19.3994 26.272 20.3377 27.3637 21.4141 27.05C22.1546 26.8343 23.1024 26.272 23.1024 25.501C23.1024 24.7296 22.0219 23.9546 21.2509 23.9546C20.0067 23.9546 19.3994 24.7296 19.3994 25.501Z" fill="#FBDED4"/>
<path fill-rule="evenodd" clip-rule="evenodd" d="M20.7959 26.0728C20.7065 25.9309 20.6223 25.7922 20.5436 25.6572C20.4634 25.5281 20.3755 25.3845 20.2855 25.3271C20.2414 25.3026 20.233 25.2928 20.1904 25.3196L20.1229 25.3744C20.1171 25.375 20.1039 25.4041 20.0952 25.4361C20.0661 25.5739 20.0563 25.7426 20.0372 25.9072C19.9657 25.7541 19.9095 25.5987 19.9107 25.4136C19.9135 25.3669 19.913 25.3121 19.9571 25.2475C19.9911 25.2097 20.015 25.1682 20.062 25.1339C20.0868 25.1166 20.1139 25.1022 20.1408 25.0886C20.1699 25.0777 20.2068 25.0751 20.2402 25.0719C20.3034 25.0719 20.3755 25.0958 20.4156 25.1273C20.5917 25.2599 20.6529 25.4208 20.7117 25.5794C20.7671 25.7386 20.7944 25.9044 20.7959 26.0728Z" fill="#EEA08E"/>
<path fill-rule="evenodd" clip-rule="evenodd" d="M35.9678 23.4923C36.1054 28.8772 33.5564 34.0242 29.1294 34.1375C24.7021 34.2506 21.5049 29.654 21.3674 24.2691C21.2298 18.8843 24.2036 14.7505 28.6305 14.6372C33.0578 14.5239 35.83 18.1075 35.9678 23.4923Z" fill="#FBDED4"/>
<path fill-rule="evenodd" clip-rule="evenodd" d="M26.132 23.7657C26.1248 24.0638 25.9397 24.3012 25.7191 24.296C25.4982 24.2905 25.3249 24.0445 25.3321 23.7464C25.3396 23.4482 25.5245 23.2109 25.7453 23.2161C25.9662 23.2216 26.1392 23.4678 26.132 23.7657Z" fill="#172133"/>
<path fill-rule="evenodd" clip-rule="evenodd" d="M31.8918 23.7657C31.8846 24.0638 31.6997 24.3012 31.4786 24.296C31.258 24.2905 31.0847 24.0445 31.0919 23.7464C31.0991 23.4482 31.2842 23.2109 31.5051 23.2161C31.7257 23.2216 31.899 23.4678 31.8918 23.7657Z" fill="#172133"/>
<path fill-rule="evenodd" clip-rule="evenodd" d="M26.9429 26.586C27.2237 26.9067 27.5103 27.2005 27.8235 27.4297C28.1375 27.6549 28.4783 27.8066 28.8229 27.7951C29.1683 27.7985 29.5155 27.6425 29.8471 27.4346C30.1781 27.2215 30.4881 26.9502 30.8211 26.6806C30.6504 27.073 30.4082 27.4355 30.0821 27.7365C29.9192 27.8879 29.7318 28.0171 29.5221 28.1212C29.3096 28.2178 29.072 28.2789 28.8275 28.2852C28.5833 28.2838 28.3393 28.2279 28.126 28.1246C27.9146 28.0174 27.7254 27.8807 27.572 27.7163C27.2615 27.3928 27.0458 27.0035 26.9429 26.586Z" fill="#292929"/>
<path fill-rule="evenodd" clip-rule="evenodd" d="M28.3655 25.5733C28.477 25.4035 28.612 25.2706 28.7556 25.1509C28.8975 25.0292 29.0509 24.9254 29.2118 24.8329L29.2025 25.2674C29.0633 25.1619 28.9618 25.0367 28.883 24.907C28.8058 24.7758 28.7467 24.6437 28.706 24.5065C28.6215 24.2348 28.5869 23.9554 28.6195 23.6743C28.774 23.909 28.9078 24.1354 29.0494 24.3435C29.1244 24.4442 29.189 24.5483 29.2688 24.6307C29.3455 24.7149 29.4228 24.7893 29.4998 24.8389L29.819 25.0451L29.4906 25.2735C29.3386 25.3793 29.1792 25.4736 29.0085 25.55C28.8389 25.6287 28.661 25.6939 28.46 25.7221C28.407 25.7299 28.358 25.693 28.3505 25.6399L28.3655 25.5733Z" fill="#D1746F"/>
<path fill-rule="evenodd" clip-rule="evenodd" d="M32.5299 13.502C30.9284 12.1995 28.0063 12.7517 28.0063 12.7517C25.3428 13.0738 22.917 14.6153 21.7039 17.0083C19.8374 20.6896 21.4265 24.567 21.4265 24.567C25.7015 23.0186 28.3837 18.2822 29.5169 15.8477C30.0215 18.2934 31.5613 21.61 35.973 23.9543C35.973 23.9543 37.2265 17.3214 32.5299 13.502Z" fill="#0A0F21"/>
</g>
</svg>
