<svg width="44" height="44" viewBox="0 0 44 44" fill="none" xmlns="http://www.w3.org/2000/svg">
<path fill-rule="evenodd" clip-rule="evenodd" d="M33.135 14H23.006H20.0048H9.87574C8.84146 14 8 14.8415 8 15.8757V23.0036C8 24.0379 8.84146 24.8793 9.87574 24.8793H20.0048H23.006H33.135C34.1693 24.8793 35.0107 24.0379 35.0107 23.0036V15.8757C35.0107 14.8415 34.1693 14 33.135 14ZM9.87574 14.7503H20.0048H23.006H33.135C33.7555 14.7503 34.2604 15.2552 34.2604 15.8757V21.1278H23.006H20.0048H8.7503V15.8757C8.7503 15.2552 9.25525 14.7503 9.87574 14.7503ZM31.6344 24.129H33.135C33.7555 24.129 34.2604 23.6241 34.2604 23.0036V21.8781H23.006H20.0048H8.7503V23.0036C8.7503 23.6241 9.25525 24.129 9.87574 24.129H11.3763H31.6344Z" fill="#9897AD"/>
<path d="M34.2604 21.1278V21.3778H34.5104V21.1278H34.2604ZM8.7503 21.1278H8.5003V21.3778H8.7503V21.1278ZM34.2604 21.8781H34.5104V21.6281H34.2604V21.8781ZM8.7503 21.8781V21.6281H8.5003V21.8781H8.7503ZM23.006 14.25H33.135V13.75H23.006V14.25ZM20.0048 14.25H23.006V13.75H20.0048V14.25ZM9.87574 14.25H20.0048V13.75H9.87574V14.25ZM8.25 15.8757C8.25 14.9795 8.97953 14.25 9.87574 14.25V13.75C8.70339 13.75 7.75 14.7034 7.75 15.8757H8.25ZM8.25 23.0036V15.8757H7.75V23.0036H8.25ZM9.87574 24.6293C8.97953 24.6293 8.25 23.8998 8.25 23.0036H7.75C7.75 24.1759 8.70339 25.1293 9.87574 25.1293V24.6293ZM20.0048 24.6293H9.87574V25.1293H20.0048V24.6293ZM23.006 24.6293H20.0048V25.1293H23.006V24.6293ZM33.135 24.6293H23.006V25.1293H33.135V24.6293ZM34.7607 23.0036C34.7607 23.8998 34.0312 24.6293 33.135 24.6293V25.1293C34.3073 25.1293 35.2607 24.1759 35.2607 23.0036H34.7607ZM34.7607 15.8757V23.0036H35.2607V15.8757H34.7607ZM33.135 14.25C34.0312 14.25 34.7607 14.9795 34.7607 15.8757H35.2607C35.2607 14.7034 34.3073 13.75 33.135 13.75V14.25ZM20.0048 14.5003H9.87574V15.0003H20.0048V14.5003ZM23.006 14.5003H20.0048V15.0003H23.006V14.5003ZM33.135 14.5003H23.006V15.0003H33.135V14.5003ZM34.5104 15.8757C34.5104 15.1172 33.8935 14.5003 33.135 14.5003V15.0003C33.6174 15.0003 34.0104 15.3933 34.0104 15.8757H34.5104ZM34.5104 21.1278V15.8757H34.0104V21.1278H34.5104ZM23.006 21.3778H34.2604V20.8778H23.006V21.3778ZM20.0048 21.3778H23.006V20.8778H20.0048V21.3778ZM8.7503 21.3778H20.0048V20.8778H8.7503V21.3778ZM8.5003 15.8757V21.1278H9.0003V15.8757H8.5003ZM9.87574 14.5003C9.11718 14.5003 8.5003 15.1172 8.5003 15.8757H9.0003C9.0003 15.3933 9.39332 15.0003 9.87574 15.0003V14.5003ZM33.135 23.879H31.6344V24.379H33.135V23.879ZM34.0104 23.0036C34.0104 23.486 33.6174 23.879 33.135 23.879V24.379C33.8935 24.379 34.5104 23.7621 34.5104 23.0036H34.0104ZM34.0104 21.8781V23.0036H34.5104V21.8781H34.0104ZM23.006 22.1281H34.2604V21.6281H23.006V22.1281ZM20.0048 22.1281H23.006V21.6281H20.0048V22.1281ZM8.7503 22.1281H20.0048V21.6281H8.7503V22.1281ZM9.0003 23.0036V21.8781H8.5003V23.0036H9.0003ZM9.87574 23.879C9.39332 23.879 9.0003 23.486 9.0003 23.0036H8.5003C8.5003 23.7621 9.11718 24.379 9.87574 24.379V23.879ZM11.3763 23.879H9.87574V24.379H11.3763V23.879ZM31.6344 23.879H11.3763V24.379H31.6344V23.879Z" fill="#9897AD"/>
<rect x="10.8757" y="18.8769" width="3.00119" height="0.750298" rx="0.375149" fill="#9897AD"/>
<rect x="14.6272" y="18.8769" width="0.750298" height="0.750298" rx="0.375149" fill="#9897AD"/>
<path d="M13.2521 26.3799H12.5018C12.5018 26.6785 12.3885 26.8106 12.2171 27.0109C12.0096 27.2525 11.7515 27.5538 11.7515 28.13C11.7515 28.7066 12.0096 29.0075 12.2171 29.2494C12.3885 29.4498 12.5018 29.5818 12.5018 29.8808C12.5018 30.1798 12.3885 30.3122 12.2167 30.5122C12.0096 30.7541 11.7515 31.0554 11.7515 31.632H12.5018C12.5018 31.333 12.6151 31.2006 12.7869 31.0006C12.994 30.7587 13.2521 30.457 13.2521 29.8808C13.2521 29.3046 12.9944 29.0033 12.7869 28.7614C12.6151 28.5614 12.5018 28.429 12.5018 28.13C12.5018 27.831 12.6151 27.6989 12.7865 27.499C12.994 27.257 13.2521 26.9561 13.2521 26.3799Z" fill="#9897AD" stroke="#9897AD" stroke-width="0.5"/>
<path d="M17.7539 26.3799H17.0036C17.0036 26.6785 16.8903 26.8106 16.7188 27.0109C16.5114 27.2525 16.2533 27.5538 16.2533 28.13C16.2533 28.7066 16.5114 29.0075 16.7188 29.2494C16.8903 29.4498 17.0036 29.5818 17.0036 29.8808C17.0036 30.1798 16.8903 30.3122 16.7185 30.5122C16.5114 30.7541 16.2533 31.0554 16.2533 31.632H17.0036C17.0036 31.333 17.1169 31.2006 17.2887 31.0006C17.4958 30.7587 17.7539 30.457 17.7539 29.8808C17.7539 29.3046 17.4961 29.0033 17.2887 28.7614C17.1169 28.5614 17.0036 28.429 17.0036 28.13C17.0036 27.831 17.1169 27.6989 17.2883 27.499C17.4958 27.257 17.7539 26.9561 17.7539 26.3799Z" fill="#9897AD" stroke="#9897AD" stroke-width="0.5"/>
<path d="M22.2557 26.3799H21.5054C21.5054 26.6785 21.3921 26.8106 21.2206 27.0109C21.0132 27.2525 20.7551 27.5538 20.7551 28.13C20.7551 28.7066 21.0132 29.0075 21.2206 29.2494C21.3921 29.4498 21.5054 29.5818 21.5054 29.8808C21.5054 30.1798 21.3921 30.3122 21.2203 30.5122C21.0132 30.7541 20.7551 31.0554 20.7551 31.632H21.5054C21.5054 31.333 21.6187 31.2006 21.7905 31.0006C21.9976 30.7587 22.2557 30.457 22.2557 29.8808C22.2557 29.3046 21.9979 29.0033 21.7905 28.7614C21.6187 28.5614 21.5054 28.429 21.5054 28.13C21.5054 27.831 21.6187 27.6989 21.7901 27.499C21.9976 27.257 22.2557 26.9561 22.2557 26.3799Z" fill="#9897AD" stroke="#9897AD" stroke-width="0.5"/>
<path d="M26.7574 26.3799H26.0071C26.0071 26.6785 25.8938 26.8106 25.7224 27.0109C25.5149 27.2525 25.2568 27.5538 25.2568 28.13C25.2568 28.7066 25.5149 29.0075 25.7224 29.2494C25.8938 29.4498 26.0071 29.5818 26.0071 29.8808C26.0071 30.1798 25.8938 30.3122 25.722 30.5122C25.5149 30.7541 25.2568 31.0554 25.2568 31.632H26.0071C26.0071 31.333 26.1204 31.2006 26.2922 31.0006C26.4993 30.7587 26.7574 30.457 26.7574 29.8808C26.7574 29.3046 26.4997 29.0033 26.2922 28.7614C26.1204 28.5614 26.0071 28.429 26.0071 28.13C26.0071 27.831 26.1204 27.6989 26.2919 27.499C26.4993 27.257 26.7574 26.9561 26.7574 26.3799Z" fill="#9897AD" stroke="#9897AD" stroke-width="0.5"/>
<path d="M31.2592 26.3799H30.5089C30.5089 26.6785 30.3956 26.8106 30.2242 27.0109C30.0167 27.2525 29.7586 27.5538 29.7586 28.13C29.7586 28.7066 30.0167 29.0075 30.2242 29.2494C30.3956 29.4498 30.5089 29.5818 30.5089 29.8808C30.5089 30.1798 30.3956 30.3122 30.2238 30.5122C30.0167 30.7541 29.7586 31.0554 29.7586 31.632H30.5089C30.5089 31.333 30.6222 31.2006 30.794 31.0006C31.0011 30.7587 31.2592 30.457 31.2592 29.8808C31.2592 29.3046 31.0015 29.0033 30.794 28.7614C30.6222 28.5614 30.5089 28.429 30.5089 28.13C30.5089 27.831 30.6222 27.6989 30.7937 27.499C31.0011 27.257 31.2592 26.9561 31.2592 26.3799Z" fill="#9897AD" stroke="#9897AD" stroke-width="0.5"/>
</svg>
