<svg width="44" height="44" viewBox="0 0 44 44" fill="none" xmlns="http://www.w3.org/2000/svg">
<path fill-rule="evenodd" clip-rule="evenodd" d="M12.6836 12.8662C15.1393 10.4104 18.3658 9.18249 21.5888 9.18248C24.8118 9.18247 28.0383 10.4104 30.494 12.8662C35.4055 17.7776 35.4055 25.7561 30.494 30.6676C25.5825 35.5791 17.5951 35.5791 12.6836 30.6676C7.77213 25.7562 7.77214 17.7776 12.6836 12.8662ZM29.6804 13.6708C27.4433 11.4338 24.5165 10.318 21.5888 10.318C18.6611 10.318 15.7343 11.4338 13.4972 13.6708C9.02311 18.145 9.0231 25.3888 13.4972 29.8629C17.9714 34.3371 25.2063 34.3371 29.6804 29.8629C34.1545 25.3889 34.1545 18.145 29.6804 13.6708ZM21.5888 12.9735C21.4387 12.9736 21.2916 12.9749 21.1418 12.9824C21.1209 12.9813 21.1 12.9813 21.0792 12.9824C20.8747 13.0031 20.6969 13.1314 20.6126 13.3188C20.5284 13.5063 20.5505 13.7244 20.6707 13.8911C20.7909 14.0578 20.991 14.1476 21.1954 14.1268C23.2935 14.0217 25.4183 14.7376 27.016 16.3353C28.6137 17.9329 29.3296 20.0578 29.2244 22.1558C29.2096 22.4719 29.4538 22.7401 29.7698 22.7549C30.0858 22.7697 30.354 22.5255 30.3689 22.2095C30.4891 19.8115 29.6658 17.3578 27.8296 15.5216C26.1082 13.8002 23.841 12.9716 21.5888 12.9735ZM18.5847 18.7583C19.4129 17.93 20.499 17.5155 21.5888 17.5155C22.6787 17.5155 23.7648 17.93 24.593 18.7583C26.2494 20.4147 26.2494 23.1191 24.593 24.7755C22.9365 26.432 20.2411 26.432 18.5847 24.7755C16.9282 23.1191 16.9282 20.4147 18.5847 18.7583ZM21.5888 18.651C22.3834 18.651 23.1787 18.9623 23.7883 19.5719C25.0074 20.791 25.0074 22.7518 23.7883 23.9708C22.5692 25.19 20.6084 25.19 19.3893 23.9708C18.1702 22.7518 18.1702 20.791 19.3893 19.5719C19.9989 18.9623 20.7942 18.651 21.5888 18.651ZM12.7998 21.3154C12.813 21.0232 13.0444 20.788 13.3363 20.77C13.5006 20.7594 13.6615 20.82 13.7779 20.9364C13.8943 21.0528 13.9549 21.2137 13.9443 21.378C13.8391 23.4759 14.5551 25.601 16.1527 27.1985C17.7505 28.7962 19.8753 29.5121 21.9733 29.407C22.1777 29.3958 22.3726 29.4945 22.4845 29.666C22.5964 29.8374 22.6084 30.0556 22.5158 30.2382C22.4233 30.4209 22.2403 30.5402 22.0359 30.5514C19.6379 30.6716 17.1843 29.8394 15.348 28.0032C13.5119 26.1671 12.6796 23.7134 12.7998 21.3154Z" fill="white"/>
<path d="M12.6836 12.8662L12.5775 12.7601L12.6836 12.8662ZM30.494 12.8662L30.388 12.9722L30.494 12.8662ZM30.494 30.6676L30.6001 30.7737L30.494 30.6676ZM12.6836 30.6676L12.7897 30.5616L12.6836 30.6676ZM21.5888 10.318V10.468V10.318ZM29.6804 13.6708L29.5743 13.7769L29.6804 13.6708ZM13.4972 13.6708L13.6033 13.7769V13.7769L13.4972 13.6708ZM13.4972 29.8629L13.6033 29.7569H13.6033L13.4972 29.8629ZM29.6804 29.8629L29.5743 29.7569L29.6804 29.8629ZM21.1418 12.9824L21.1336 13.1322L21.1414 13.1326L21.1493 13.1322L21.1418 12.9824ZM21.5888 12.9735L21.5887 12.8235L21.5888 12.9735ZM21.0792 12.9824L21.071 12.8325L21.064 12.8332L21.0792 12.9824ZM20.6126 13.3188L20.7494 13.3803V13.3803L20.6126 13.3188ZM20.6707 13.8911L20.5491 13.9788V13.9788L20.6707 13.8911ZM21.1954 14.1268L21.1879 13.9768L21.1802 13.9776L21.1954 14.1268ZM27.016 16.3353L27.1221 16.2292V16.2292L27.016 16.3353ZM29.2244 22.1558L29.0746 22.1483L29.0746 22.1488L29.2244 22.1558ZM29.7698 22.7549L29.7768 22.605L29.7698 22.7549ZM30.3689 22.2095L30.219 22.202L30.219 22.2025L30.3689 22.2095ZM27.8296 15.5216L27.9357 15.4156V15.4156L27.8296 15.5216ZM21.5888 17.5155V17.3655V17.5155ZM18.5847 18.7583L18.4786 18.6522L18.5847 18.7583ZM24.593 24.7755L24.4869 24.6695L24.4869 24.6695L24.593 24.7755ZM18.5847 24.7755L18.6907 24.6695L18.6907 24.6695L18.5847 24.7755ZM23.7883 19.5719L23.6822 19.678L23.7883 19.5719ZM21.5888 18.651L21.5888 18.801L21.5888 18.651ZM23.7883 23.9708L23.6822 23.8648L23.6822 23.8648L23.7883 23.9708ZM19.3893 23.9708L19.4954 23.8648L19.4954 23.8648L19.3893 23.9708ZM19.3893 19.5719L19.2833 19.4658L19.3893 19.5719ZM13.3363 20.77L13.3455 20.9197L13.346 20.9197L13.3363 20.77ZM12.7998 21.3154L12.9497 21.3229L12.9497 21.3221L12.7998 21.3154ZM13.7779 20.9364L13.8839 20.8303L13.8839 20.8303L13.7779 20.9364ZM13.9443 21.378L13.7946 21.3683L13.7945 21.3705L13.9443 21.378ZM16.1527 27.1985L16.0466 27.3046L16.0466 27.3046L16.1527 27.1985ZM21.9733 29.407L21.9808 29.5568L21.9815 29.5567L21.9733 29.407ZM22.4845 29.666L22.3589 29.7479H22.3589L22.4845 29.666ZM22.0359 30.5514L22.0434 30.7012L22.044 30.7012L22.0359 30.5514ZM15.348 28.0032L15.242 28.1093L15.242 28.1093L15.348 28.0032ZM21.5888 9.03248C18.3278 9.03249 15.0626 10.275 12.5775 12.7601L12.7897 12.9722C15.2161 10.5458 18.4039 9.33249 21.5888 9.33248L21.5888 9.03248ZM30.6001 12.7601C28.115 10.275 24.8498 9.03247 21.5888 9.03248L21.5888 9.33248C24.7738 9.33247 27.9616 10.5458 30.388 12.9722L30.6001 12.7601ZM30.6001 30.7737C35.5701 25.8036 35.5702 17.7302 30.6001 12.7601L30.388 12.9722C35.2409 17.8251 35.2409 25.7087 30.388 30.5616L30.6001 30.7737ZM12.5775 30.7737C17.5476 35.7437 25.63 35.7437 30.6001 30.7737L30.388 30.5616C25.5351 35.4144 17.6426 35.4145 12.7897 30.5616L12.5775 30.7737ZM12.5775 12.7601C7.60749 17.7301 7.60748 25.8037 12.5775 30.7737L12.7897 30.5616C7.93677 25.7087 7.93678 17.8251 12.7897 12.9722L12.5775 12.7601ZM21.5888 10.468C24.4783 10.468 27.3665 11.5691 29.5743 13.7769L29.7865 13.5648C27.5201 11.2985 24.5547 10.168 21.5888 10.168V10.468ZM13.6033 13.7769C15.8111 11.5691 18.6993 10.468 21.5888 10.468V10.168C18.623 10.168 15.6575 11.2985 13.3912 13.5648L13.6033 13.7769ZM13.6033 29.7569C9.18775 25.3413 9.18775 18.1925 13.6033 13.7769L13.3912 13.5648C8.85846 18.0975 8.85846 25.4363 13.3912 29.969L13.6033 29.7569ZM29.5743 29.7569C25.1588 34.1725 18.0189 34.1725 13.6033 29.7569L13.3912 29.969C17.9239 34.5018 25.2538 34.5017 29.7865 29.969L29.5743 29.7569ZM29.5743 13.7769C33.9899 18.1925 33.9899 25.3414 29.5743 29.7569L29.7865 29.969C34.3192 25.4363 34.3192 18.0975 29.7865 13.5648L29.5743 13.7769ZM21.1493 13.1322C21.2953 13.1249 21.4393 13.1236 21.5889 13.1235L21.5887 12.8235C21.438 12.8236 21.288 12.8249 21.1343 12.8326L21.1493 13.1322ZM21.0874 13.1322C21.1028 13.1313 21.1182 13.1313 21.1336 13.1322L21.15 12.8326C21.1237 12.8312 21.0973 12.8312 21.071 12.8326L21.0874 13.1322ZM20.7494 13.3803C20.8117 13.2418 20.9432 13.147 21.0943 13.1316L21.064 12.8332C20.8063 12.8593 20.582 13.021 20.4758 13.2573L20.7494 13.3803ZM20.7924 13.8033C20.7035 13.6801 20.6871 13.5189 20.7494 13.3803L20.4758 13.2573C20.3696 13.4936 20.3975 13.7687 20.5491 13.9788L20.7924 13.8033ZM21.1802 13.9776C21.0291 13.993 20.8813 13.9265 20.7924 13.8033L20.5491 13.9788C20.7006 14.189 20.9528 14.3023 21.2106 14.2761L21.1802 13.9776ZM27.1221 16.2292C25.4921 14.5993 23.3249 13.8699 21.1879 13.977L21.2029 14.2766C23.262 14.1735 25.3445 14.8759 26.9099 16.4413L27.1221 16.2292ZM29.3742 22.1633C29.4814 20.0263 28.752 17.8591 27.1221 16.2292L26.9099 16.4413C28.4753 18.0067 29.1779 20.0893 29.0746 22.1483L29.3742 22.1633ZM29.7768 22.605C29.5436 22.5941 29.3633 22.3961 29.3742 22.1629L29.0746 22.1488C29.0559 22.5476 29.364 22.886 29.7628 22.9047L29.7768 22.605ZM30.219 22.2025C30.2081 22.4357 30.0101 22.616 29.7768 22.605L29.7628 22.9047C30.1616 22.9234 30.5 22.6153 30.5187 22.2165L30.219 22.2025ZM27.7235 15.6277C29.5274 17.4316 30.3374 19.8429 30.219 22.202L30.5187 22.217C30.6409 19.78 29.8041 17.284 27.9357 15.4156L27.7235 15.6277ZM21.5889 13.1235C23.8045 13.1216 26.0325 13.9366 27.7235 15.6277L27.9357 15.4156C26.1839 13.6638 23.8775 12.8216 21.5887 12.8235L21.5889 13.1235ZM21.5888 17.3655C20.4609 17.3655 19.3361 17.7947 18.4786 18.6522L18.6907 18.8643C19.4896 18.0654 20.5371 17.6655 21.5888 17.6655V17.3655ZM24.699 18.6522C23.8415 17.7947 22.7168 17.3655 21.5888 17.3655V17.6655C22.6406 17.6655 23.688 18.0654 24.4869 18.8643L24.699 18.6522ZM24.699 24.8816C26.4141 23.1666 26.4141 20.3672 24.699 18.6522L24.4869 18.8643C26.0848 20.4622 26.0848 23.0716 24.4869 24.6695L24.699 24.8816ZM18.4786 24.8816C20.1936 26.5966 22.984 26.5966 24.699 24.8816L24.4869 24.6695C22.889 26.2674 20.2886 26.2674 18.6907 24.6695L18.4786 24.8816ZM18.4786 18.6522C16.7636 20.3672 16.7635 23.1666 18.4786 24.8816L18.6907 24.6695C17.0928 23.0716 17.0928 20.4622 18.6907 18.8643L18.4786 18.6522ZM23.8944 19.4658C23.2563 18.8278 22.4227 18.501 21.5888 18.501L21.5888 18.801C22.3441 18.801 23.1012 19.0969 23.6822 19.678L23.8944 19.4658ZM23.8944 24.0769C25.172 22.7992 25.172 20.7435 23.8944 19.4658L23.6822 19.678C24.8428 20.8385 24.8428 22.7043 23.6822 23.8648L23.8944 24.0769ZM19.2833 24.0769C20.561 25.3546 22.6167 25.3546 23.8944 24.0769L23.6822 23.8648C22.5217 25.0253 20.6559 25.0253 19.4954 23.8648L19.2833 24.0769ZM19.2833 19.4658C18.0056 20.7435 18.0056 22.7992 19.2833 24.0769L19.4954 23.8648C18.3349 22.7043 18.3349 20.8385 19.4954 19.678L19.2833 19.4658ZM21.5888 18.501C20.755 18.501 19.9213 18.8278 19.2833 19.4658L19.4954 19.678C20.0765 19.0969 20.8335 18.801 21.5888 18.801L21.5888 18.501ZM13.3271 20.6203C12.9586 20.643 12.6666 20.9399 12.65 21.3086L12.9497 21.3221C12.9594 21.1065 13.1301 20.933 13.3455 20.9197L13.3271 20.6203ZM13.8839 20.8303C13.737 20.6834 13.534 20.6069 13.3266 20.6203L13.346 20.9197C13.4672 20.9118 13.5859 20.9566 13.6718 21.0425L13.8839 20.8303ZM14.094 21.3876C14.1074 21.1803 14.0308 20.9772 13.8839 20.8303L13.6718 21.0425C13.7577 21.1284 13.8024 21.2471 13.7946 21.3683L14.094 21.3876ZM16.2588 27.0925C14.6934 25.5271 13.9908 23.4444 14.0941 21.3855L13.7945 21.3705C13.6873 23.5074 14.4168 25.6748 16.0466 27.3046L16.2588 27.0925ZM21.9658 29.2571C19.9068 29.3604 17.8243 28.6579 16.2588 27.0925L16.0466 27.3046C17.6767 28.9346 19.8438 29.6639 21.9808 29.5568L21.9658 29.2571ZM22.6101 29.584C22.4689 29.3676 22.223 29.243 21.9651 29.2572L21.9815 29.5567C22.1324 29.5485 22.2763 29.6214 22.3589 29.7479L22.6101 29.584ZM22.6496 30.306C22.7664 30.0756 22.7513 29.8003 22.6101 29.584L22.3589 29.7479C22.4415 29.8745 22.4503 30.0356 22.382 30.1704L22.6496 30.306ZM22.044 30.7012C22.302 30.6871 22.5329 30.5365 22.6496 30.306L22.382 30.1704C22.3137 30.3052 22.1786 30.3934 22.0277 30.4016L22.044 30.7012ZM15.242 28.1093C17.1102 29.9775 19.6061 30.8234 22.0434 30.7012L22.0284 30.4016C19.6698 30.5198 17.2583 29.7013 15.4541 27.8972L15.242 28.1093ZM12.65 21.3079C12.5278 23.7452 13.3738 26.2412 15.242 28.1093L15.4541 27.8972C13.65 26.0931 12.8313 23.6815 12.9497 21.3229L12.65 21.3079Z" fill="white"/>
</svg>
