<svg width="36" height="36" viewBox="0 0 36 36" fill="none" xmlns="http://www.w3.org/2000/svg">
<circle opacity="0.114723" cx="17.82" cy="17.82" r="17.82" fill="#7A40F2"/>
<path fill-rule="evenodd" clip-rule="evenodd" d="M23.0531 13.4665C23.189 13.4314 23.3248 13.4665 23.4267 13.5716C23.5286 13.6767 23.5626 13.8169 23.4947 13.9921L17.7209 28.8498C17.6869 28.9899 17.5511 29.06 17.4152 29.06H17.3133C17.1435 29.025 17.0416 28.8498 17.0756 28.6745L18.8417 18.4424L13.4076 19.4586C13.3057 19.4586 13.1698 19.4236 13.1019 19.3535C13.034 19.2484 13 19.1432 13 19.0381L14.3585 8.31537C14.3925 8.14017 14.5283 8 14.6982 8H19.9285C20.0304 8 20.1323 8.03504 20.2002 8.14017C20.2681 8.24529 20.2681 8.35042 20.2342 8.45554L17.7549 15.3938L23.0531 13.4665ZM19.5889 18.0219L18.3322 25.3806L22.5777 14.3776L17.3133 16.2698C17.2114 16.3399 17.0756 16.3049 16.9737 16.1997C16.9058 16.1297 16.8718 15.9895 16.9058 15.8493L19.453 8.70083H15.0038L13.7132 18.6176L19.1813 17.6014H19.2492C19.3511 17.6014 19.4191 17.6364 19.487 17.7065C19.5889 17.7766 19.6228 17.9168 19.5889 18.0219Z" fill="#7A40F2"/>
<path d="M23.0531 13.4665L23.0157 13.3212L23.0087 13.3231L23.0019 13.3255L23.0531 13.4665ZM23.4947 13.9921L23.6345 14.0464L23.6345 14.0463L23.4947 13.9921ZM17.7209 28.8498L17.5811 28.7954L17.5775 28.8047L17.5751 28.8144L17.7209 28.8498ZM17.3133 29.06L17.283 29.2069L17.298 29.21H17.3133V29.06ZM17.0756 28.6745L17.2229 28.7031L17.2234 28.7001L17.0756 28.6745ZM18.8417 18.4424L18.9895 18.4679L19.0262 18.2553L18.8141 18.295L18.8417 18.4424ZM13.4076 19.4586V19.6086H13.4215L13.4351 19.606L13.4076 19.4586ZM13.1019 19.3535L12.9759 19.4349L12.9839 19.4473L12.9942 19.4579L13.1019 19.3535ZM13 19.0381L12.8512 19.0192L12.85 19.0286V19.0381H13ZM14.3585 8.31537L14.211 8.28677L14.2097 8.29652L14.3585 8.31537ZM20.2002 8.14017L20.0742 8.22157V8.22157L20.2002 8.14017ZM20.2342 8.45554L20.3755 8.50604L20.3769 8.50166L20.2342 8.45554ZM17.7549 15.3938L17.6136 15.3433L17.5062 15.6438L17.8061 15.5347L17.7549 15.3938ZM18.3322 25.3806L18.1844 25.3554L18.4722 25.4346L18.3322 25.3806ZM19.5889 18.0219L19.4461 17.9758L19.4428 17.986L19.441 17.9966L19.5889 18.0219ZM22.5777 14.3776L22.7176 14.4316L22.8357 14.1254L22.5269 14.2364L22.5777 14.3776ZM17.3133 16.2698L17.2626 16.1287L17.2443 16.1352L17.2283 16.1462L17.3133 16.2698ZM16.9737 16.1997L17.0814 16.0953H17.0814L16.9737 16.1997ZM16.9058 15.8493L16.7645 15.799L16.7618 15.8064L16.76 15.814L16.9058 15.8493ZM19.453 8.70083L19.5943 8.75118L19.6657 8.55083H19.453V8.70083ZM15.0038 8.70083V8.55083H14.8721L14.8551 8.68147L15.0038 8.70083ZM13.7132 18.6176L13.5645 18.5982L13.5379 18.8028L13.7406 18.7651L13.7132 18.6176ZM19.1813 17.6014V17.4514H19.1675L19.1539 17.4539L19.1813 17.6014ZM19.487 17.7065L19.3793 17.8109L19.3897 17.8216L19.402 17.8301L19.487 17.7065ZM23.5344 13.4672C23.3941 13.3224 23.2024 13.2731 23.0157 13.3212L23.0906 13.6117C23.1755 13.5898 23.2556 13.6106 23.319 13.676L23.5344 13.4672ZM23.6345 14.0463C23.6765 13.9381 23.6905 13.831 23.672 13.7288C23.6533 13.6259 23.6034 13.5384 23.5344 13.4672L23.319 13.676C23.3519 13.71 23.37 13.7451 23.3768 13.7824C23.3837 13.8203 23.3808 13.8709 23.3548 13.9379L23.6345 14.0463ZM17.8607 28.9041L23.6345 14.0464L23.3548 13.9378L17.5811 28.7954L17.8607 28.9041ZM17.4152 29.21C17.5931 29.21 17.8108 29.1158 17.8667 28.8851L17.5751 28.8144C17.5631 28.864 17.5091 28.91 17.4152 28.91V29.21ZM17.3133 29.21H17.4152V28.91H17.3133V29.21ZM16.9283 28.646C16.8811 28.8896 17.0211 29.1529 17.283 29.2069L17.3437 28.9131C17.2659 28.8971 17.2022 28.8099 17.2229 28.7031L16.9283 28.646ZM18.6939 18.4169L16.9278 28.649L17.2234 28.7001L18.9895 18.4679L18.6939 18.4169ZM13.4351 19.606L18.8693 18.5898L18.8141 18.295L13.38 19.3112L13.4351 19.606ZM12.9942 19.4579C13.052 19.5175 13.1288 19.5538 13.1966 19.5753C13.2663 19.5974 13.3411 19.6086 13.4076 19.6086V19.3086C13.3722 19.3086 13.328 19.3023 13.2874 19.2894C13.2448 19.2758 13.2197 19.2595 13.2096 19.2491L12.9942 19.4579ZM12.85 19.0381C12.85 19.1772 12.8953 19.3102 12.9759 19.4349L13.2279 19.2721C13.1726 19.1865 13.15 19.1092 13.15 19.0381H12.85ZM14.2097 8.29652L12.8512 19.0192L13.1488 19.057L14.5073 8.33423L14.2097 8.29652ZM14.6982 7.85C14.4381 7.85 14.2551 8.06085 14.2113 8.28683L14.5058 8.34392C14.5299 8.21949 14.6186 8.15 14.6982 8.15V7.85ZM19.9285 7.85H14.6982V8.15H19.9285V7.85ZM20.3262 8.05876C20.2236 7.90003 20.0669 7.85 19.9285 7.85V8.15C19.9939 8.15 20.0409 8.17006 20.0742 8.22157L20.3262 8.05876ZM20.3769 8.50166C20.4212 8.36475 20.4243 8.21052 20.3262 8.05876L20.0742 8.22157C20.112 8.28006 20.1151 8.33609 20.0914 8.40943L20.3769 8.50166ZM17.8961 15.4443L20.3754 8.50602L20.0929 8.40507L17.6136 15.3433L17.8961 15.4443ZM23.0019 13.3255L17.7036 15.2528L17.8061 15.5347L23.1044 13.6075L23.0019 13.3255ZM18.4801 25.4059L19.7367 18.0471L19.441 17.9966L18.1844 25.3554L18.4801 25.4059ZM22.4377 14.3236L18.1923 25.3266L18.4722 25.4346L22.7176 14.4316L22.4377 14.3236ZM17.3641 16.411L22.6284 14.5187L22.5269 14.2364L17.2626 16.1287L17.3641 16.411ZM16.866 16.3041C16.9958 16.4381 17.2125 16.5213 17.3983 16.3934L17.2283 16.1462C17.2155 16.155 17.1996 16.1592 17.1759 16.154C17.1501 16.1483 17.1158 16.1308 17.0814 16.0953L16.866 16.3041ZM16.76 15.814C16.7174 15.9898 16.7531 16.1876 16.866 16.3041L17.0814 16.0953C17.0721 16.0858 17.057 16.0616 17.0484 16.0203C17.0401 15.9806 17.0399 15.933 17.0516 15.8846L16.76 15.814ZM19.3117 8.65048L16.7645 15.799L17.0471 15.8997L19.5943 8.75118L19.3117 8.65048ZM15.0038 8.85083H19.453V8.55083H15.0038V8.85083ZM13.862 18.637L15.1526 8.72019L14.8551 8.68147L13.5645 18.5982L13.862 18.637ZM19.1539 17.4539L13.6858 18.4701L13.7406 18.7651L19.2087 17.7489L19.1539 17.4539ZM19.2492 17.4514H19.1813V17.7514H19.2492V17.4514ZM19.5947 17.6021C19.5521 17.5582 19.5033 17.5188 19.4434 17.4913C19.3826 17.4635 19.3183 17.4514 19.2492 17.4514V17.7514C19.2821 17.7514 19.3027 17.7568 19.3183 17.764C19.3348 17.7716 19.354 17.7848 19.3793 17.8109L19.5947 17.6021ZM19.7316 18.068C19.783 17.909 19.7362 17.6958 19.572 17.5829L19.402 17.8301C19.4416 17.8574 19.4627 17.9245 19.4461 17.9758L19.7316 18.068Z" fill="#7A40F2"/>
</svg>
