<svg width="44" height="44" viewBox="0 0 44 44" fill="none" xmlns="http://www.w3.org/2000/svg">
<path fill-rule="evenodd" clip-rule="evenodd" d="M23.0272 12.1295C23.0272 12.467 22.7511 12.7432 22.4136 12.7432C22.0761 12.7432 21.8 12.467 21.8 12.0989V9.85909C21.8 9.52159 22.0761 9.24545 22.4136 9.24545C22.7511 9.24545 23.0272 9.52159 23.0272 9.85909V12.1295ZM18.2102 27.3784C18.3329 27.5625 18.517 27.6545 18.7318 27.6545H26.0954C26.3102 27.6545 26.4943 27.5625 26.617 27.3784C27.9363 25.4148 28.8261 22.6227 28.8261 20.475C28.8261 16.6091 25.942 13.4489 22.4136 13.4489C18.8852 13.4489 16.0011 16.6091 16.0011 20.475C16.0011 22.6227 16.8909 25.4148 18.2102 27.3784ZM22.4136 14.6761C25.267 14.6761 27.5988 17.2841 27.5988 20.475C27.5988 22.3159 26.8625 24.6477 25.7579 26.4273H19.0693C17.9647 24.6477 17.2284 22.3159 17.2284 20.475C17.2284 17.2841 19.5295 14.6761 22.4136 14.6761ZM26.4329 29.925V29.833C26.4329 28.9125 25.6659 28.1455 24.7454 28.1455H20.0511C19.1307 28.1455 18.3636 28.9125 18.3636 29.833V29.925C18.3636 30.8455 19.1307 31.6125 20.0511 31.6125H24.7454C25.6966 31.6125 26.4329 30.8455 26.4329 29.925ZM25.2057 29.925C25.2057 30.1705 24.9909 30.3852 24.7454 30.3852H20.0511C19.8057 30.3852 19.5909 30.1705 19.5909 29.925V29.833C19.5909 29.5875 19.8057 29.3727 20.0511 29.3727H24.7454C24.9909 29.3727 25.2057 29.5875 25.2057 29.833V29.925ZM21.3704 32.2568H23.4261C24.3466 32.2568 25.1136 33.0239 25.1136 33.9443V34.0364C25.1136 34.9568 24.3466 35.7239 23.4261 35.7239H21.3704C20.45 35.7239 19.6829 34.9568 19.6829 34.0364V33.9443C19.6829 33.0239 20.45 32.2568 21.3704 32.2568ZM23.4261 34.5273C23.6716 34.5273 23.8863 34.3125 23.8863 34.067V33.975C23.8863 33.7295 23.6716 33.5148 23.4261 33.5148H21.3704C21.125 33.5148 20.9102 33.7295 20.9102 33.975V34.067C20.9102 34.3125 21.125 34.5273 21.3704 34.5273H23.4261ZM28.3659 15.2284C28.5193 15.2284 28.6727 15.167 28.7954 15.0443L30.3909 13.4489C30.6363 13.2034 30.6363 12.8352 30.3909 12.5898C30.1454 12.3443 29.7772 12.3443 29.5318 12.5898L27.9363 14.1852C27.6909 14.4307 27.6909 14.7989 27.9363 15.0443C28.0284 15.167 28.2125 15.2284 28.3659 15.2284ZM30.7897 21.2114C30.4522 21.2114 30.1761 20.9352 30.1761 20.5977C30.1761 20.2602 30.4522 19.9841 30.7897 19.9841H33.0295C33.367 19.9841 33.6432 20.2602 33.6432 20.5977C33.6432 20.9352 33.367 21.2114 33.0295 21.2114H30.7897ZM29.8693 28.7591C30.0227 28.7591 30.1761 28.6977 30.2988 28.575C30.5443 28.3295 30.5443 27.9614 30.2988 27.7159L28.7034 26.1205C28.4579 25.875 28.0898 25.875 27.8443 26.1205C27.5988 26.3659 27.5988 26.7341 27.8443 26.9795L29.4397 28.575C29.5625 28.6977 29.7159 28.7591 29.8693 28.7591ZM16.7988 26.0591C17.0443 26.3045 17.0443 26.6727 16.7988 26.9182L15.2034 28.5136C15.0807 28.6364 14.9272 28.6977 14.7738 28.6977C14.6204 28.6977 14.467 28.6364 14.3443 28.5136C14.0988 28.2682 14.0988 27.9 14.3443 27.6545L15.9397 26.0591C16.1852 25.8136 16.5534 25.8136 16.7988 26.0591ZM11.675 21.1193H13.9147C14.2522 21.1193 14.5284 20.8432 14.5284 20.5057C14.5284 20.1682 14.2522 19.892 13.9147 19.892H11.675C11.3375 19.892 11.0613 20.1682 11.0613 20.5057C11.0613 20.8432 11.3375 21.1193 11.675 21.1193ZM16.4307 15.167C16.2772 15.167 16.1238 15.1057 16.0011 14.983L14.4057 13.3875C14.1602 13.142 14.1602 12.7739 14.4057 12.5284C14.6511 12.283 15.0193 12.283 15.2647 12.5284L16.8602 14.1239C17.1057 14.3693 17.1057 14.7375 16.8602 14.983C16.7375 15.1057 16.5841 15.167 16.4307 15.167Z" fill="#9897AD"/>
</svg>
