<svg width="743" height="227" viewBox="0 0 743 227" fill="none" xmlns="http://www.w3.org/2000/svg">
<rect width="743" height="227" rx="28" fill="#FFECC8"/>
<mask id="mask0_0_599" style="mask-type:luminance" maskUnits="userSpaceOnUse" x="0" y="0" width="743" height="227">
<rect width="743" height="227" rx="28" fill="white"/>
</mask>
<g mask="url(#mask0_0_599)">
<path opacity="0.286551" d="M438 187C491.21 194.955 468.889 169.446 502 168C535.545 166.554 521.407 122.332 580.706 147.72C616.033 157.484 595.846 94.9918 656.894 113.421C674.083 118.61 686.432 137.286 706 142C716.187 144.454 736.983 128.875 743 136C766.475 163.8 757 230.819 757 230.819L389 230C389 230 406.479 182.3 438 187Z" fill="#FACA65"/>
<path opacity="0.286551" d="M584 232C630.903 239.955 614.813 186.446 644 185C666.989 183.876 669.842 153.168 694 158C709 161 709 172 721 159C733 126 746 142 746 142L743 234C743 234 556.215 227.3 584 232Z" fill="#FACA65"/>
<path d="M715.226 198.504C715.226 198.465 715.226 198.504 715.226 198.504C715.186 198.426 715.146 198.387 715.106 198.348C712.558 195.076 713.354 190.284 713.593 189.233C713.593 189.155 713.633 189.116 713.633 189.038V188.999C713.713 188.531 713.753 188.064 713.753 187.596C713.753 183.428 710.289 180 705.989 180C701.729 180 698.225 183.389 698.225 187.596C698.225 188.064 698.265 188.531 698.384 188.999V189.038C698.384 189.116 698.424 189.155 698.424 189.233C698.663 190.323 699.419 195.115 696.911 198.348C696.871 198.387 696.871 198.426 696.831 198.465C696.831 198.465 696.831 198.465 696.831 198.504C695.677 200.218 695 202.283 695 204.503C695 210.464 699.937 215.294 706.029 215.294C712.12 215.294 717.057 210.464 717.057 204.503C717.097 202.283 716.42 200.218 715.226 198.504Z" fill="#FAB833"/>
<path d="M706.029 190.29V228.29" stroke="white" stroke-width="0.754941"/>
<path d="M699.844 198.359L706.02 207.183" stroke="white" stroke-width="0.754941"/>
<path d="M710.487 191.898L706.075 197.192" stroke="white" stroke-width="0.754941"/>
<path d="M682.226 185.504C682.226 185.465 682.226 185.504 682.226 185.504C682.186 185.426 682.146 185.387 682.106 185.348C679.558 182.076 680.354 177.284 680.593 176.233C680.593 176.155 680.633 176.116 680.633 176.038V175.999C680.713 175.531 680.753 175.064 680.753 174.596C680.753 170.428 677.289 167 672.989 167C668.729 167 665.225 170.389 665.225 174.596C665.225 175.064 665.265 175.531 665.384 175.999V176.038C665.384 176.116 665.424 176.155 665.424 176.233C665.663 177.323 666.419 182.115 663.911 185.348C663.871 185.387 663.871 185.426 663.831 185.465C663.831 185.465 663.831 185.465 663.831 185.504C662.677 187.218 662 189.283 662 191.503C662 197.464 666.937 202.294 673.029 202.294C679.12 202.294 684.057 197.464 684.057 191.503C684.097 189.283 683.42 187.218 682.226 185.504Z" fill="#FAB833"/>
<path d="M673.029 177.29L673.02 227.5" stroke="white" stroke-width="0.754941"/>
<path d="M666.844 185.359L673.02 194.183" stroke="white" stroke-width="0.754941"/>
<path d="M677.487 178.898L673.075 184.192" stroke="white" stroke-width="0.754941"/>
<path opacity="0.654971" fill-rule="evenodd" clip-rule="evenodd" d="M436.382 42.7897C430.42 44.2961 425.309 40.2687 425.309 40.2687C425.309 40.2687 419.344 33.0341 428.791 30.5731C431.303 29.9186 431.927 28.706 432.514 27.5661C433.024 26.5764 433.505 25.6415 435.169 25.1742C438.05 24.3652 439.452 25.5728 440.578 26.5431C441.791 27.5878 442.684 28.3572 444.76 26.038C449.86 20.34 456.288 30.5731 456.288 30.5731C456.288 30.5731 467.524 24.7298 470.475 33.6275C473.426 42.5253 463.212 44.2077 458.006 42.7897C456.79 42.4586 455.548 43.291 454.041 44.3009C452.221 45.5209 450.014 47 447 47C444.009 47 441.987 45.5434 440.301 44.3289C438.883 43.3068 437.702 42.4561 436.382 42.7897ZM663.63 58.593C654.439 60.8854 646.559 54.7568 646.559 54.7568C646.559 54.7568 637.363 43.7476 651.927 40.0026C655.801 39.0066 656.763 37.1614 657.668 35.4267C658.453 33.9206 659.195 32.498 661.761 31.7868C666.202 30.5557 668.363 32.3935 670.1 33.87C671.969 35.4597 673.346 36.6306 676.547 33.1013C684.409 24.4304 694.319 40.0026 694.319 40.0026C694.319 40.0026 711.641 31.1106 716.19 44.6506C720.74 58.1906 704.994 60.7509 696.967 58.593C695.093 58.0892 693.178 59.3559 690.855 60.8927C688.049 62.7492 684.646 64.9999 680 64.9999C675.389 64.9999 672.272 62.7834 669.673 60.9353C667.486 59.3799 665.666 58.0854 663.63 58.593Z" fill="url(#paint0_linear_0_599)"/>
<g opacity="0.288272" filter="url(#filter0_f_0_599)">
<ellipse cx="564.505" cy="216.98" rx="39.3165" ry="3.88311" fill="#FFA446"/>
</g>
<path d="M550.11 209.423L548.175 193.665L556.653 195.047L557.759 211.635L549.649 209.884L550.11 209.423Z" fill="#ECACA1"/>
<path d="M559.049 207.58C559.049 207.58 552.23 210.069 549.188 205.645L534.259 213.386L560.892 214.308L559.049 207.58Z" fill="#FF234A"/>
<path d="M534.167 215.782L560.8 216.796L560.892 214.4L534.259 213.386L534.167 215.782Z" fill="white"/>
<path d="M542.83 97.6372C542.83 97.6372 539.143 111.922 541.355 152.839L544.673 199.747H561.814L556.93 98.3745L542.83 97.6372Z" fill="#6451C5"/>
<path d="M591.304 200.945L582.181 187.859L589.461 183.343L598.492 197.535L591.304 201.59V200.945Z" fill="#ECACA1"/>
<path d="M596.834 193.665C596.834 193.665 593.332 200.116 588.079 198.733L581.996 214.4L602.639 197.535L596.834 193.665Z" fill="#FF234A"/>
<path d="M583.563 216.243L604.206 199.286L602.732 197.443L582.088 214.4L583.563 216.243Z" fill="white"/>
<path d="M566.698 102.061C566.698 102.061 572.596 107.682 572.412 123.81C572.228 139.937 577.296 156.71 577.296 156.71L558.773 158.645C558.773 158.645 548.267 136.62 544.765 103.443L566.698 102.061Z" fill="#6451C5"/>
<path d="M573.057 148.692C573.057 148.692 594.622 170.718 600.981 186.384L584.024 195.047L558.957 158.737L573.057 148.692Z" fill="#6451C5"/>
<path d="M560.247 160.765C560.247 160.765 556.192 157.539 554.073 148.692C552.045 139.845 548.912 124.731 548.912 124.731L545.226 120.123" stroke="#B2ACC7" stroke-width="0.55"/>
<circle cx="565.132" cy="26.2157" r="8.57059" fill="#081669"/>
<circle cx="557.114" cy="33.4961" r="7.09608" fill="#FF234A"/>
<path d="M546.7 51.8353L550.294 62.7098L560.247 58.6549L554.718 42.3431L546.7 51.8353Z" fill="#ECACA1"/>
<path d="M548.82 58.1941C548.728 58.0098 550.663 51.3745 550.663 51.3745L546.516 53.2176L548.82 58.1941Z" fill="#ED9083"/>
<path d="M543.659 29.2569C543.659 29.2569 538.498 30.0863 538.222 36.6294C538.222 36.6294 538.037 41.3294 537.945 48.149C537.853 51.7431 541.079 54.6 544.581 53.8627C546.7 53.4019 549.096 52.4804 551.216 50.8216L554.165 48.0569C561.169 40.2235 554.718 27.7823 544.396 29.1647C544.212 29.1647 543.935 29.1647 543.659 29.2569Z" fill="#ECACA1"/>
<path d="M539.143 42.6196L536.655 45.2C536.194 45.5686 536.286 46.4902 536.747 46.4902L539.051 46.7667V42.6196H539.143Z" fill="#ECACA1"/>
<path d="M540.434 38.3804C540.434 38.3804 538.683 38.1039 538.59 38.8412C538.59 38.8412 538.498 39.3941 539.973 39.5784C541.447 39.7627 541.908 39.6706 542.092 39.2098C542.277 38.749 541.263 38.4725 540.434 38.3804Z" fill="#03041F"/>
<circle cx="540.003" cy="42.7784" r="0.737287" transform="rotate(-10.7481 540.003 42.7784)" fill="#03041F"/>
<path d="M538.75 48.4169C539.119 48.7855 540.501 48.6012 540.778 47.8639" stroke="#1D0A05" stroke-width="0.585933" stroke-linecap="round" stroke-linejoin="round"/>
<path d="M550.571 40.8686C550.571 40.8686 553.612 25.1098 539.973 31.4686C539.973 31.4686 545.226 22.8059 557.206 28.0588C559.694 29.1647 562.275 32.2059 562.828 34.8784C563.565 39.2098 561.169 42.9882 557.298 49.8078L552.69 44.4627C552.506 43.5412 550.571 40.8686 550.571 40.8686Z" fill="#081669"/>
<path d="M554.994 36.2608L552.23 42.8039C534.812 37.3667 542.737 29.1647 542.737 29.1647C542.737 29.1647 556.837 24.9255 554.994 36.2608Z" fill="#081669"/>
<path d="M546.147 39.3941L549.281 43.2647L551.677 38.749L546.147 39.3941Z" fill="#03041F"/>
<path d="M545.226 29.9941C545.226 29.9941 539.235 31.0078 538.406 35.1549C538.406 35.1549 537.392 30.6392 543.014 28.6118C548.543 26.4922 545.226 29.9941 545.226 29.9941Z" fill="#03041F"/>
<circle cx="552.23" cy="42.1588" r="3.4098" fill="#ECACA1"/>
<path d="M551.124 43.449C551.124 43.449 550.939 40.9608 553.335 41.1451" stroke="#1D0A05" stroke-width="0.585933" stroke-linecap="round" stroke-linejoin="round"/>
<path d="M569.186 62.1568C569.186 62.1568 582.918 70.9117 585.037 97.3608C585.314 100.494 583.102 103.167 579.969 103.627C577.02 104.088 573.241 102.245 572.412 99.3882L563.196 72.2019L569.186 62.1568Z" fill="#F8D44E"/>
<path d="M541.447 65.0137L531.402 84.551C530.02 87.6843 531.31 91.2784 534.259 92.9372C537.392 94.596 541.355 93.398 543.014 90.2647L554.257 71.3725C555.916 68.3313 555.179 64.6451 552.506 62.4333C549.004 59.3921 543.383 60.6823 541.447 65.0137Z" fill="#F8D44E"/>
<circle cx="505.967" cy="76.349" r="6.17451" fill="#ECACA1"/>
<path d="M504.769 70.3588C504.769 70.3588 505.045 67.8706 507.994 69.1608C510.483 70.2666 513.984 74.1372 511.128 79.5745L504.769 70.3588Z" fill="#ECACA1"/>
<path d="M524.306 77.6392L510.667 74.1372L507.626 82.247L522.279 86.3941L524.306 77.6392Z" fill="#EDAC9F"/>
<path d="M538.867 82.1549L514.261 73.7686L511.865 85.2882L534.628 93.3058C538.13 94.7804 542.184 92.6608 542.83 88.8823C543.475 85.9333 541.724 83.0764 538.867 82.1549Z" fill="#F8D44E"/>
<path d="M507.994 77.3627L503.939 80.6804C503.755 80.8647 503.386 80.7725 503.294 80.4039L496.659 66.3961C496.475 66.0274 496.567 65.6588 496.751 65.4745L500.806 62.1568C500.99 61.9725 501.359 62.0647 501.451 62.4333L508.086 76.4412C508.271 76.7176 508.179 77.0863 507.994 77.3627Z" fill="#0F35A9"/>
<path d="M508.732 76.7176L504.4 80.3117C504.124 80.496 503.847 80.4039 503.663 80.0353L497.12 65.9353C496.935 65.5666 497.028 65.198 497.304 65.0137L501.635 61.4196C501.912 61.2353 502.188 61.3274 502.373 61.6961L508.916 75.7961C509.008 76.0725 509.008 76.5333 508.732 76.7176Z" fill="#6C51F7"/>
<path d="M509.653 72.3862L509.745 70.3588L506.428 67.7784C505.967 67.4098 505.23 67.5019 504.861 67.8706C504.584 68.147 504.4 68.6078 504.953 69.2529L509.377 72.6627" fill="#ECACA1"/>
<path d="M545.041 63.447C543.014 66.3039 539.696 72.2019 539.604 80.1274C539.604 80.3117 539.604 80.5882 539.604 80.7725C539.788 82.5235 539.235 95.7019 538.959 102.522C538.867 104.273 539.788 107.682 541.263 108.512C544.396 110.263 557.943 111.829 569.186 108.696C570.753 108.235 571.675 106.576 571.214 104.918C570.016 100.771 565.777 90.9098 568.726 83.0764C575.822 64.3686 569.002 60.9588 564.026 60.0372C563.381 59.9451 560.984 61.4196 560.339 61.4196L548.543 61.6039C547.161 61.5117 545.871 62.249 545.041 63.447Z" fill="#FDD656"/>
<path d="M543.106 68.7C543.106 68.7 539.143 72.3862 539.696 82.8C539.696 82.8 539.42 87.7764 539.42 93.3058" stroke="#F3A12D" stroke-width="0.55"/>
<path d="M557.667 56.1666C557.667 56.1666 562.183 70.8196 577.296 72.5706C591.488 74.2294 590.014 70.0823 601.81 71.3725C601.81 71.3725 599.967 75.3353 593.147 81.9706C589.369 85.5647 589.553 88.2372 589.553 88.2372C589.553 88.2372 567.343 89.0666 558.588 77.6392C552.322 69.5294 550.847 59.1157 550.847 59.1157L557.667 56.1666Z" fill="#FF5A4C"/>
<path d="M603.93 75.0588C604.114 75.0588 604.39 74.8745 604.39 74.6902C604.39 74.4137 604.298 74.2294 604.022 74.1372L597.018 73.0313C596.741 73.0313 596.557 73.1235 596.465 73.4C596.465 73.6764 596.557 73.8608 596.833 73.9529L603.93 75.0588C603.93 75.0588 603.837 75.0588 603.93 75.0588Z" fill="#FF5A4C"/>
<path d="M601.349 78.3765C601.533 78.3765 601.81 78.1921 601.81 78.0078C601.81 77.7314 601.718 77.547 601.441 77.4549L594.437 76.349C594.161 76.2568 593.977 76.4412 593.884 76.7176C593.884 76.9941 593.977 77.1784 594.253 77.2706L601.349 78.3765Z" fill="#FF5A4C"/>
<path d="M598.032 81.9706C598.216 81.9706 598.492 81.7863 598.492 81.6019C598.492 81.3255 598.4 81.1412 598.124 81.049L591.12 79.9431C590.843 79.9431 590.659 80.0353 590.567 80.3117C590.567 80.5882 590.659 80.7725 590.935 80.8647L598.032 81.9706C597.939 81.9706 597.939 81.9706 598.032 81.9706Z" fill="#FF5A4C"/>
<path d="M594.898 86.2098C595.082 86.2098 595.359 86.0255 595.359 85.8412C595.359 85.5647 595.267 85.3804 594.99 85.2882L587.986 84.1823C587.71 84.0902 587.526 84.2745 587.433 84.551C587.433 84.8274 587.526 85.0117 587.802 85.1039L594.898 86.2098Z" fill="#FF5A4C"/>
<path d="M545.133 54.4157C547.99 54.9686 554.902 55.8902 559.879 52.0196C560.431 51.5588 561.169 51.7431 561.445 52.3882L564.21 59.3C564.394 59.6686 564.302 60.0372 564.026 60.4059C562.275 62.4333 555.086 69.7137 544.581 61.6039C544.304 61.4196 544.212 61.1431 544.212 60.8666L543.935 55.5215C543.935 54.8764 544.488 54.3235 545.133 54.4157Z" fill="#FF6C58"/>
<ellipse cx="550.294" cy="92.2608" rx="5.52941" ry="5.31378" fill="#ECACA1"/>
<path d="M545.041 91.0019C545.041 91.0019 543.198 89.3431 545.502 87.6843C547.806 86.0255 551.769 85.1039 555.086 89.6196L545.041 91.0019Z" fill="#ECACA1"/>
<path d="M553.335 89.5274L562.182 91.3706L560.247 98.4666L552.322 96.2549L553.335 89.5274Z" fill="#EDAC9F"/>
<path d="M572.688 92.1078C572.135 91.9235 557.575 89.6196 557.575 89.6196L556.1 99.849L578.771 103.72L572.688 92.1078Z" fill="#F8D44E"/>
<path d="M575.73 92.4764L557.575 89.6196" stroke="#F3A12D" stroke-width="0.55"/>
<path d="M570.292 102.061L556.192 99.849L556.469 97.3608" stroke="#F3A12D" stroke-width="0.55"/>
<g opacity="0.319987" filter="url(#filter1_f_0_599)">
<ellipse cx="495.094" cy="210.485" rx="24.2695" ry="6.79545" fill="#FFA446"/>
</g>
<path d="M487.302 167.239C487.302 167.239 527.757 148.419 547.516 96.6038" stroke="#372482" stroke-width="0.783978"/>
<ellipse cx="550.294" cy="92.2608" rx="5.52941" ry="5.31378" fill="#ECACA1"/>
<path d="M513.106 195.255C514.488 195.9 516.147 196.545 517.714 197.006C519.28 197.466 520.939 197.743 522.506 197.558C524.073 197.466 525.455 196.821 526.192 195.531C527.022 194.241 527.206 192.49 527.114 190.831C527.114 190.555 527.298 190.37 527.574 190.37C527.851 190.37 528.035 190.555 528.035 190.739C528.22 191.66 528.312 192.582 528.312 193.504C528.312 194.425 528.127 195.439 527.759 196.36C527.39 197.282 526.653 198.204 525.824 198.757C524.994 199.402 523.98 199.77 522.967 199.955C521.031 200.415 519.096 200.323 517.253 200.047C515.41 199.77 513.567 199.402 511.724 198.757C510.71 198.388 510.157 197.374 510.525 196.36C510.894 195.347 511.908 194.794 512.922 195.162C512.829 195.162 512.922 195.255 513.106 195.255Z" fill="#AD4600"/>
<path d="M502.508 195.992C502.508 195.992 499.375 193.227 496.149 196.637C492.924 200.047 502.969 208.249 502.969 208.249C502.969 208.249 497.163 207.511 496.057 211.29H509.512C510.065 211.29 510.618 210.829 510.618 210.184C510.618 209.17 510.249 208.249 509.696 207.511L506.747 203.825L502.508 195.992Z" fill="#AB4600"/>
<path d="M483.708 188.343L479.1 208.433C479.1 208.433 475.322 207.511 474.584 211.29H480.943L491.265 191.66L483.708 188.343Z" fill="#A94612"/>
<path d="M483.984 161.802L514.396 195.715C515.871 197.374 516.7 199.586 516.608 201.89C516.516 204.655 515.686 207.88 512.553 208.249C507.024 208.986 501.125 207.511 490.435 197.098C490.435 197.098 482.786 194.886 481.496 180.141L474.953 170.833L483.984 161.802Z" fill="#FF8149"/>
<path d="M507.3 195.992C507.3 195.992 504.167 193.227 500.941 196.637C497.716 200.047 507.761 208.249 507.761 208.249C507.761 208.249 501.955 207.511 500.849 211.29H514.304C514.857 211.29 515.41 210.829 515.41 210.184C515.41 209.17 515.041 208.249 514.488 207.511L511.539 203.825L507.3 195.992Z" fill="#FF8149"/>
<path d="M483.984 161.802C483.984 161.802 482.233 158.945 479.284 158.945C477.441 158.945 475.506 159.406 473.202 161.433C470.99 163.46 466.567 162.17 466.567 162.17C466.567 162.17 464.816 168.529 474.953 170.741L483.984 161.802Z" fill="#FF8149"/>
<path d="M481.035 159.406C481.035 159.406 475.874 164.935 478.731 167.423C481.588 169.911 482.694 164.935 485.459 163.553C485.459 163.553 486.933 161.802 484.722 160.051C482.325 158.208 481.035 159.406 481.035 159.406Z" fill="#5430B8"/>
<circle cx="467.382" cy="163.382" r="1.38235" fill="#5430B8"/>
<path d="M477.902 175.533L476.335 172.953C476.796 172.953 484.076 172.492 487.763 166.041L489.514 168.16C485.367 175.533 478.547 175.533 477.902 175.533Z" fill="#FED748"/>
<circle cx="475.553" cy="161.553" r="0.552941" fill="#28233C"/>
<path d="M486.565 192.951L488.776 208.433C488.776 208.433 485.275 208.064 484.814 211.29H492.094L494.49 191.66L486.565 192.951Z" fill="#FF8149"/>
<path d="M486.012 180.602C483.339 185.947 486.565 190.555 486.565 190.555L487.21 198.941" stroke="#AB4600" stroke-width="0.643162" stroke-linecap="round" stroke-linejoin="round"/>
<path d="M502.508 195.255C502.508 195.255 499.006 198.204 502.231 203.457C504.259 206.682 507.761 208.341 507.761 208.341" stroke="#AB4600" stroke-width="0.643162" stroke-linecap="round" stroke-linejoin="round"/>
<path d="M493.476 199.862L494.398 189.817" stroke="#AB4600" stroke-width="0.643162" stroke-linecap="round" stroke-linejoin="round"/>
</g>
<defs>
<filter id="filter0_f_0_599" x="522.549" y="210.458" width="83.9107" height="13.0439" filterUnits="userSpaceOnUse" color-interpolation-filters="sRGB">
<feFlood flood-opacity="0" result="BackgroundImageFix"/>
<feBlend mode="normal" in="SourceGraphic" in2="BackgroundImageFix" result="shape"/>
<feGaussianBlur stdDeviation="1.31942" result="effect1_foregroundBlur_0_599"/>
</filter>
<filter id="filter1_f_0_599" x="468.186" y="201.05" width="53.8166" height="18.8686" filterUnits="userSpaceOnUse" color-interpolation-filters="sRGB">
<feFlood flood-opacity="0" result="BackgroundImageFix"/>
<feBlend mode="normal" in="SourceGraphic" in2="BackgroundImageFix" result="shape"/>
<feGaussianBlur stdDeviation="1.31942" result="effect1_foregroundBlur_0_599"/>
</filter>
<linearGradient id="paint0_linear_0_599" x1="717" y1="24" x2="423" y2="24" gradientUnits="userSpaceOnUse">
<stop stop-color="#FFC36E"/>
<stop offset="1" stop-color="#FED57F"/>
</linearGradient>
</defs>
</svg>
