<svg width="13" height="25" viewBox="0 0 13 25" fill="none" xmlns="http://www.w3.org/2000/svg">
<path d="M11.3018 15.3901C11.1281 15.0707 10.7224 14.9495 10.3957 15.1191C10.0689 15.2889 9.94479 15.6854 10.1185 16.0047C10.4726 16.6559 10.6598 17.3931 10.6598 18.1364C10.6598 19.3732 10.1611 20.5303 9.25556 21.3945C8.35041 22.2585 7.15351 22.7173 5.88692 22.6889C3.37655 22.631 1.33688 20.5859 1.34023 18.1301C1.34258 16.3975 2.33065 14.8388 3.91869 14.0622C4.14563 13.9512 4.28891 13.7245 4.28891 13.4765V3.64392C4.28891 2.90824 4.90138 2.3097 5.65419 2.3097H6.34572C7.09853 2.3097 7.711 2.90824 7.711 3.64392V13.0684C7.711 13.43 8.01108 13.7232 8.38112 13.7232C8.75116 13.7232 9.05123 13.4301 9.05123 13.0684V12.284H10.664C11.034 12.284 11.3341 11.9909 11.3341 11.6291C11.3341 11.2674 11.034 10.9743 10.664 10.9743H9.05123V9.95486H9.68512C10.0552 9.95486 10.3552 9.6617 10.3552 9.29999C10.3552 8.93832 10.0552 8.64512 9.68512 8.64512H9.05123V7.62571H10.664C11.034 7.62571 11.3341 7.33255 11.3341 6.97084C11.3341 6.60913 11.034 6.31596 10.664 6.31596H9.05123V5.2966H9.68512C10.0552 5.2966 10.3552 5.00344 10.3552 4.64173C10.3552 4.28002 10.0552 3.98686 9.68512 3.98686H9.05123V3.64392C9.05123 2.18607 7.8376 1 6.34577 1H5.65424C4.16245 1 2.94877 2.18607 2.94877 3.64392V13.0878C1.12235 14.1396 0.00290139 16.0354 5.43719e-06 18.1285C-0.00436147 21.2904 2.62231 23.9237 5.85521 23.9983C5.90421 23.9995 5.95284 24 6.0017 24C7.57816 24 9.06144 23.4106 10.192 22.3316C11.3579 21.2188 12 19.7289 12 18.1364C12 17.1796 11.7586 16.2299 11.3018 15.3901Z" fill="#242424" stroke="#242424" stroke-width="0.1"/>
</svg>
