<svg width="50" height="51" viewBox="0 0 50 51" fill="none" xmlns="http://www.w3.org/2000/svg">
<path fill-rule="evenodd" clip-rule="evenodd" d="M33.544 23.312H35.752C36.424 23.312 37 23.888 37 24.56V27.44C37 28.112 36.424 28.688 35.752 28.688H33.544C33.256 28.688 32.872 28.976 32.776 29.264C32.68 29.648 32.68 29.936 32.968 30.224L34.6 31.856C34.888 32.048 34.984 32.432 34.984 32.72C34.984 33.008 34.792 33.392 34.6 33.584L32.584 35.6C32.104 36.08 31.336 36.08 30.856 35.6L29.224 33.968C28.936 33.68 28.552 33.68 28.264 33.776C27.88 33.872 27.688 34.16 27.688 34.544V36.752C27.688 37.424 27.112 38 26.44 38H23.56C22.888 38 22.312 37.424 22.312 36.752V34.544C22.312 34.256 22.024 33.872 21.736 33.776C21.352 33.68 21.064 33.68 20.776 33.968L19.144 35.6C18.664 36.08 17.896 36.08 17.416 35.6L15.4 33.584C15.112 33.392 15.016 33.008 15.016 32.72C15.016 32.432 15.208 32.048 15.4 31.856L17.032 30.224C17.32 29.936 17.32 29.552 17.224 29.264C17.128 28.88 16.84 28.688 16.456 28.688H14.248C13.576 28.688 13 28.112 13 27.44V24.56C13 23.888 13.576 23.312 14.248 23.312H16.456C16.744 23.312 17.128 23.024 17.224 22.736C17.32 22.352 17.32 22.064 17.032 21.776L15.4 20.144C15.112 19.952 15.016 19.568 15.016 19.28C15.016 18.992 15.208 18.608 15.4 18.416L17.416 16.4C17.896 15.92 18.664 15.92 19.144 16.4L20.776 18.032C21.064 18.32 21.448 18.32 21.736 18.224C22.12 18.128 22.312 17.84 22.312 17.456V15.248C22.312 14.576 22.888 14 23.56 14H26.44C27.112 14 27.688 14.576 27.688 15.248V17.456C27.688 17.744 27.976 18.128 28.264 18.224C28.648 18.32 28.936 18.32 29.224 18.032L30.856 16.4C31.336 15.92 32.104 15.92 32.584 16.4L34.6 18.416C34.888 18.608 34.984 18.992 34.984 19.28C34.984 19.568 34.792 19.952 34.6 20.144L32.968 21.776C32.68 22.064 32.68 22.448 32.776 22.736C32.872 23.12 33.16 23.312 33.544 23.312ZM35.752 27.824C35.944 27.824 36.136 27.632 36.136 27.44V24.56C36.136 24.368 35.944 24.176 35.752 24.176H33.544C32.776 24.176 32.2 23.792 31.912 23.12C31.624 22.448 31.816 21.68 32.296 21.2L33.928 19.568C34.024 19.472 34.024 19.184 33.928 19.088L31.912 17.072C31.816 16.976 31.528 16.976 31.432 17.072L29.8 18.704C29.32 19.184 28.552 19.376 27.88 19.088C27.208 18.8 26.824 18.224 26.824 17.456V15.248C26.824 15.056 26.632 14.864 26.44 14.864H23.56C23.368 14.864 23.176 15.056 23.176 15.248V17.456C23.176 18.224 22.792 18.8 22.12 19.088C21.448 19.376 20.68 19.184 20.2 18.704L18.568 17.072C18.472 16.976 18.184 16.976 18.088 17.072L16.072 19.088C15.976 19.184 15.976 19.472 16.072 19.568L17.704 21.2C18.184 21.68 18.376 22.448 18.088 23.12C17.8 23.792 17.224 24.176 16.456 24.176H14.248C14.056 24.176 13.864 24.368 13.864 24.56V27.44C13.864 27.632 14.056 27.824 14.248 27.824H16.456C17.224 27.824 17.8 28.208 18.088 28.88C18.376 29.552 18.184 30.32 17.704 30.8L16.072 32.432C15.976 32.528 15.976 32.816 16.072 32.912L18.088 34.928C18.184 35.024 18.472 35.024 18.568 34.928L20.2 33.296C20.584 33.008 20.968 32.816 21.448 32.816C21.64 32.816 21.928 32.816 22.12 32.912C22.792 33.2 23.176 33.776 23.176 34.544V36.752C23.176 36.944 23.368 37.136 23.56 37.136H26.44C26.632 37.136 26.824 36.944 26.824 36.752V34.544C26.824 33.776 27.208 33.2 27.88 32.912C28.552 32.624 29.32 32.816 29.8 33.296L31.432 34.928C31.528 35.024 31.816 35.024 31.912 34.928L33.928 32.912C34.024 32.816 34.024 32.528 33.928 32.432L32.296 30.8C31.816 30.32 31.624 29.552 31.912 28.88C32.2 28.208 32.776 27.824 33.544 27.824H35.752Z" fill="#242424"/>
<path d="M32.776 29.264L32.5028 29.1729L32.4993 29.1834L32.4966 29.1941L32.776 29.264ZM34.6 31.856L34.3964 32.0596L34.4165 32.0798L34.4402 32.0956L34.6 31.856ZM28.264 33.776L28.3339 34.0554L28.3446 34.0527L28.3551 34.0492L28.264 33.776ZM21.736 33.776L21.8271 33.5028L21.8166 33.4993L21.8059 33.4966L21.736 33.776ZM19.144 35.6L19.3476 35.8036L19.144 35.6ZM17.416 35.6L17.2124 35.8036L17.416 35.6ZM15.4 33.584L15.6036 33.3804L15.5835 33.3602L15.5598 33.3444L15.4 33.584ZM15.4 31.856L15.6036 32.0596H15.6036L15.4 31.856ZM17.224 29.264L16.9446 29.3338L16.9473 29.3446L16.9508 29.3551L17.224 29.264ZM17.224 22.736L17.4972 22.8271L17.5007 22.8166L17.5034 22.8059L17.224 22.736ZM15.4 20.144L15.6036 19.9404L15.5835 19.9202L15.5598 19.9044L15.4 20.144ZM21.736 18.224L21.6662 17.9446L21.6554 17.9473L21.6449 17.9508L21.736 18.224ZM28.264 18.224L28.1729 18.4972L28.1834 18.5007L28.1941 18.5034L28.264 18.224ZM30.856 16.4L31.0596 16.6036L30.856 16.4ZM32.584 16.4L32.3804 16.6036V16.6036L32.584 16.4ZM34.6 18.416L34.3964 18.6196L34.4165 18.6398L34.4402 18.6556L34.6 18.416ZM34.6 20.144L34.8036 20.3476L34.6 20.144ZM32.776 22.736L33.0554 22.6661L33.0527 22.6554L33.0492 22.6449L32.776 22.736ZM32.296 21.2L32.0924 20.9964L32.296 21.2ZM33.928 19.568L34.1316 19.7716V19.7716L33.928 19.568ZM33.928 19.088L34.1316 18.8844V18.8844L33.928 19.088ZM31.912 17.072L32.1156 16.8684L32.1156 16.8684L31.912 17.072ZM31.432 17.072L31.6356 17.2756L31.6356 17.2756L31.432 17.072ZM29.8 18.704L29.5964 18.5004H29.5964L29.8 18.704ZM27.88 19.088L27.9934 18.8233L27.88 19.088ZM22.12 19.088L22.0066 18.8233L22.12 19.088ZM18.568 17.072L18.3644 17.2756L18.3644 17.2756L18.568 17.072ZM18.088 17.072L17.8844 16.8684V16.8684L18.088 17.072ZM16.072 19.088L15.8684 18.8844H15.8684L16.072 19.088ZM16.072 19.568L16.2756 19.3644L16.2756 19.3644L16.072 19.568ZM18.088 23.12L17.8233 23.0066L18.088 23.12ZM18.088 28.88L17.8233 28.9934L18.088 28.88ZM17.704 30.8L17.5004 30.5964V30.5964L17.704 30.8ZM16.072 32.432L16.2756 32.6356L16.2756 32.6356L16.072 32.432ZM16.072 32.912L15.8684 33.1156L15.8684 33.1156L16.072 32.912ZM18.088 34.928L17.8844 35.1316H17.8844L18.088 34.928ZM18.568 34.928L18.7716 35.1316H18.7716L18.568 34.928ZM20.2 33.296L20.0272 33.0656L20.0108 33.0779L19.9964 33.0924L20.2 33.296ZM22.12 32.912L21.9912 33.1696L21.9988 33.1734L22.0066 33.1767L22.12 32.912ZM29.8 33.296L29.5964 33.4996H29.5964L29.8 33.296ZM31.432 34.928L31.6356 34.7244H31.6356L31.432 34.928ZM31.912 34.928L32.1156 35.1316L32.1156 35.1316L31.912 34.928ZM33.928 32.912L34.1316 33.1156L34.1316 33.1156L33.928 32.912ZM33.928 32.432L33.7244 32.6356V32.6356L33.928 32.432ZM32.296 30.8L32.4996 30.5964V30.5964L32.296 30.8ZM35.752 23.024H33.544V23.6H35.752V23.024ZM37.288 24.56C37.288 23.7289 36.5831 23.024 35.752 23.024V23.6C36.2649 23.6 36.712 24.0471 36.712 24.56H37.288ZM37.288 27.44V24.56H36.712V27.44H37.288ZM35.752 28.976C36.5831 28.976 37.288 28.2711 37.288 27.44H36.712C36.712 27.9529 36.2649 28.4 35.752 28.4V28.976ZM33.544 28.976H35.752V28.4H33.544V28.976ZM33.0492 29.3551C33.0728 29.2843 33.1462 29.1843 33.2608 29.0984C33.3769 29.0113 33.4851 28.976 33.544 28.976V28.4C33.3149 28.4 33.0871 28.5087 32.9152 28.6376C32.7418 28.7677 32.5752 28.9557 32.5028 29.1729L33.0492 29.3551ZM33.1716 30.0204C33.0654 29.9141 33.0262 29.8244 33.0126 29.7362C32.9975 29.6375 33.0103 29.5142 33.0554 29.3339L32.4966 29.1941C32.4457 29.3978 32.4105 29.6105 32.4433 29.8238C32.4778 30.0476 32.5826 30.2459 32.7644 30.4276L33.1716 30.0204ZM34.8036 31.6524L33.1716 30.0204L32.7644 30.4276L34.3964 32.0596L34.8036 31.6524ZM35.272 32.72C35.272 32.3959 35.1676 31.8882 34.7598 31.6164L34.4402 32.0956C34.6084 32.2078 34.696 32.4681 34.696 32.72H35.272ZM34.8036 33.7876C34.9291 33.6622 35.0429 33.4877 35.1255 33.3087C35.2074 33.1313 35.272 32.9206 35.272 32.72H34.696C34.696 32.8074 34.6646 32.9327 34.6025 33.0673C34.5411 33.2003 34.4629 33.3138 34.3964 33.3804L34.8036 33.7876ZM32.7876 35.8036L34.8036 33.7876L34.3964 33.3804L32.3804 35.3964L32.7876 35.8036ZM30.6524 35.8036C31.2448 36.3961 32.1952 36.3961 32.7876 35.8036L32.3804 35.3964C32.0128 35.7639 31.4272 35.7639 31.0596 35.3964L30.6524 35.8036ZM29.0204 34.1716L30.6524 35.8036L31.0596 35.3964L29.4276 33.7644L29.0204 34.1716ZM28.3551 34.0492C28.5808 33.974 28.8361 33.9874 29.0204 34.1716L29.4276 33.7644C29.0359 33.3726 28.5232 33.386 28.1729 33.5028L28.3551 34.0492ZM27.976 34.544C27.976 34.3996 28.0118 34.2944 28.0649 34.2214C28.1165 34.1505 28.1993 34.089 28.3339 34.0554L28.1941 33.4966C27.9447 33.559 27.7395 33.6895 27.5991 33.8826C27.4602 34.0736 27.4 34.3044 27.4 34.544H27.976ZM27.976 36.752V34.544H27.4V36.752H27.976ZM26.44 38.288C27.2711 38.288 27.976 37.5831 27.976 36.752H27.4C27.4 37.2649 26.9529 37.712 26.44 37.712V38.288ZM23.56 38.288H26.44V37.712H23.56V38.288ZM22.024 36.752C22.024 37.5831 22.7289 38.288 23.56 38.288V37.712C23.0471 37.712 22.6 37.2649 22.6 36.752H22.024ZM22.024 34.544V36.752H22.6V34.544H22.024ZM21.6449 34.0492C21.7157 34.0728 21.8157 34.1462 21.9016 34.2608C21.9887 34.3769 22.024 34.4851 22.024 34.544H22.6C22.6 34.3149 22.4913 34.0871 22.3624 33.9152C22.2323 33.7418 22.0443 33.5752 21.8271 33.5028L21.6449 34.0492ZM20.9796 34.1716C21.0859 34.0654 21.1756 34.0262 21.2638 34.0126C21.3625 33.9975 21.4858 34.0103 21.6661 34.0554L21.8059 33.4966C21.6022 33.4457 21.3895 33.4105 21.1762 33.4433C20.9524 33.4778 20.7541 33.5826 20.5724 33.7644L20.9796 34.1716ZM19.3476 35.8036L20.9796 34.1716L20.5724 33.7644L18.9404 35.3964L19.3476 35.8036ZM17.2124 35.8036C17.8048 36.3961 18.7552 36.3961 19.3476 35.8036L18.9404 35.3964C18.5728 35.7639 17.9872 35.7639 17.6196 35.3964L17.2124 35.8036ZM15.1964 33.7876L17.2124 35.8036L17.6196 35.3964L15.6036 33.3804L15.1964 33.7876ZM14.728 32.72C14.728 33.0441 14.8324 33.5518 15.2402 33.8236L15.5598 33.3444C15.3916 33.2322 15.304 32.9719 15.304 32.72H14.728ZM15.1964 31.6524C15.0709 31.7778 14.9571 31.9523 14.8745 32.1313C14.7926 32.3087 14.728 32.5194 14.728 32.72H15.304C15.304 32.6326 15.3354 32.5073 15.3975 32.3727C15.4589 32.2397 15.5371 32.1262 15.6036 32.0596L15.1964 31.6524ZM16.8284 30.0204L15.1964 31.6524L15.6036 32.0596L17.2356 30.4276L16.8284 30.0204ZM16.9508 29.3551C17.026 29.5808 17.0126 29.8361 16.8284 30.0204L17.2356 30.4276C17.6274 30.0359 17.614 29.5232 17.4972 29.1729L16.9508 29.3551ZM16.456 28.976C16.6004 28.976 16.7056 29.0118 16.7786 29.0649C16.8495 29.1165 16.911 29.1993 16.9446 29.3338L17.5034 29.1941C17.441 28.9447 17.3105 28.7395 17.1174 28.5991C16.9264 28.4602 16.6956 28.4 16.456 28.4V28.976ZM14.248 28.976H16.456V28.4H14.248V28.976ZM12.712 27.44C12.712 28.2711 13.4169 28.976 14.248 28.976V28.4C13.7351 28.4 13.288 27.9529 13.288 27.44H12.712ZM12.712 24.56V27.44H13.288V24.56H12.712ZM14.248 23.024C13.4169 23.024 12.712 23.7289 12.712 24.56H13.288C13.288 24.0471 13.7351 23.6 14.248 23.6V23.024ZM16.456 23.024H14.248V23.6H16.456V23.024ZM16.9508 22.6449C16.9272 22.7157 16.8538 22.8157 16.7392 22.9016C16.6231 22.9887 16.5149 23.024 16.456 23.024V23.6C16.6851 23.6 16.9129 23.4913 17.0848 23.3624C17.2582 23.2323 17.4248 23.0443 17.4972 22.8271L16.9508 22.6449ZM16.8284 21.9796C16.9346 22.0859 16.9738 22.1756 16.9873 22.2638C17.0025 22.3625 16.9897 22.4858 16.9446 22.6662L17.5034 22.8059C17.5543 22.6022 17.5895 22.3895 17.5567 22.1762C17.5222 21.9524 17.4174 21.7541 17.2356 21.5724L16.8284 21.9796ZM15.1964 20.3476L16.8284 21.9796L17.2356 21.5724L15.6036 19.9404L15.1964 20.3476ZM14.728 19.28C14.728 19.6041 14.8324 20.1118 15.2402 20.3836L15.5598 19.9044C15.3916 19.7922 15.304 19.5319 15.304 19.28H14.728ZM15.1964 18.2124C15.0709 18.3378 14.9571 18.5123 14.8745 18.6913C14.7926 18.8687 14.728 19.0794 14.728 19.28H15.304C15.304 19.1926 15.3354 19.0673 15.3975 18.9327C15.4589 18.7997 15.5371 18.6862 15.6036 18.6196L15.1964 18.2124ZM17.2124 16.1964L15.1964 18.2124L15.6036 18.6196L17.6196 16.6036L17.2124 16.1964ZM19.3476 16.1964C18.7552 15.6039 17.8048 15.6039 17.2124 16.1964L17.6196 16.6036C17.9872 16.2361 18.5728 16.2361 18.9404 16.6036L19.3476 16.1964ZM20.9796 17.8284L19.3476 16.1964L18.9404 16.6036L20.5724 18.2356L20.9796 17.8284ZM21.6449 17.9508C21.4192 18.026 21.1639 18.0126 20.9796 17.8284L20.5724 18.2356C20.9641 18.6274 21.4768 18.614 21.8271 18.4972L21.6449 17.9508ZM22.024 17.456C22.024 17.6004 21.9882 17.7056 21.9351 17.7786C21.8835 17.8495 21.8007 17.911 21.6662 17.9446L21.8059 18.5034C22.0553 18.441 22.2605 18.3105 22.4009 18.1174C22.5398 17.9264 22.6 17.6956 22.6 17.456H22.024ZM22.024 15.248V17.456H22.6V15.248H22.024ZM23.56 13.712C22.7289 13.712 22.024 14.4169 22.024 15.248H22.6C22.6 14.7351 23.0471 14.288 23.56 14.288V13.712ZM26.44 13.712H23.56V14.288H26.44V13.712ZM27.976 15.248C27.976 14.4169 27.2711 13.712 26.44 13.712V14.288C26.9529 14.288 27.4 14.7351 27.4 15.248H27.976ZM27.976 17.456V15.248H27.4V17.456H27.976ZM28.3551 17.9508C28.2843 17.9272 28.1843 17.8538 28.0984 17.7392C28.0113 17.6231 27.976 17.5149 27.976 17.456H27.4C27.4 17.6851 27.5087 17.9129 27.6376 18.0848C27.7677 18.2582 27.9557 18.4248 28.1729 18.4972L28.3551 17.9508ZM29.0204 17.8284C28.9141 17.9346 28.8244 17.9738 28.7362 17.9873C28.6375 18.0025 28.5142 17.9897 28.3338 17.9446L28.1941 18.5034C28.3978 18.5543 28.6105 18.5895 28.8238 18.5567C29.0476 18.5222 29.2459 18.4174 29.4276 18.2356L29.0204 17.8284ZM30.6524 16.1964L29.0204 17.8284L29.4276 18.2356L31.0596 16.6036L30.6524 16.1964ZM32.7876 16.1964C32.1952 15.6039 31.2448 15.6039 30.6524 16.1964L31.0596 16.6036C31.4272 16.2361 32.0128 16.2361 32.3804 16.6036L32.7876 16.1964ZM34.8036 18.2124L32.7876 16.1964L32.3804 16.6036L34.3964 18.6196L34.8036 18.2124ZM35.272 19.28C35.272 18.9559 35.1676 18.4482 34.7598 18.1764L34.4402 18.6556C34.6084 18.7678 34.696 19.0281 34.696 19.28H35.272ZM34.8036 20.3476C34.9291 20.2222 35.0429 20.0477 35.1255 19.8687C35.2074 19.6913 35.272 19.4806 35.272 19.28H34.696C34.696 19.3674 34.6646 19.4927 34.6025 19.6273C34.5411 19.7603 34.4629 19.8738 34.3964 19.9404L34.8036 20.3476ZM33.1716 21.9796L34.8036 20.3476L34.3964 19.9404L32.7644 21.5724L33.1716 21.9796ZM33.0492 22.6449C32.974 22.4192 32.9874 22.1639 33.1716 21.9796L32.7644 21.5724C32.3726 21.9641 32.386 22.4768 32.5028 22.8271L33.0492 22.6449ZM33.544 23.024C33.3996 23.024 33.2944 22.9882 33.2214 22.9351C33.1505 22.8835 33.089 22.8007 33.0554 22.6661L32.4966 22.8059C32.559 23.0553 32.6895 23.2605 32.8826 23.4009C33.0736 23.5398 33.3044 23.6 33.544 23.6V23.024ZM35.848 27.44C35.848 27.44 35.848 27.4416 35.8472 27.4449C35.8464 27.4483 35.8449 27.4531 35.842 27.4592C35.8362 27.4718 35.8262 27.4865 35.8124 27.5004C35.7985 27.5142 35.7838 27.5242 35.7712 27.53C35.7651 27.5329 35.7603 27.5344 35.7569 27.5352C35.7536 27.536 35.752 27.536 35.752 27.536V28.112C35.9417 28.112 36.1072 28.0201 36.2196 27.9076C36.3321 27.7952 36.424 27.6297 36.424 27.44H35.848ZM35.848 24.56V27.44H36.424V24.56H35.848ZM35.752 24.464C35.752 24.464 35.7536 24.464 35.7569 24.4648C35.7603 24.4656 35.7651 24.4671 35.7712 24.47C35.7838 24.4758 35.7985 24.4858 35.8124 24.4996C35.8439 24.5312 35.848 24.5577 35.848 24.56H36.424C36.424 24.3703 36.3321 24.2048 36.2196 24.0924C36.1072 23.9799 35.9417 23.888 35.752 23.888V24.464ZM33.544 24.464H35.752V23.888H33.544V24.464ZM31.6473 23.2334C31.9816 24.0135 32.6631 24.464 33.544 24.464V23.888C32.8889 23.888 32.4184 23.5705 32.1767 23.0066L31.6473 23.2334ZM32.0924 20.9964C31.536 21.5527 31.3091 22.4445 31.6473 23.2334L32.1767 23.0066C31.9389 22.4515 32.096 21.8073 32.4996 21.4036L32.0924 20.9964ZM33.7244 19.3644L32.0924 20.9964L32.4996 21.4036L34.1316 19.7716L33.7244 19.3644ZM33.7244 19.2916C33.7114 19.2786 33.7056 19.2682 33.7042 19.2655C33.7026 19.2625 33.7034 19.2633 33.7051 19.2691C33.7086 19.2815 33.712 19.3024 33.712 19.328C33.712 19.3536 33.7086 19.3745 33.7051 19.3869C33.7034 19.3927 33.7026 19.3935 33.7042 19.3905C33.7056 19.3878 33.7114 19.3774 33.7244 19.3644L34.1316 19.7716C34.2031 19.7002 34.2396 19.6128 34.2589 19.5451C34.2794 19.4735 34.288 19.3984 34.288 19.328C34.288 19.2576 34.2794 19.1825 34.2589 19.1109C34.2396 19.0432 34.2031 18.9558 34.1316 18.8844L33.7244 19.2916ZM31.7084 17.2756L33.7244 19.2916L34.1316 18.8844L32.1156 16.8684L31.7084 17.2756ZM31.6356 17.2756C31.6227 17.2886 31.6122 17.2944 31.6095 17.2958C31.6065 17.2974 31.6073 17.2966 31.6131 17.2949C31.6255 17.2914 31.6464 17.288 31.672 17.288C31.6976 17.288 31.7185 17.2914 31.7309 17.2949C31.7367 17.2966 31.7375 17.2974 31.7345 17.2958C31.7318 17.2944 31.7214 17.2886 31.7084 17.2756L32.1156 16.8684C32.0442 16.7969 31.9568 16.7604 31.8891 16.7411C31.8175 16.7206 31.7424 16.712 31.672 16.712C31.6016 16.712 31.5265 16.7206 31.4549 16.7411C31.3872 16.7604 31.2998 16.7969 31.2284 16.8684L31.6356 17.2756ZM30.0036 18.9076L31.6356 17.2756L31.2284 16.8684L29.5964 18.5004L30.0036 18.9076ZM27.7666 19.3527C28.5555 19.6909 29.4473 19.464 30.0036 18.9076L29.5964 18.5004C29.1927 18.904 28.5485 19.0611 27.9934 18.8233L27.7666 19.3527ZM26.536 17.456C26.536 18.3369 26.9865 19.0184 27.7666 19.3527L27.9934 18.8233C27.4295 18.5816 27.112 18.1111 27.112 17.456H26.536ZM26.536 15.248V17.456H27.112V15.248H26.536ZM26.44 15.152C26.44 15.152 26.4416 15.152 26.4449 15.1528C26.4483 15.1536 26.4531 15.1551 26.4592 15.158C26.4718 15.1638 26.4865 15.1738 26.5004 15.1876C26.5142 15.2015 26.5242 15.2162 26.53 15.2288C26.5329 15.2349 26.5344 15.2397 26.5352 15.2431C26.536 15.2464 26.536 15.248 26.536 15.248H27.112C27.112 15.0583 27.0201 14.8928 26.9076 14.7804C26.7952 14.6679 26.6297 14.576 26.44 14.576V15.152ZM23.56 15.152H26.44V14.576H23.56V15.152ZM23.464 15.248C23.464 15.2457 23.4681 15.2192 23.4996 15.1876C23.5312 15.1561 23.5577 15.152 23.56 15.152V14.576C23.3703 14.576 23.2048 14.6679 23.0924 14.7804C22.9799 14.8928 22.888 15.0583 22.888 15.248H23.464ZM23.464 17.456V15.248H22.888V17.456H23.464ZM22.2334 19.3527C23.0135 19.0184 23.464 18.3369 23.464 17.456H22.888C22.888 18.1111 22.5705 18.5816 22.0066 18.8233L22.2334 19.3527ZM19.9964 18.9076C20.5527 19.464 21.4445 19.6909 22.2334 19.3527L22.0066 18.8233C21.4515 19.0611 20.8073 18.904 20.4036 18.5004L19.9964 18.9076ZM18.3644 17.2756L19.9964 18.9076L20.4036 18.5004L18.7716 16.8684L18.3644 17.2756ZM18.2916 17.2756C18.2786 17.2886 18.2682 17.2944 18.2655 17.2958C18.2625 17.2974 18.2633 17.2966 18.2691 17.2949C18.2815 17.2914 18.3024 17.288 18.328 17.288C18.3536 17.288 18.3745 17.2914 18.3869 17.2949C18.3927 17.2966 18.3935 17.2974 18.3905 17.2958C18.3878 17.2944 18.3774 17.2886 18.3644 17.2756L18.7716 16.8684C18.7002 16.7969 18.6128 16.7604 18.5451 16.7411C18.4735 16.7206 18.3984 16.712 18.328 16.712C18.2576 16.712 18.1825 16.7206 18.1109 16.7411C18.0432 16.7604 17.9558 16.7969 17.8844 16.8684L18.2916 17.2756ZM16.2756 19.2916L18.2916 17.2756L17.8844 16.8684L15.8684 18.8844L16.2756 19.2916ZM16.2756 19.3644C16.2886 19.3774 16.2944 19.3878 16.2958 19.3905C16.2974 19.3935 16.2966 19.3927 16.2949 19.3869C16.2914 19.3745 16.288 19.3536 16.288 19.328C16.288 19.3024 16.2914 19.2815 16.2949 19.2691C16.2966 19.2633 16.2974 19.2625 16.2958 19.2655C16.2944 19.2682 16.2886 19.2786 16.2756 19.2916L15.8684 18.8844C15.7969 18.9558 15.7604 19.0432 15.7411 19.1109C15.7206 19.1825 15.712 19.2576 15.712 19.328C15.712 19.3984 15.7206 19.4735 15.7411 19.5451C15.7604 19.6128 15.7969 19.7002 15.8684 19.7716L16.2756 19.3644ZM17.9076 20.9964L16.2756 19.3644L15.8684 19.7716L17.5004 21.4036L17.9076 20.9964ZM18.3527 23.2334C18.6909 22.4445 18.464 21.5527 17.9076 20.9964L17.5004 21.4036C17.904 21.8073 18.0611 22.4515 17.8233 23.0066L18.3527 23.2334ZM16.456 24.464C17.3369 24.464 18.0184 24.0135 18.3527 23.2334L17.8233 23.0066C17.5816 23.5705 17.1111 23.888 16.456 23.888V24.464ZM14.248 24.464H16.456V23.888H14.248V24.464ZM14.152 24.56C14.152 24.5577 14.1561 24.5312 14.1876 24.4996C14.2192 24.4681 14.2457 24.464 14.248 24.464V23.888C14.0583 23.888 13.8928 23.9799 13.7804 24.0924C13.6679 24.2048 13.576 24.3703 13.576 24.56H14.152ZM14.152 27.44V24.56H13.576V27.44H14.152ZM14.248 27.536C14.248 27.536 14.2464 27.536 14.2431 27.5352C14.2397 27.5344 14.2349 27.5329 14.2288 27.53C14.2162 27.5242 14.2015 27.5142 14.1876 27.5004C14.1738 27.4865 14.1638 27.4718 14.158 27.4592C14.1551 27.4531 14.1536 27.4483 14.1528 27.4449C14.152 27.4416 14.152 27.44 14.152 27.44H13.576C13.576 27.6297 13.6679 27.7952 13.7804 27.9076C13.8928 28.0201 14.0583 28.112 14.248 28.112V27.536ZM16.456 27.536H14.248V28.112H16.456V27.536ZM18.3527 28.7666C18.0184 27.9865 17.3369 27.536 16.456 27.536V28.112C17.1111 28.112 17.5816 28.4295 17.8233 28.9934L18.3527 28.7666ZM17.9076 31.0036C18.464 30.4473 18.6909 29.5555 18.3527 28.7666L17.8233 28.9934C18.0611 29.5485 17.904 30.1927 17.5004 30.5964L17.9076 31.0036ZM16.2756 32.6356L17.9076 31.0036L17.5004 30.5964L15.8684 32.2284L16.2756 32.6356ZM16.2756 32.7084C16.2886 32.7214 16.2944 32.7318 16.2958 32.7345C16.2974 32.7375 16.2966 32.7367 16.2949 32.7309C16.2914 32.7185 16.288 32.6976 16.288 32.672C16.288 32.6464 16.2914 32.6255 16.2949 32.6131C16.2966 32.6073 16.2974 32.6065 16.2958 32.6095C16.2944 32.6122 16.2886 32.6227 16.2756 32.6356L15.8684 32.2284C15.7969 32.2998 15.7604 32.3872 15.7411 32.4549C15.7206 32.5265 15.712 32.6016 15.712 32.672C15.712 32.7424 15.7206 32.8175 15.7411 32.8891C15.7604 32.9568 15.7969 33.0442 15.8684 33.1156L16.2756 32.7084ZM18.2916 34.7244L16.2756 32.7084L15.8684 33.1156L17.8844 35.1316L18.2916 34.7244ZM18.3644 34.7244C18.3774 34.7114 18.3878 34.7056 18.3905 34.7042C18.3935 34.7026 18.3927 34.7034 18.3869 34.7051C18.3745 34.7086 18.3536 34.712 18.328 34.712C18.3024 34.712 18.2815 34.7086 18.2691 34.7051C18.2633 34.7034 18.2625 34.7026 18.2655 34.7042C18.2682 34.7056 18.2786 34.7114 18.2916 34.7244L17.8844 35.1316C17.9558 35.2031 18.0432 35.2396 18.1109 35.2589C18.1825 35.2794 18.2576 35.288 18.328 35.288C18.3984 35.288 18.4735 35.2794 18.5451 35.2589C18.6128 35.2396 18.7002 35.2031 18.7716 35.1316L18.3644 34.7244ZM19.9964 33.0924L18.3644 34.7244L18.7716 35.1316L20.4036 33.4996L19.9964 33.0924ZM21.448 32.528C20.8807 32.528 20.4365 32.7586 20.0272 33.0656L20.3728 33.5264C20.7315 33.2574 21.0553 33.104 21.448 33.104V32.528ZM22.2488 32.6544C22.1066 32.5833 21.9459 32.5548 21.8127 32.5414C21.6763 32.5278 21.5424 32.528 21.448 32.528V33.104C21.5456 33.104 21.6517 33.1042 21.7553 33.1146C21.8621 33.1252 21.9414 33.1447 21.9912 33.1696L22.2488 32.6544ZM23.464 34.544C23.464 33.6631 23.0135 32.9816 22.2334 32.6473L22.0066 33.1767C22.5705 33.4184 22.888 33.8889 22.888 34.544H23.464ZM23.464 36.752V34.544H22.888V36.752H23.464ZM23.56 36.848C23.5577 36.848 23.5312 36.8439 23.4996 36.8124C23.4858 36.7985 23.4758 36.7838 23.47 36.7712C23.4671 36.7651 23.4656 36.7603 23.4648 36.7569C23.464 36.7536 23.464 36.752 23.464 36.752H22.888C22.888 36.9417 22.9799 37.1072 23.0924 37.2196C23.2048 37.3321 23.3703 37.424 23.56 37.424V36.848ZM26.44 36.848H23.56V37.424H26.44V36.848ZM26.536 36.752C26.536 36.752 26.536 36.7536 26.5352 36.7569C26.5344 36.7603 26.5329 36.7651 26.53 36.7712C26.5242 36.7838 26.5142 36.7985 26.5004 36.8124C26.4865 36.8262 26.4718 36.8362 26.4592 36.842C26.4531 36.8449 26.4483 36.8464 26.4449 36.8472C26.4416 36.848 26.44 36.848 26.44 36.848V37.424C26.6297 37.424 26.7952 37.3321 26.9076 37.2196C27.0201 37.1072 27.112 36.9417 27.112 36.752H26.536ZM26.536 34.544V36.752H27.112V34.544H26.536ZM27.7666 32.6473C26.9865 32.9816 26.536 33.6631 26.536 34.544H27.112C27.112 33.8889 27.4295 33.4184 27.9934 33.1767L27.7666 32.6473ZM30.0036 33.0924C29.4473 32.536 28.5555 32.3091 27.7666 32.6473L27.9934 33.1767C28.5485 32.9389 29.1927 33.096 29.5964 33.4996L30.0036 33.0924ZM31.6356 34.7244L30.0036 33.0924L29.5964 33.4996L31.2284 35.1316L31.6356 34.7244ZM31.7084 34.7243C31.7214 34.7114 31.7318 34.7056 31.7345 34.7042C31.7375 34.7026 31.7367 34.7034 31.7309 34.7051C31.7185 34.7086 31.6976 34.712 31.672 34.712C31.6464 34.712 31.6255 34.7086 31.6131 34.7051C31.6073 34.7034 31.6065 34.7026 31.6095 34.7042C31.6122 34.7056 31.6226 34.7114 31.6356 34.7244L31.2284 35.1316C31.2998 35.2031 31.3872 35.2396 31.4549 35.2589C31.5265 35.2794 31.6016 35.288 31.672 35.288C31.7424 35.288 31.8175 35.2794 31.8891 35.2589C31.9568 35.2396 32.0442 35.2031 32.1156 35.1316L31.7084 34.7243ZM33.7244 32.7084L31.7084 34.7244L32.1156 35.1316L34.1316 33.1156L33.7244 32.7084ZM33.7244 32.6356C33.7114 32.6226 33.7056 32.6122 33.7042 32.6095C33.7026 32.6065 33.7034 32.6073 33.7051 32.6131C33.7086 32.6255 33.712 32.6464 33.712 32.672C33.712 32.6976 33.7086 32.7185 33.7051 32.7309C33.7034 32.7367 33.7026 32.7375 33.7042 32.7345C33.7056 32.7318 33.7114 32.7214 33.7243 32.7084L34.1316 33.1156C34.2031 33.0442 34.2396 32.9568 34.2589 32.8891C34.2794 32.8175 34.288 32.7424 34.288 32.672C34.288 32.6016 34.2794 32.5265 34.2589 32.4549C34.2396 32.3872 34.2031 32.2998 34.1316 32.2284L33.7244 32.6356ZM32.0924 31.0036L33.7244 32.6356L34.1316 32.2284L32.4996 30.5964L32.0924 31.0036ZM31.6473 28.7666C31.3091 29.5555 31.536 30.4473 32.0924 31.0036L32.4996 30.5964C32.096 30.1927 31.9389 29.5485 32.1767 28.9934L31.6473 28.7666ZM33.544 27.536C32.6631 27.536 31.9816 27.9865 31.6473 28.7666L32.1767 28.9934C32.4184 28.4295 32.8889 28.112 33.544 28.112V27.536ZM35.752 27.536H33.544V28.112H35.752V27.536Z" fill="#242424"/>
<path fill-rule="evenodd" clip-rule="evenodd" d="M20.968 26C20.968 23.792 22.792 21.968 25 21.968C27.208 21.968 29.032 23.792 29.032 26C29.032 28.208 27.208 30.032 25 30.032C22.792 30.032 20.968 28.208 20.968 26ZM21.928 26C21.928 27.632 23.272 29.072 25 29.072C26.728 29.072 28.072 27.632 28.072 26C28.072 24.368 26.632 22.928 25 22.928C23.368 22.928 21.928 24.368 21.928 26Z" fill="#242424"/>
<path d="M25 21.68C22.633 21.68 20.68 23.6329 20.68 26H21.256C21.256 23.9511 22.9511 22.256 25 22.256V21.68ZM29.32 26C29.32 23.6329 27.3671 21.68 25 21.68V22.256C27.049 22.256 28.744 23.9511 28.744 26H29.32ZM25 30.32C27.3671 30.32 29.32 28.3671 29.32 26H28.744C28.744 28.0489 27.049 29.744 25 29.744V30.32ZM20.68 26C20.68 28.3671 22.633 30.32 25 30.32V29.744C22.9511 29.744 21.256 28.0489 21.256 26H20.68ZM25 28.784C23.4369 28.784 22.216 27.4788 22.216 26H21.64C21.64 27.7852 23.1072 29.36 25 29.36V28.784ZM27.784 26C27.784 27.4788 26.5632 28.784 25 28.784V29.36C26.8929 29.36 28.36 27.7852 28.36 26H27.784ZM25 23.216C26.473 23.216 27.784 24.5271 27.784 26H28.36C28.36 24.2089 26.7911 22.64 25 22.64V23.216ZM22.216 26C22.216 24.5271 23.5271 23.216 25 23.216V22.64C23.209 22.64 21.64 24.2089 21.64 26H22.216Z" fill="#242424"/>
</svg>
