<svg width="16" height="16" viewBox="0 0 16 16" fill="none" xmlns="http://www.w3.org/2000/svg">
<path d="M14.9235 14.5525L15.2776 14.1995L15.2773 14.1992L14.9235 14.5525ZM10.8445 10.468L10.4972 10.1083L10.1314 10.4615L10.4907 10.8213L10.8445 10.468ZM10.4388 10.8243L10.7926 10.471L10.4765 10.1544L10.1268 10.4335L10.4388 10.8243ZM14.5276 14.9189L14.8825 14.5666L14.8815 14.5655L14.5276 14.9189ZM14.9158 14.9263L15.255 15.2936L15.2556 15.293L14.9158 14.9263ZM15.2773 14.1992L11.1983 10.1146L10.4907 10.8213L14.5697 14.9058L15.2773 14.1992ZM11.1919 10.8276C12.3232 9.73512 13.0295 8.22281 13.0295 6.55073H12.0295C12.0295 7.93367 11.4467 9.19143 10.4972 10.1083L11.1919 10.8276ZM13.0295 6.55073C13.0295 3.1961 10.2017 0.5 6.76474 0.5V1.5C9.68544 1.5 12.0295 3.7837 12.0295 6.55073H13.0295ZM6.76474 0.5C3.32775 0.5 0.5 3.1961 0.5 6.55073H1.5C1.5 3.7837 3.84404 1.5 6.76474 1.5V0.5ZM0.5 6.55073C0.5 9.90536 3.32775 12.6015 6.76474 12.6015V11.6015C3.84404 11.6015 1.5 9.31776 1.5 6.55073H0.5ZM6.76474 12.6015C8.27625 12.6015 9.66626 12.0809 10.7508 11.215L10.1268 10.4335C9.2151 11.1615 8.04392 11.6015 6.76474 11.6015V12.6015ZM10.085 11.1776L14.1738 15.2722L14.8815 14.5655L10.7926 10.471L10.085 11.1776ZM14.1728 15.2712C14.3272 15.4266 14.53 15.5 14.7256 15.5V14.5C14.7768 14.5 14.8357 14.5194 14.8825 14.5666L14.1728 15.2712ZM14.7256 15.5C14.9131 15.5 15.1045 15.4326 15.255 15.2936L14.5767 14.5589C14.6206 14.5183 14.6753 14.5 14.7256 14.5V15.5ZM15.2556 15.293C15.5724 14.9995 15.5828 14.5057 15.2776 14.1995L14.5694 14.9055C14.4739 14.8097 14.4777 14.6505 14.576 14.5595L15.2556 15.293ZM6.76474 11.0728C4.14683 11.0728 2.04902 9.02621 2.04902 6.55073H1.04902C1.04902 9.61382 3.63054 12.0728 6.76474 12.0728V11.0728ZM2.04902 6.55073C2.04902 4.07525 4.14683 2.02864 6.76474 2.02864V1.02864C3.63054 1.02864 1.04902 3.48764 1.04902 6.55073H2.04902ZM6.76474 2.02864C9.38265 2.02864 11.4805 4.07525 11.4805 6.55073H12.4805C12.4805 3.48764 9.89894 1.02864 6.76474 1.02864V2.02864ZM11.4805 6.55073C11.4805 9.0262 9.38239 11.0728 6.76474 11.0728V12.0728C9.89865 12.0728 12.4805 9.61384 12.4805 6.55073H11.4805Z" fill="#242424"/>
</svg>
