<svg width="36" height="36" viewBox="0 0 36 36" fill="none" xmlns="http://www.w3.org/2000/svg">
<circle opacity="0.114723" cx="18" cy="18" r="18" fill="#7A40F2"/>
<path fill-rule="evenodd" clip-rule="evenodd" d="M23.286 13.6025C23.4232 13.5671 23.5604 13.6025 23.6634 13.7087C23.7663 13.8149 23.8006 13.9565 23.732 14.1334L17.8999 29.1412C17.8656 29.2827 17.7284 29.3535 17.5911 29.3535H17.4882C17.3167 29.3181 17.2138 29.1412 17.2481 28.9642L19.032 18.6287L13.543 19.6551C13.4401 19.6551 13.3028 19.6198 13.2342 19.549C13.1656 19.4428 13.1313 19.3366 13.1313 19.2304L14.5036 8.39936C14.5379 8.22239 14.6751 8.0808 14.8466 8.0808H20.1298C20.2327 8.0808 20.3356 8.1162 20.4043 8.22239C20.4729 8.32857 20.4729 8.43476 20.4386 8.54095L17.9342 15.5493L23.286 13.6025ZM19.7867 18.2039L18.5174 25.637L22.8057 14.5228L17.4882 16.4342C17.3853 16.5049 17.2481 16.4695 17.1452 16.3634C17.0765 16.2926 17.0422 16.151 17.0765 16.0094L19.6495 8.78872H15.1554L13.8517 18.8057L19.3751 17.7792H19.4437C19.5466 17.7792 19.6152 17.8146 19.6838 17.8854C19.7867 17.9562 19.821 18.0977 19.7867 18.2039Z" fill="#7A40F2"/>
<path d="M23.286 13.6025L23.2481 13.4558L23.2411 13.4576L23.2342 13.4601L23.286 13.6025ZM23.732 14.1334L23.8732 14.1883L23.8732 14.1882L23.732 14.1334ZM17.8999 29.1412L17.7587 29.0863L17.755 29.0957L17.7526 29.1055L17.8999 29.1412ZM17.4882 29.3535L17.4576 29.5019L17.4727 29.505H17.4882V29.3535ZM17.2481 28.9642L17.3968 28.993L17.3974 28.9899L17.2481 28.9642ZM19.032 18.6287L19.1813 18.6544L19.2184 18.4397L19.0041 18.4797L19.032 18.6287ZM13.543 19.6551V19.8067H13.557L13.5708 19.8041L13.543 19.6551ZM13.2342 19.549L13.107 19.6312L13.1151 19.6437L13.1254 19.6544L13.2342 19.549ZM13.1313 19.2304L12.981 19.2114L12.9798 19.2208V19.2304H13.1313ZM14.5036 8.39936L14.3545 8.37047L14.3532 8.38032L14.5036 8.39936ZM20.4043 8.22239L20.277 8.30462V8.30462L20.4043 8.22239ZM20.4386 8.54095L20.5813 8.59196L20.5827 8.58753L20.4386 8.54095ZM17.9342 15.5493L17.7915 15.4983L17.683 15.8019L17.986 15.6917L17.9342 15.5493ZM18.5174 25.637L18.3681 25.6115L18.6588 25.6915L18.5174 25.637ZM19.7867 18.2039L19.6426 18.1573L19.6392 18.1677L19.6374 18.1784L19.7867 18.2039ZM22.8057 14.5228L22.9471 14.5773L23.0664 14.2681L22.7544 14.3802L22.8057 14.5228ZM17.4882 16.4342L17.437 16.2916L17.4185 16.2982L17.4023 16.3093L17.4882 16.4342ZM17.1452 16.3634L17.2539 16.2579H17.2539L17.1452 16.3634ZM17.0765 16.0094L16.9338 15.9585L16.9312 15.966L16.9293 15.9737L17.0765 16.0094ZM19.6495 8.78872L19.7922 8.83957L19.8644 8.6372H19.6495V8.78872ZM15.1554 8.78872V8.6372H15.0223L15.0051 8.76916L15.1554 8.78872ZM13.8517 18.8057L13.7015 18.7861L13.6746 18.9927L13.8794 18.9546L13.8517 18.8057ZM19.3751 17.7792V17.6277H19.3611L19.3474 17.6302L19.3751 17.7792ZM19.6838 17.8854L19.575 17.9908L19.5855 18.0017L19.598 18.0102L19.6838 17.8854ZM23.7722 13.6032C23.6304 13.457 23.4368 13.4071 23.2481 13.4558L23.3238 13.7492C23.4096 13.7271 23.4905 13.748 23.5546 13.8141L23.7722 13.6032ZM23.8732 14.1882C23.9156 14.0789 23.9298 13.9707 23.9111 13.8674C23.8922 13.7635 23.8418 13.6751 23.7722 13.6032L23.5546 13.8141C23.5878 13.8484 23.6061 13.8839 23.6129 13.9216C23.6199 13.9599 23.6169 14.011 23.5907 14.0787L23.8732 14.1882ZM18.0411 29.196L23.8732 14.1883L23.5907 14.0786L17.7587 29.0863L18.0411 29.196ZM17.5911 29.505C17.7708 29.505 17.9907 29.4099 18.0471 29.1768L17.7526 29.1055C17.7405 29.1555 17.686 29.202 17.5911 29.202V29.505ZM17.4882 29.505H17.5911V29.202H17.4882V29.505ZM17.0993 28.9353C17.0516 29.1814 17.193 29.4473 17.4576 29.5019L17.5188 29.2051C17.4403 29.1889 17.3759 29.1009 17.3968 28.993L17.0993 28.9353ZM18.8827 18.6029L17.0988 28.9384L17.3974 28.9899L19.1813 18.6544L18.8827 18.6029ZM13.5708 19.8041L19.0599 18.7776L19.0041 18.4797L13.5151 19.5062L13.5708 19.8041ZM13.1254 19.6544C13.1838 19.7147 13.2615 19.7513 13.3299 19.773C13.4003 19.7954 13.4758 19.8067 13.543 19.8067V19.5036C13.5072 19.5036 13.4627 19.4972 13.4216 19.4842C13.3785 19.4705 13.3532 19.454 13.343 19.4435L13.1254 19.6544ZM12.9798 19.2304C12.9798 19.3709 13.0256 19.5052 13.107 19.6312L13.3615 19.4667C13.3056 19.3803 13.2828 19.3022 13.2828 19.2304H12.9798ZM14.3532 8.38032L12.981 19.2114L13.2816 19.2494L14.6539 8.41841L14.3532 8.38032ZM14.8466 7.92929C14.584 7.92929 14.3991 8.14227 14.3548 8.37053L14.6523 8.4282C14.6767 8.30251 14.7662 8.23232 14.8466 8.23232V7.92929ZM20.1298 7.92929H14.8466V8.23232H20.1298V7.92929ZM20.5315 8.14016C20.4279 7.97982 20.2696 7.92929 20.1298 7.92929V8.23232C20.1959 8.23232 20.2434 8.25258 20.277 8.30462L20.5315 8.14016ZM20.5827 8.58753C20.6274 8.44924 20.6306 8.29345 20.5315 8.14016L20.277 8.30462C20.3152 8.36369 20.3183 8.42028 20.2944 8.49437L20.5827 8.58753ZM18.0769 15.6002L20.5812 8.59193L20.2959 8.48996L17.7915 15.4983L18.0769 15.6002ZM23.2342 13.4601L17.8824 15.4069L17.986 15.6917L23.3378 13.7449L23.2342 13.4601ZM18.6668 25.6625L19.9361 18.2294L19.6374 18.1784L18.3681 25.6115L18.6668 25.6625ZM22.6643 14.4683L18.376 25.5825L18.6588 25.6915L22.9471 14.5773L22.6643 14.4683ZM17.5395 16.5767L22.857 14.6654L22.7544 14.3802L17.437 16.2916L17.5395 16.5767ZM17.0364 16.4688C17.1675 16.6041 17.3863 16.6881 17.5741 16.559L17.4023 16.3093C17.3894 16.3182 17.3733 16.3225 17.3494 16.3172C17.3233 16.3114 17.2886 16.2937 17.2539 16.2579L17.0364 16.4688ZM16.9293 15.9737C16.8862 16.1513 16.9223 16.3511 17.0364 16.4688L17.2539 16.2579C17.2446 16.2482 17.2293 16.2238 17.2206 16.1821C17.2123 16.142 17.212 16.0939 17.2238 16.0451L16.9293 15.9737ZM19.5068 8.73786L16.9338 15.9585L17.2193 16.0603L19.7922 8.83957L19.5068 8.73786ZM15.1554 8.94023H19.6495V8.6372H15.1554V8.94023ZM14.002 18.8252L15.3056 8.80827L15.0051 8.76916L13.7015 18.7861L14.002 18.8252ZM19.3474 17.6302L13.8241 18.6567L13.8794 18.9546L19.4027 17.9281L19.3474 17.6302ZM19.4437 17.6277H19.3751V17.9307H19.4437V17.6277ZM19.7926 17.7799C19.7496 17.7355 19.7003 17.6958 19.6398 17.668C19.5784 17.6399 19.5134 17.6277 19.4437 17.6277V17.9307C19.4768 17.9307 19.4976 17.9362 19.5135 17.9435C19.5301 17.9511 19.5495 17.9644 19.575 17.9908L19.7926 17.7799ZM19.9309 18.2505C19.9828 18.0899 19.9355 17.8746 19.7697 17.7605L19.598 18.0102C19.638 18.0377 19.6593 18.1056 19.6426 18.1573L19.9309 18.2505Z" fill="#7A40F2"/>
</svg>
