<svg width="27" height="34" viewBox="0 0 27 34" fill="none" xmlns="http://www.w3.org/2000/svg">
<path d="M20.7788 12.7339L18.3262 7.94747L13.5196 6.27305L13.5085 6.30879L6.03791 8.53941C5.50946 8.69905 5.04477 9.03339 4.71349 9.49232C4.38222 9.95126 4.20223 10.51 4.20049 11.0849V18.0288H6.73377V11.085L12.5603 9.34531L9.9865 17.5881L9.97423 17.5835L7.64171 24.4089C7.52885 24.7338 7.29947 25.0001 7.0021 25.1514C6.70473 25.3027 6.3627 25.3272 6.04836 25.2197L0.801149 23.3915L0 25.9031L5.24721 27.7309C6.18995 28.0592 7.21825 27.9886 8.11173 27.534C9.0052 27.0795 9.69275 26.2773 10.027 25.2993L11.9454 19.6861L13.3049 20.1494L17.1285 24.1453C17.2467 24.268 17.3404 24.414 17.4042 24.5748C17.468 24.7356 17.5006 24.908 17.5002 25.0821V33.9133H20.0335V25.0821C20.0348 24.5604 19.9371 24.0436 19.7461 23.5616C19.5551 23.0795 19.2744 22.6419 18.9205 22.274L15.0996 18.281L17.2199 11.4906L18.7453 14.36C18.9099 14.6695 19.1507 14.9274 19.4427 15.1069C19.7347 15.2865 20.0673 15.3812 20.4061 15.3813H27V12.7339H20.7788Z" fill="#9897AD"/>
<path d="M15.5075 5.26381C16.0051 5.69834 16.6296 5.94255 17.2779 5.95611C17.9262 5.96967 18.5596 5.75177 19.0734 5.33839C19.5872 4.92501 19.9508 4.34086 20.1041 3.6824C20.2574 3.02394 20.1912 2.33054 19.9165 1.71668C19.6418 1.10282 19.175 0.60521 18.5932 0.306013C18.0114 0.00681477 17.3493 -0.0760819 16.7163 0.0710095C16.0833 0.218101 15.5173 0.586385 15.1116 1.11505C14.7059 1.64372 14.4849 2.30117 14.485 2.97883C14.4842 3.41483 14.5755 3.84563 14.7522 4.24058C14.9289 4.63552 15.1868 4.98489 15.5075 5.26381Z" fill="#9897AD"/>
</svg>
