<svg width="23" height="27" viewBox="0 0 23 27" fill="none" xmlns="http://www.w3.org/2000/svg">
<path fill-rule="evenodd" clip-rule="evenodd" d="M12.1875 2.9375C12.1875 3.28125 11.9063 3.5625 11.5625 3.5625C11.2187 3.5625 10.9375 3.28125 10.9375 2.90625V0.625C10.9375 0.28125 11.2187 0 11.5625 0C11.9063 0 12.1875 0.28125 12.1875 0.625V2.9375ZM7.28125 18.4687C7.40625 18.6563 7.59375 18.75 7.8125 18.75H15.3125C15.5313 18.75 15.7187 18.6563 15.8437 18.4687C17.1875 16.4688 18.0938 13.625 18.0938 11.4375C18.0938 7.5 15.1562 4.28125 11.5625 4.28125C7.96875 4.28125 5.03125 7.5 5.03125 11.4375C5.03125 13.625 5.9375 16.4688 7.28125 18.4687ZM11.5625 5.53125C14.4688 5.53125 16.8438 8.1875 16.8438 11.4375C16.8438 13.3125 16.0938 15.6875 14.9688 17.5H8.15625C7.03125 15.6875 6.28125 13.3125 6.28125 11.4375C6.28125 8.1875 8.625 5.53125 11.5625 5.53125ZM15.6563 21.0625V20.9688C15.6563 20.0313 14.875 19.25 13.9375 19.25H9.15625C8.21875 19.25 7.4375 20.0313 7.4375 20.9688V21.0625C7.4375 22 8.21875 22.7812 9.15625 22.7812H13.9375C14.9063 22.7812 15.6563 22 15.6563 21.0625ZM14.4063 21.0625C14.4063 21.3125 14.1875 21.5313 13.9375 21.5313H9.15625C8.90625 21.5313 8.6875 21.3125 8.6875 21.0625V20.9688C8.6875 20.7187 8.90625 20.5 9.15625 20.5H13.9375C14.1875 20.5 14.4063 20.7187 14.4063 20.9688V21.0625ZM10.5 23.4375H12.5938C13.5312 23.4375 14.3125 24.2188 14.3125 25.1563V25.25C14.3125 26.1875 13.5312 26.9688 12.5938 26.9688H10.5C9.5625 26.9688 8.78125 26.1875 8.78125 25.25V25.1563C8.78125 24.2188 9.5625 23.4375 10.5 23.4375ZM12.5938 25.75C12.8438 25.75 13.0625 25.5313 13.0625 25.2813V25.1875C13.0625 24.9375 12.8438 24.7188 12.5938 24.7188H10.5C10.25 24.7188 10.0313 24.9375 10.0313 25.1875V25.2813C10.0313 25.5313 10.25 25.75 10.5 25.75H12.5938ZM17.625 6.09375C17.7813 6.09375 17.9375 6.03125 18.0625 5.90625L19.6875 4.28125C19.9375 4.03125 19.9375 3.65625 19.6875 3.40625C19.4375 3.15625 19.0625 3.15625 18.8125 3.40625L17.1875 5.03125C16.9375 5.28125 16.9375 5.65625 17.1875 5.90625C17.2812 6.03125 17.4688 6.09375 17.625 6.09375ZM20.0938 12.1875C19.75 12.1875 19.4688 11.9063 19.4688 11.5625C19.4688 11.2187 19.75 10.9375 20.0938 10.9375H22.375C22.7187 10.9375 23 11.2187 23 11.5625C23 11.9063 22.7187 12.1875 22.375 12.1875H20.0938ZM19.1563 19.875C19.3125 19.875 19.4688 19.8125 19.5937 19.6875C19.8437 19.4375 19.8437 19.0625 19.5937 18.8125L17.9688 17.1875C17.7188 16.9375 17.3438 16.9375 17.0938 17.1875C16.8438 17.4375 16.8438 17.8125 17.0938 18.0625L18.7187 19.6875C18.8438 19.8125 19 19.875 19.1563 19.875ZM5.84375 17.125C6.09375 17.375 6.09375 17.75 5.84375 18L4.21875 19.625C4.09375 19.75 3.9375 19.8125 3.78125 19.8125C3.625 19.8125 3.46875 19.75 3.34375 19.625C3.09375 19.375 3.09375 19 3.34375 18.75L4.96875 17.125C5.21875 16.875 5.59375 16.875 5.84375 17.125ZM0.625 12.0938H2.90625C3.25 12.0938 3.53125 11.8125 3.53125 11.4688C3.53125 11.125 3.25 10.8438 2.90625 10.8438H0.625C0.28125 10.8438 0 11.125 0 11.4688C0 11.8125 0.28125 12.0938 0.625 12.0938ZM5.46875 6.03125C5.3125 6.03125 5.15625 5.96875 5.03125 5.84375L3.40625 4.21875C3.15625 3.96875 3.15625 3.59375 3.40625 3.34375C3.65625 3.09375 4.03125 3.09375 4.28125 3.34375L5.90625 4.96875C6.15625 5.21875 6.15625 5.59375 5.90625 5.84375C5.78125 5.96875 5.625 6.03125 5.46875 6.03125Z" fill="#9897AD"/>
</svg>
