<svg width="16" height="30" viewBox="0 0 16 30" fill="none" xmlns="http://www.w3.org/2000/svg">
<path fill-rule="evenodd" clip-rule="evenodd" d="M14.8158 7.83642C15.0146 7.78685 15.2135 7.83642 15.3626 7.98515C15.5117 8.13387 15.5614 8.33217 15.462 8.58005L7.01192 29.5998C6.96221 29.7981 6.76339 29.8973 6.56456 29.8973H6.41544C6.16691 29.8477 6.01779 29.5998 6.0675 29.3519L8.65223 14.8761L0.699221 16.3137C0.550102 16.3137 0.351277 16.2642 0.251865 16.165C0.152452 16.0163 0.102746 15.8676 0.102746 15.7188L2.091 0.548912C2.1407 0.301038 2.33953 0.102738 2.58806 0.102738H10.2428C10.3919 0.102738 10.5411 0.152313 10.6405 0.301038C10.7399 0.449763 10.7399 0.598487 10.6902 0.747212L7.06162 10.563L14.8158 7.83642ZM9.74576 14.2812L7.90663 24.6919L14.1199 9.12537L6.41544 11.8024C6.26632 11.9016 6.0675 11.852 5.91838 11.7033C5.81897 11.6041 5.76926 11.4058 5.81897 11.2075L9.54694 1.09424H3.03542L1.14658 15.1239L9.14929 13.6863H9.2487C9.39782 13.6863 9.49723 13.7358 9.59664 13.835C9.74576 13.9341 9.79547 14.1324 9.74576 14.2812Z" fill="white"/>
<path d="M14.8158 7.83642L14.7908 7.7363L14.7817 7.7395L14.8158 7.83642ZM15.462 8.58005L15.5573 8.61837L15.5573 8.61829L15.462 8.58005ZM7.01192 29.5998L6.9157 29.5611L6.91226 29.5748L7.01192 29.5998ZM6.41544 29.8973L6.39535 29.998L6.4053 30H6.41544V29.8973ZM6.0675 29.3519L6.16826 29.3721L6.16864 29.37L6.0675 29.3519ZM8.65223 14.8761L8.75337 14.8941L8.77934 14.7487L8.63395 14.775L8.65223 14.8761ZM0.699221 16.3137V16.4165H0.708433L0.717497 16.4148L0.699221 16.3137ZM0.251865 16.165L0.16645 16.2221L0.172106 16.2306L0.179313 16.2378L0.251865 16.165ZM0.102746 15.7188L6.2692e-06 15.7054V15.7188H0.102746ZM2.091 0.548912L1.99003 0.528666L1.98913 0.535561L2.091 0.548912ZM10.6902 0.747212L10.7866 0.782853L10.7876 0.779779L10.6902 0.747212ZM7.06162 10.563L6.96526 10.5274L6.88945 10.7325L7.09571 10.66L7.06162 10.563ZM7.90663 24.6919L7.80546 24.674L8.00205 24.73L7.90663 24.6919ZM9.74576 14.2812L9.64832 14.2486L9.64591 14.2558L9.64459 14.2633L9.74576 14.2812ZM14.1199 9.12537L14.2153 9.16346L14.2988 8.95447L14.0862 9.02832L14.1199 9.12537ZM6.41544 11.8024L6.38172 11.7054L6.36941 11.7096L6.35856 11.7169L6.41544 11.8024ZM5.91838 11.7033L5.84583 11.776L5.84583 11.776L5.91838 11.7033ZM5.81897 11.2075L5.72201 11.1718L5.71931 11.1825L5.81897 11.2075ZM9.54694 1.09424L9.64334 1.12977L9.69431 0.991497H9.54694V1.09424ZM3.03542 1.09424V0.991497H2.94558L2.9336 1.08053L3.03542 1.09424ZM1.14658 15.1239L1.04476 15.1102L1.02594 15.25L1.16474 15.2251L1.14658 15.1239ZM9.14929 13.6863V13.5835H9.14013L9.13112 13.5851L9.14929 13.6863ZM9.59664 13.835L9.52409 13.9077L9.53129 13.9149L9.53976 13.9205L9.59664 13.835ZM15.4351 7.91241C15.2594 7.73715 15.0232 7.67883 14.7909 7.73674L14.8407 7.93611C15.0061 7.89487 15.1675 7.93569 15.29 8.05789L15.4351 7.91241ZM15.5573 8.61829C15.6128 8.47993 15.6294 8.3484 15.6064 8.22644C15.5835 8.10412 15.5222 7.99927 15.4351 7.91241L15.29 8.05789C15.352 8.11975 15.3902 8.18841 15.4045 8.2644C15.4189 8.34073 15.4105 8.4323 15.3666 8.5418L15.5573 8.61829ZM7.10724 29.6381L15.5573 8.61837L15.3667 8.54173L6.91659 29.5615L7.10724 29.6381ZM6.56456 30C6.78967 30 7.04603 29.8863 7.11157 29.6248L6.91226 29.5748C6.8784 29.7099 6.73711 29.7945 6.56456 29.7945V30ZM6.41544 30H6.56456V29.7945H6.41544V30ZM5.96676 29.3317C5.90698 29.6298 6.08584 29.9363 6.39535 29.998L6.43554 29.7965C6.24798 29.7591 6.1286 29.5698 6.16823 29.3721L5.96676 29.3317ZM8.55109 14.858L5.96636 29.3339L6.16864 29.37L8.75337 14.8941L8.55109 14.858ZM0.717497 16.4148L8.6705 14.9772L8.63395 14.775L0.680945 16.2126L0.717497 16.4148ZM0.179313 16.2378C0.245524 16.3038 0.337746 16.3475 0.426762 16.3748C0.517229 16.4025 0.614371 16.4165 0.699221 16.4165V16.211C0.634953 16.211 0.558123 16.2001 0.487044 16.1783C0.414515 16.1561 0.357618 16.1254 0.324417 16.0923L0.179313 16.2378ZM6.2692e-06 15.7188C6.2692e-06 15.8917 0.0580659 16.06 0.16645 16.2221L0.33728 16.1079C0.246839 15.9726 0.205486 15.8434 0.205486 15.7188H6.2692e-06ZM1.98913 0.535561L0.000877497 15.7055L0.204615 15.7322L2.19287 0.562264L1.98913 0.535561ZM2.58806 -1.56921e-06C2.28024 -1.56921e-06 2.04741 0.243746 1.99026 0.528712L2.19173 0.569113C2.234 0.358329 2.39881 0.205478 2.58806 0.205478V-1.56921e-06ZM10.2428 -1.56921e-06H2.58806V0.205478H10.2428V-1.56921e-06ZM10.7259 0.243944C10.6021 0.0588024 10.4155 -1.56921e-06 10.2428 -1.56921e-06V0.205478C10.3684 0.205478 10.48 0.245824 10.5551 0.358132L10.7259 0.243944ZM10.7876 0.779779C10.8449 0.608513 10.847 0.425101 10.7259 0.243944L10.5551 0.358132C10.6328 0.474424 10.6349 0.588461 10.5927 0.714645L10.7876 0.779779ZM7.15799 10.5987L10.7865 0.782835L10.5938 0.711589L6.96526 10.5274L7.15799 10.5987ZM14.7817 7.7395L7.02754 10.4661L7.09571 10.66L14.8499 7.93335L14.7817 7.7395ZM8.0078 24.7098L9.84694 14.299L9.64459 14.2633L7.80546 24.674L8.0078 24.7098ZM14.0245 9.08729L7.81121 24.6538L8.00205 24.73L14.2153 9.16346L14.0245 9.08729ZM6.44916 11.8995L14.1536 9.22242L14.0862 9.02832L6.38172 11.7054L6.44916 11.8995ZM5.84583 11.776C6.0146 11.9443 6.26718 12.0244 6.47233 11.888L6.35856 11.7169C6.26547 11.7788 6.12039 11.7596 5.99093 11.6305L5.84583 11.776ZM5.71931 11.1825C5.66319 11.4064 5.71459 11.6451 5.84583 11.776L5.99093 11.6305C5.92335 11.5631 5.87534 11.4052 5.91862 11.2325L5.71931 11.1825ZM9.45054 1.0587L5.72257 11.172L5.91537 11.2431L9.64334 1.12977L9.45054 1.0587ZM3.03542 1.19698H9.54694V0.991497H3.03542V1.19698ZM1.2484 15.1376L3.13724 1.10794L2.9336 1.08053L1.04476 15.1102L1.2484 15.1376ZM9.13112 13.5851L1.12841 15.0228L1.16474 15.2251L9.16745 13.7874L9.13112 13.5851ZM9.2487 13.5835H9.14929V13.789H9.2487V13.5835ZM9.6692 13.7622C9.61341 13.7066 9.55356 13.6608 9.48295 13.6295C9.4119 13.598 9.33521 13.5835 9.2487 13.5835V13.789C9.31131 13.789 9.35889 13.7993 9.39968 13.8174C9.4409 13.8356 9.48046 13.8642 9.52409 13.9077L9.6692 13.7622ZM9.8432 14.3137C9.90587 14.1262 9.84572 13.8772 9.65353 13.7494L9.53976 13.9205C9.6458 13.9911 9.68507 14.1386 9.64832 14.2486L9.8432 14.3137Z" fill="white"/>
</svg>
