<svg width="26" height="34" viewBox="0 0 26 34" fill="none" xmlns="http://www.w3.org/2000/svg">
<path d="M23.4841 14.478L14.019 0.526205C13.9096 0.364866 13.7589 0.232108 13.5808 0.140152C13.4027 0.0481966 13.203 0 13 0C12.797 0 12.5973 0.0481966 12.4192 0.140152C12.2411 0.232108 12.0904 0.364866 11.981 0.526205L2.51564 14.4782C0.874686 16.5789 -0.00722504 19.1219 4.45842e-05 21.7317C4.45842e-05 28.4964 5.83172 34 13 34C20.1683 34 26 28.4965 26 21.7317C26.0073 19.1218 25.1253 16.5788 23.4841 14.478ZM13 31.7162C7.16628 31.7162 2.42005 27.2372 2.42005 21.7317C2.41386 19.5973 3.13857 17.5181 4.4862 15.804C4.50229 15.7834 4.51761 15.7624 4.53218 15.7409L13 3.2597L21.4675 15.7409C21.482 15.7625 21.4974 15.7835 21.5135 15.804C22.8612 17.5181 23.5861 19.5973 23.58 21.7317C23.58 27.2372 18.8337 31.7162 13 31.7162Z" fill="#7A40F2"/>
</svg>
