<svg width="14" height="19" viewBox="0 0 14 19" fill="none" xmlns="http://www.w3.org/2000/svg">
<path d="M6.56363 0.833338C6.66455 0.679331 6.8887 0.680569 6.98972 0.834511C7.73372 1.96829 10.2356 5.78252 11.5114 7.74753C12.3371 9.01908 12.8489 10.4009 12.8213 11.9865C12.7561 15.7311 9.77098 18.2852 6.98361 18.2816C5.124 18.279 3.56469 17.66 2.30722 16.2038C0.537644 14.1546 0.209718 11.1856 1.50735 8.70241C1.99387 7.77132 2.60726 6.91698 3.17384 6.03552C4.09542 4.60231 5.93905 1.78648 6.56363 0.833338Z" stroke="#9897AD" stroke-width="1.4"/>
<path fill-rule="evenodd" clip-rule="evenodd" d="M4.1226 9.88277C3.69012 10.7919 3.37547 11.5701 3.57784 12.6112C3.67545 13.1134 3.92243 13.5708 4.29221 13.9341C4.4659 14.1048 4.46079 14.381 4.28081 14.5508C4.21455 14.6132 4.13384 14.6527 4.04975 14.669C3.90491 14.6972 3.74997 14.6572 3.64023 14.5492C3.14685 14.0645 2.81724 13.4541 2.68706 12.7844C2.43613 11.4935 2.81599 10.5466 3.29967 9.52992C3.40459 9.30973 3.67361 9.20988 3.90077 9.30751C4.12807 9.40492 4.22734 9.66261 4.1226 9.88277Z" fill="#9897AD" stroke="#9897AD" stroke-width="0.5"/>
</svg>
