<svg width="13" height="24" viewBox="0 0 13 24" fill="none" xmlns="http://www.w3.org/2000/svg">
<path d="M11.7941 15.0027C11.6136 14.6709 11.1921 14.5449 10.8527 14.7212C10.5131 14.8975 10.3842 15.3095 10.5646 15.6412C10.9326 16.3178 11.1271 17.0838 11.1271 17.856C11.1271 19.141 10.609 20.3432 9.66811 21.2411C8.7277 22.1387 7.48416 22.6154 6.16823 22.5859C3.56004 22.5257 1.4409 20.4009 1.44439 17.8495C1.44682 16.0494 2.47339 14.4299 4.1233 13.623C4.35909 13.5078 4.50795 13.2722 4.50795 13.0146V2.79887C4.50795 2.03452 5.14428 1.41266 5.92642 1.41266H6.6449C7.42704 1.41266 8.06338 2.03452 8.06338 2.79887V12.5905C8.06338 12.9663 8.37514 13.2709 8.7596 13.2709C9.14406 13.2709 9.45582 12.9663 9.45582 12.5905V11.7756H11.1314C11.5158 11.7756 11.8276 11.471 11.8276 11.0952C11.8276 10.7194 11.5158 10.4148 11.1314 10.4148H9.45582V9.3557H10.1144C10.4989 9.3557 10.8106 9.05112 10.8106 8.67531C10.8106 8.29955 10.4989 7.99492 10.1144 7.99492H9.45582V6.93579H11.1314C11.5158 6.93579 11.8276 6.63121 11.8276 6.25541C11.8276 5.8796 11.5158 5.57502 11.1314 5.57502H9.45582V4.51594H10.1144C10.4989 4.51594 10.8106 4.21136 10.8106 3.83555C10.8106 3.45975 10.4989 3.15517 10.1144 3.15517H9.45582V2.79887C9.45582 1.28422 8.1949 0.0519354 6.64495 0.0519354H5.92647C4.37657 0.0519354 3.1156 1.28422 3.1156 2.79887V12.6107C1.21801 13.7035 0.0549499 15.6731 0.0519411 17.8478C0.047404 21.1329 2.77642 23.8688 6.13527 23.9463C6.18618 23.9475 6.23671 23.9481 6.28748 23.9481C7.92536 23.948 9.46643 23.3357 10.641 22.2146C11.8524 21.0585 12.5195 19.5105 12.5195 17.856C12.5195 16.8619 12.2687 15.8752 11.7941 15.0027Z" fill="#242424" stroke="#242424" stroke-width="0.1"/>
</svg>
