<svg width="51" height="53" viewBox="0 0 51 53" fill="none" xmlns="http://www.w3.org/2000/svg">
<circle cx="25.0962" cy="25.963" r="19.963" fill="#FF9060"/>
<mask id="mask0_0_203" style="mask-type:luminance" maskUnits="userSpaceOnUse" x="5" y="6" width="41" height="40">
<circle cx="25.0962" cy="25.963" r="19.963" fill="white"/>
</mask>
<g mask="url(#mask0_0_203)">
<path d="M17.5171 37.0969C17.9366 35.9223 18.5239 34.9154 19.363 33.9925C21.6284 31.3915 25.1523 29.4617 28.5923 29.5456C28.2567 32.6501 27.8372 35.8384 27.3338 38.9428C26.6626 42.9702 26.1591 46.9136 24.1455 50.5215C21.2088 49.0951 17.6849 48.8434 15 46.9136C15.5873 44.1448 16.5103 39.6979 17.5171 37.0969Z" fill="#3E64E9"/>
<path d="M21.3766 33.4891C23.5581 30.8042 26.9982 28.7066 30.4382 29.2939C34.2978 29.8812 37.6539 32.65 39.8354 35.9223C42.0169 39.1945 43.2754 43.0541 44.2822 46.8297C45.373 50.8571 46.4637 54.7166 46.8832 58.8279C47.3028 63.023 47.4706 67.2182 47.6384 71.4134C47.6384 71.749 47.6384 72.0846 47.4706 72.4202C47.135 73.0075 46.2959 73.1753 45.6247 73.1753C42.5203 73.3432 39.4998 73.2592 36.3114 73.2592C34.046 73.1753 31.6967 73.0075 29.4314 72.7558C27.9211 72.588 25.1523 72.7558 24.7328 70.91C23.4742 65.4562 22.2996 60.0864 21.041 54.6327C20.202 50.8571 19.363 47.1653 18.9434 43.3897C18.6917 41.0404 18.6078 38.3555 19.6986 36.0901C20.1181 35.1671 20.7054 34.2442 21.3766 33.4891Z" fill="#424BFF"/>
<path d="M25.9913 36.5096C28.2567 36.0901 29.767 33.9086 29.1796 31.6432L27.166 22.3299L19.7825 23.6724L21.2088 33.0696C21.6283 35.3349 23.7259 36.9291 25.9913 36.5096Z" fill="#FBE1D9"/>
<path d="M22.803 28.7066C23.642 28.8744 24.565 28.6227 25.3201 27.9515C26.0752 27.2802 26.5786 26.4412 27.166 25.6861C28.4245 23.6724 29.767 21.5748 29.6831 19.2255C29.5992 17.5474 28.4245 16.1211 26.9982 15.2821C25.6557 14.443 23.5581 13.4362 22.1318 14.3591C21.4605 14.7786 20.9571 15.4499 20.5376 16.1211C19.0273 18.7221 18.44 21.8265 18.8595 24.7631C19.1951 26.7768 20.7054 28.371 22.803 28.7066Z" fill="#FFE0D7"/>
<path fill-rule="evenodd" clip-rule="evenodd" d="M25.8235 13.7718C27.7533 14.1074 29.8509 15.1142 30.5221 17.044C31.1094 18.6382 31.1094 20.4002 30.4382 21.7426C30.1865 22.3299 29.8509 23.0012 29.5153 23.5885C29.3922 23.8039 29.2691 24.0164 29.1471 24.2272C28.6035 25.1659 28.0805 26.0692 27.6694 27.0285C27.2499 28.0354 26.6626 28.9583 25.8235 29.5456C24.3972 30.5525 22.0479 30.6364 20.4537 29.9651C18.3561 29.0422 17.7688 26.8607 17.7688 24.847C17.7688 22.6655 19.7825 22.246 21.6284 22.7495C22.9708 23.169 23.8937 24.008 24.6489 25.0987C24.6908 25.0987 24.7118 25.0778 24.7328 25.0568C24.7538 25.0358 24.7747 25.0148 24.8167 25.0148C25.8235 24.1758 26.4947 23.0851 26.9982 21.9943C27.013 21.9588 27.0278 21.9233 27.0426 21.888C27.4462 20.9222 27.8194 20.029 27.3338 19.0577C26.9982 18.2187 26.1591 17.7992 25.3201 17.5474C25.1607 17.4971 25.0046 17.4468 24.8512 17.3973C23.47 16.9517 22.2996 16.5742 20.7893 16.8762C20.2859 17.044 19.7825 17.1279 19.363 17.044C18.7756 16.9601 18.3561 16.4567 18.2722 15.8694C18.1044 15.366 18.2722 14.7786 18.6078 14.2752C19.1113 13.5201 19.9503 13.0167 20.8732 13.0167C21.4852 12.9487 22.042 13.1011 22.5884 13.2506C22.7162 13.2856 22.8435 13.3205 22.9708 13.3523C23.5209 13.5023 24.1007 13.5629 24.6749 13.6229C25.0641 13.6636 25.4506 13.704 25.8235 13.7718ZM19.0273 23.8402C18.1883 24.6792 20.8732 26.1056 21.3766 26.1895C22.2157 26.3573 23.1386 26.1056 23.9776 25.6022C23.3903 24.847 22.7191 24.0919 21.7962 23.7563C20.9571 23.4207 19.6986 23.169 19.0273 23.8402Z" fill="#3D2A21"/>
<path d="M25.7397 22.7495C25.5719 23.3368 25.9914 24.008 26.5787 24.1758C27.166 24.3436 27.8373 23.9241 28.0051 23.3368C28.1729 22.7495 27.7534 22.0782 27.166 21.9104C26.4948 21.7426 25.8236 22.1621 25.7397 22.7495Z" fill="#FBE1D9"/>
<path d="M22.6352 24.7631C22.6352 24.7631 22.0479 25.3505 21.125 25.0987C20.1181 24.847 19.9503 24.1758 19.9503 24.1758" stroke="#110809" stroke-width="0.5"/>
</g>
</svg>
