<svg width="44" height="44" viewBox="0 0 44 44" fill="none" xmlns="http://www.w3.org/2000/svg">
<path fill-rule="evenodd" clip-rule="evenodd" d="M13.3628 18.8764H29.8623C30.0655 18.8764 30.2251 18.7167 30.2251 18.5136V9.75589C30.2251 8.79088 29.4342 8 28.4692 8H14.7559C13.7909 8 13 8.79088 13 9.75589V18.5136C13 18.7167 13.1596 18.8764 13.3628 18.8764ZM29.4995 18.1508H13.7256V9.75589C13.7256 9.18994 14.1899 8.72557 14.7559 8.72557H28.4692C29.0352 8.72557 29.4995 9.18994 29.4995 9.75589V18.1508Z" fill="white"/>
<path d="M13.7256 18.1508H13.3782V18.4981H13.7256V18.1508ZM29.4995 18.1508V18.4981H29.8469V18.1508H29.4995ZM29.8623 18.529H13.3628V19.2237H29.8623V18.529ZM29.8778 18.5136C29.8778 18.5185 29.8769 18.5212 29.8764 18.5224C29.8758 18.5237 29.8751 18.5247 29.8743 18.5255C29.8735 18.5263 29.8725 18.527 29.8711 18.5276C29.8699 18.5281 29.8673 18.529 29.8623 18.529V19.2237C30.2573 19.2237 30.5725 18.9086 30.5725 18.5136H29.8778ZM29.8778 9.75589V18.5136H30.5725V9.75589H29.8778ZM28.4692 8.34737C29.2424 8.34737 29.8778 8.98272 29.8778 9.75589H30.5725C30.5725 8.59903 29.6261 7.65263 28.4692 7.65263V8.34737ZM14.7559 8.34737H28.4692V7.65263H14.7559V8.34737ZM13.3474 9.75589C13.3474 8.98272 13.9827 8.34737 14.7559 8.34737V7.65263C13.599 7.65263 12.6526 8.59903 12.6526 9.75589H13.3474ZM13.3474 18.5136V9.75589H12.6526V18.5136H13.3474ZM13.3628 18.529C13.3579 18.529 13.3552 18.5281 13.354 18.5276C13.3526 18.527 13.3516 18.5263 13.3508 18.5255C13.3501 18.5247 13.3493 18.5237 13.3488 18.5224C13.3483 18.5212 13.3474 18.5185 13.3474 18.5136H12.6526C12.6526 18.9086 12.9678 19.2237 13.3628 19.2237V18.529ZM13.7256 18.4981H29.4995V17.8034H13.7256V18.4981ZM13.3782 9.75589V18.1508H14.0729V9.75589H13.3782ZM14.7559 8.37821C13.9981 8.37821 13.3782 8.99809 13.3782 9.75589H14.0729C14.0729 9.38179 14.3818 9.07294 14.7559 9.07294V8.37821ZM28.4692 8.37821H14.7559V9.07294H28.4692V8.37821ZM29.8469 9.75589C29.8469 8.99809 29.227 8.37821 28.4692 8.37821V9.07294C28.8433 9.07294 29.1522 9.38179 29.1522 9.75589H29.8469ZM29.8469 18.1508V9.75589H29.1522V18.1508H29.8469Z" fill="white"/>
<path fill-rule="evenodd" clip-rule="evenodd" d="M13.3628 18H29.8623C30.0655 18 30.2251 18.1596 30.2251 18.3628V33.8683C30.2251 34.8333 29.4342 35.6242 28.4692 35.6242H14.7559C13.7909 35.6242 13 34.8333 13 33.8683V18.3628C13 18.1596 13.1596 18 13.3628 18ZM29.4995 18.7256H13.7256V33.8683C13.7256 34.4343 14.1899 34.8986 14.7559 34.8986H28.4692C29.0352 34.8986 29.4995 34.4343 29.4995 33.8683V18.7256Z" fill="white"/>
<path d="M13.7256 18.7256H13.3782V18.3782H13.7256V18.7256ZM29.4995 18.7256V18.3782H29.8469V18.7256H29.4995ZM29.8623 18.3474H13.3628V17.6526H29.8623V18.3474ZM29.8778 18.3628C29.8778 18.3579 29.8769 18.3552 29.8764 18.354C29.8758 18.3526 29.8751 18.3516 29.8743 18.3508C29.8735 18.3501 29.8725 18.3493 29.8711 18.3488C29.8699 18.3483 29.8673 18.3474 29.8623 18.3474V17.6526C30.2573 17.6526 30.5725 17.9678 30.5725 18.3628H29.8778ZM29.8778 33.8683V18.3628H30.5725V33.8683H29.8778ZM28.4692 35.2768C29.2424 35.2768 29.8778 34.6415 29.8778 33.8683H30.5725C30.5725 35.0252 29.6261 35.9716 28.4692 35.9716V35.2768ZM14.7559 35.2768H28.4692V35.9716H14.7559V35.2768ZM13.3474 33.8683C13.3474 34.6415 13.9827 35.2768 14.7559 35.2768V35.9716C13.599 35.9716 12.6526 35.0252 12.6526 33.8683H13.3474ZM13.3474 18.3628V33.8683H12.6526V18.3628H13.3474ZM13.3628 18.3474C13.3579 18.3474 13.3552 18.3483 13.354 18.3488C13.3526 18.3493 13.3516 18.3501 13.3508 18.3508C13.3501 18.3516 13.3493 18.3526 13.3488 18.354C13.3483 18.3552 13.3474 18.3579 13.3474 18.3628H12.6526C12.6526 17.9678 12.9678 17.6526 13.3628 17.6526V18.3474ZM13.7256 18.3782H29.4995V19.0729H13.7256V18.3782ZM13.3782 33.8683V18.7256H14.0729V33.8683H13.3782ZM14.7559 35.246C13.9981 35.246 13.3782 34.6261 13.3782 33.8683H14.0729C14.0729 34.2424 14.3818 34.5512 14.7559 34.5512V35.246ZM28.4692 35.246H14.7559V34.5512H28.4692V35.246ZM29.8469 33.8683C29.8469 34.6261 29.227 35.246 28.4692 35.246V34.5512C28.8433 34.5512 29.1522 34.2424 29.1522 33.8683H29.8469ZM29.8469 18.7256V33.8683H29.1522V18.7256H29.8469Z" fill="white"/>
<path d="M16.6713 15.8073H16.4682C15.9675 15.8073 15.5612 15.4009 15.5612 14.9003V12.7678C15.5612 12.2671 15.9675 11.8608 16.4682 11.8608H16.6713C17.172 11.8608 17.5783 12.2671 17.5783 12.7678V14.9003C17.5783 15.4009 17.172 15.8073 16.6713 15.8073Z" fill="white"/>
<path d="M16.6713 26.4158H16.4682C15.9675 26.4158 15.5612 26.0095 15.5612 25.5089V21.9905C15.5612 21.4898 15.9675 21.0835 16.4682 21.0835H16.6713C17.172 21.0835 17.5783 21.4898 17.5783 21.9905V25.5089C17.5783 26.0095 17.172 26.4158 16.6713 26.4158Z" fill="white"/>
</svg>
