<svg width="44" height="44" viewBox="0 0 44 44" fill="none" xmlns="http://www.w3.org/2000/svg">
<path fill-rule="evenodd" clip-rule="evenodd" d="M29.3207 15.5275C29.5142 15.4792 29.7078 15.5275 29.8529 15.6722C29.998 15.817 30.0464 16.01 29.9497 16.2512L21.7249 36.7105C21.6765 36.9035 21.483 37 21.2895 37H21.1444C20.9025 36.9517 20.7573 36.7105 20.8057 36.4692L23.3215 22.3794L15.5806 23.7787C15.4354 23.7787 15.2419 23.7304 15.1451 23.6339C15.0484 23.4892 15 23.3444 15 23.1997L16.9352 8.43428C16.9836 8.19301 17.1771 8 17.419 8H24.8697C25.0148 8 25.16 8.04825 25.2567 8.19301C25.3535 8.33777 25.3535 8.48253 25.3051 8.62729L21.7733 18.1814L29.3207 15.5275ZM24.3859 21.8003L22.5958 31.9334L28.6434 16.782L21.1444 19.3877C20.9992 19.4842 20.8057 19.4359 20.6606 19.2912C20.5638 19.1947 20.5154 19.0017 20.5638 18.8087L24.1923 8.96506H17.8545L16.016 22.6206L23.8053 21.2213H23.9021C24.0472 21.2213 24.144 21.2696 24.2407 21.3661C24.3859 21.4626 24.4343 21.6556 24.3859 21.8003Z" fill="white"/>
<path d="M29.3207 15.5275L29.2964 15.43L29.2875 15.4331L29.3207 15.5275ZM29.9497 16.2512L30.0424 16.2885L30.0425 16.2885L29.9497 16.2512ZM21.7249 36.7105L21.6313 36.6728L21.6279 36.6862L21.7249 36.7105ZM21.1444 37L21.1248 37.0981L21.1345 37.1H21.1444V37ZM20.8057 36.4692L20.9038 36.4889L20.9041 36.4868L20.8057 36.4692ZM23.3215 22.3794L23.4199 22.3969L23.4452 22.2554L23.3037 22.281L23.3215 22.3794ZM15.5806 23.7787V23.8787H15.5895L15.5984 23.8771L15.5806 23.7787ZM15.1451 23.6339L15.062 23.6895L15.0675 23.6978L15.0745 23.7047L15.1451 23.6339ZM15 23.1997L14.9 23.1866V23.1997H15ZM16.9352 8.43428L16.837 8.41457L16.8361 8.42128L16.9352 8.43428ZM25.3051 8.62729L25.3989 8.66198L25.3999 8.65899L25.3051 8.62729ZM21.7733 18.1814L21.6795 18.1467L21.6057 18.3463L21.8065 18.2757L21.7733 18.1814ZM22.5958 31.9334L22.4973 31.916L22.6887 31.9705L22.5958 31.9334ZM24.3859 21.8003L24.291 21.7686L24.2887 21.7757L24.2874 21.7829L24.3859 21.8003ZM28.6434 16.782L28.7363 16.8191L28.8174 16.6157L28.6106 16.6876L28.6434 16.782ZM21.1444 19.3877L21.1115 19.2932L21.0996 19.2974L21.089 19.3044L21.1444 19.3877ZM20.6606 19.2912L20.5899 19.362L20.5899 19.362L20.6606 19.2912ZM20.5638 18.8087L20.4694 18.7739L20.4668 18.7843L20.5638 18.8087ZM24.1923 8.96506L24.2862 8.99965L24.3358 8.86506H24.1923V8.96506ZM17.8545 8.96506V8.86506H17.767L17.7554 8.95172L17.8545 8.96506ZM16.016 22.6206L15.9169 22.6073L15.8986 22.7433L16.0337 22.7191L16.016 22.6206ZM23.8053 21.2213V21.1213H23.7964L23.7876 21.1229L23.8053 21.2213ZM24.2407 21.3661L24.1701 21.4369L24.1771 21.4438L24.1854 21.4493L24.2407 21.3661ZM29.9235 15.6014C29.7525 15.4308 29.5226 15.3741 29.2965 15.4304L29.3449 15.6245C29.5059 15.5843 29.663 15.6241 29.7823 15.743L29.9235 15.6014ZM30.0425 16.2885C30.0965 16.1538 30.1126 16.0258 30.0903 15.9071C30.0679 15.788 30.0083 15.686 29.9235 15.6014L29.7823 15.743C29.8426 15.8032 29.8798 15.8701 29.8937 15.944C29.9077 16.0183 29.8996 16.1074 29.8568 16.214L30.0425 16.2885ZM21.8177 36.7478L30.0424 16.2885L29.8569 16.2139L21.6321 36.6732L21.8177 36.7478ZM21.2895 37.1C21.5086 37.1 21.7581 36.9893 21.8219 36.7348L21.6279 36.6862C21.595 36.8177 21.4574 36.9 21.2895 36.9V37.1ZM21.1444 37.1H21.2895V36.9H21.1444V37.1ZM20.7076 36.4496C20.6495 36.7397 20.8235 37.038 21.1248 37.0981L21.1639 36.9019C20.9814 36.8655 20.8652 36.6812 20.9037 36.4889L20.7076 36.4496ZM23.2231 22.3618L20.7072 36.4516L20.9041 36.4868L23.4199 22.3969L23.2231 22.3618ZM15.5984 23.8771L23.3393 22.4778L23.3037 22.281L15.5628 23.6803L15.5984 23.8771ZM15.0745 23.7047C15.139 23.769 15.2287 23.8115 15.3154 23.8381C15.4034 23.8651 15.498 23.8787 15.5806 23.8787V23.6787C15.518 23.6787 15.4432 23.6681 15.3741 23.6469C15.3035 23.6252 15.2481 23.5954 15.2158 23.5631L15.0745 23.7047ZM14.9 23.1997C14.9 23.3679 14.9565 23.5317 15.062 23.6895L15.2283 23.5784C15.1403 23.4467 15.1 23.3209 15.1 23.1997H14.9ZM16.8361 8.42128L14.9008 23.1867L15.0992 23.2127L17.0344 8.44727L16.8361 8.42128ZM17.419 7.9C17.1194 7.9 16.8928 8.13725 16.8372 8.41461L17.0333 8.45394C17.0744 8.24878 17.2348 8.1 17.419 8.1V7.9ZM24.8697 7.9H17.419V8.1H24.8697V7.9ZM25.3399 8.13744C25.2194 7.95724 25.0378 7.9 24.8697 7.9V8.1C24.9919 8.1 25.1005 8.13927 25.1736 8.24858L25.3399 8.13744ZM25.3999 8.65899C25.4557 8.49229 25.4577 8.31377 25.3399 8.13744L25.1736 8.24858C25.2492 8.36177 25.2513 8.47277 25.2103 8.59559L25.3999 8.65899ZM21.8671 18.216L25.3989 8.66196L25.2113 8.59261L21.6795 18.1467L21.8671 18.216ZM29.2875 15.4331L21.7401 18.087L21.8065 18.2757L29.3539 15.6218L29.2875 15.4331ZM22.6943 31.9508L24.4843 21.8177L24.2874 21.7829L22.4973 31.916L22.6943 31.9508ZM28.5505 16.745L22.5029 31.8964L22.6887 31.9705L28.7363 16.8191L28.5505 16.745ZM21.1772 19.4821L28.6762 16.8765L28.6106 16.6876L21.1115 19.2932L21.1772 19.4821ZM20.5899 19.362C20.7542 19.5258 21.0001 19.6037 21.1997 19.471L21.089 19.3044C20.9984 19.3647 20.8572 19.3461 20.7312 19.2204L20.5899 19.362ZM20.4668 18.7843C20.4122 19.0023 20.4622 19.2346 20.5899 19.362L20.7312 19.2204C20.6654 19.1548 20.6187 19.001 20.6608 18.833L20.4668 18.7843ZM24.0985 8.93047L20.47 18.7741L20.6576 18.8432L24.2862 8.99965L24.0985 8.93047ZM17.8545 9.06506H24.1923V8.86506H17.8545V9.06506ZM16.1151 22.634L17.9536 8.9784L17.7554 8.95172L15.9169 22.6073L16.1151 22.634ZM23.7876 21.1229L15.9983 22.5222L16.0337 22.7191L23.823 21.3197L23.7876 21.1229ZM23.9021 21.1213H23.8053V21.3213H23.9021V21.1213ZM24.3113 21.2953C24.257 21.2411 24.1988 21.1965 24.1301 21.1661C24.0609 21.1354 23.9863 21.1213 23.9021 21.1213V21.3213C23.963 21.3213 24.0093 21.3313 24.049 21.3489C24.0891 21.3667 24.1276 21.3945 24.1701 21.4369L24.3113 21.2953ZM24.4807 21.832C24.5417 21.6495 24.4832 21.4072 24.2961 21.2828L24.1854 21.4493C24.2886 21.518 24.3268 21.6616 24.291 21.7686L24.4807 21.832Z" fill="white"/>
</svg>
