<svg width="51" height="53" viewBox="0 0 51 53" fill="none" xmlns="http://www.w3.org/2000/svg">
<circle cx="25.0962" cy="25.963" r="19.963" fill="#FF9060"/>
<mask id="mask0_0_223" style="mask-type:luminance" maskUnits="userSpaceOnUse" x="5" y="6" width="41" height="40">
<circle cx="25.0962" cy="25.963" r="19.963" fill="white"/>
</mask>
<g mask="url(#mask0_0_223)">
<path d="M27.0053 21.9969C26.7981 22.722 26.2802 23.6544 26.4356 24.4313C26.4356 24.5349 26.4874 24.5867 26.5392 24.6385C26.6428 24.7421 26.7981 24.7421 26.9535 24.6903C28.6111 24.276 29.647 22.2041 30.3204 20.7537C30.5275 20.2358 30.7347 19.7696 30.8383 19.1998C31.0455 17.8013 30.3204 16.2992 29.129 15.6258C28.6628 15.3668 28.0413 15.1596 27.5233 15.2632C26.9017 15.3668 26.1248 15.8848 26.0212 16.5064C25.8658 17.2833 26.591 17.5423 26.9017 18.1121C27.2125 18.6819 27.3161 19.407 27.3161 20.0286C27.3161 20.6501 27.2643 21.2717 27.1089 21.8415C27.0053 21.8933 27.0053 21.9451 27.0053 21.9969Z" fill="#110809"/>
<path d="M22.1363 30.2844C22.1363 29.7146 22.0846 29.1967 21.8774 28.6787C21.8256 28.5751 21.7738 28.4715 21.722 28.4197C21.5666 28.3161 21.3594 28.3679 21.204 28.4197C18.9249 29.3003 16.9048 30.388 15.0401 31.9419C13.4862 33.2368 11.7769 35.0497 11.3625 37.1216C11.1035 38.4166 11.1035 39.7115 11.4143 41.0064C11.6733 42.2496 12.2431 43.3891 12.8128 44.4768C13.2272 45.2538 13.6934 45.979 14.2632 46.6523C14.6775 47.1185 16.5422 49.553 17.2156 50.0709C17.4746 49.8638 17.9408 49.3458 18.1998 49.0868C18.5623 48.7242 18.9249 48.3616 19.2357 47.9473C18.4069 46.7041 17.5264 45.5128 16.853 44.2179C16.1279 42.9229 15.5581 41.4726 15.4545 39.9187C15.3509 38.5202 16.1797 37.3806 17.112 36.5001C18.148 35.4641 19.5983 34.998 20.6342 33.8584C20.9968 33.444 21.3594 32.9779 21.6184 32.4599C21.8774 31.8383 22.1363 31.0614 22.1363 30.2844Z" fill="#FFC70E"/>
<path d="M27.0054 24.4313C26.85 25.2601 26.6946 26.0888 26.7982 26.9176C26.85 27.332 27.0054 27.7463 27.1608 28.1607C27.2644 28.3679 27.3162 28.5751 27.4198 28.7823C27.4716 28.9377 27.6788 29.2485 27.6788 29.4556C28.3004 31.3203 27.4198 33.6512 25.6587 34.6872C25.3997 34.8426 25.1407 34.9462 24.8817 34.9979C24.5192 35.0497 24.2084 34.8944 23.8976 34.739C23.8458 34.6872 23.794 34.6872 23.7422 34.6354C22.8098 34.0656 22.2401 33.185 21.9811 32.1491C21.7221 31.0096 22.0329 29.8182 22.4991 28.7823C22.6027 28.5751 22.7063 28.3161 22.8098 28.1089C23.1206 27.332 23.1206 26.5032 23.1206 25.6744C23.0688 24.8975 22.8616 24.0687 23.017 23.2918C23.1206 22.6184 23.535 22.0486 24.1048 21.6861C24.571 21.3753 25.0889 21.2717 25.6069 21.3235C26.0731 21.3753 26.6946 21.5307 26.9536 21.945C27.1608 22.2558 27.2644 22.6702 27.2644 23.0846C27.2644 23.499 27.2126 23.8615 27.1608 24.2759C27.0054 24.2241 27.0054 24.3277 27.0054 24.4313Z" fill="#FFD8CC"/>
<path d="M21.7221 17.2315C22.2919 16.7135 23.794 17.1797 24.571 17.0761C25.3997 17.0243 26.9018 16.7653 27.5234 17.4905C28.3521 18.4228 28.7147 20.0286 28.6629 21.2199C28.5593 23.5508 26.7464 25.6227 24.3638 25.6745C23.0688 25.7263 22.1365 24.8975 21.6185 23.499C21.5149 23.24 21.3077 22.4112 21.2559 22.1522C20.8933 20.6501 21.1005 17.8013 21.7221 17.2315Z" fill="#FFD8CC"/>
<path fill-rule="evenodd" clip-rule="evenodd" d="M23.0753 20.1355C23.0681 20.4116 22.883 20.6313 22.6625 20.6265C22.4418 20.6214 22.2685 20.3937 22.2757 20.1176C22.2832 19.8416 22.468 19.6219 22.6888 19.6267C22.9096 19.6317 23.0825 19.8597 23.0753 20.1355Z" fill="#172133"/>
<path fill-rule="evenodd" clip-rule="evenodd" d="M25.6008 20.1405C25.5936 20.4166 25.4088 20.6363 25.1878 20.6315C24.9673 20.6264 24.794 20.3987 24.8012 20.1226C24.8084 19.8466 24.9935 19.6268 25.2143 19.6316C25.4348 19.6367 25.608 19.8647 25.6008 20.1405Z" fill="#172133"/>
<path d="M28.1449 21.4271C28.1449 21.8415 28.4557 22.204 28.8183 22.1522C29.1808 22.1005 29.388 21.7379 29.388 21.3235C29.388 20.9091 29.0772 20.5465 28.7147 20.5983C28.3521 20.5983 28.1449 21.0127 28.1449 21.4271Z" fill="#FAD9CF"/>
<path d="M20.7897 21.4789C20.7897 21.8933 21.1005 22.2558 21.463 22.204C21.8256 22.1522 22.0328 21.7897 22.0328 21.3753C22.0328 20.9609 21.722 20.5983 21.3594 20.6501C21.0487 20.6501 20.7897 21.0127 20.7897 21.4789Z" fill="#FAD9CF"/>
<path d="M32.7548 29.6628C31.9778 28.9895 30.9419 28.6787 29.9577 28.4197C29.2844 28.2125 28.611 28.0571 27.9894 27.8499C27.7823 27.7981 27.3161 27.5392 27.1089 27.6428C26.9017 27.7464 26.9017 28.1089 26.7981 28.2643C26.4355 28.9895 25.5032 29.9736 24.778 30.3362C24.7262 30.4398 24.6226 30.4916 24.519 30.4916C24.4672 30.4916 24.4154 30.4916 24.3636 30.4398C24.3118 30.4398 24.26 30.4398 24.2082 30.4398C23.5349 30.2326 23.3795 29.4039 23.0687 28.8859C22.5507 28.0571 21.463 28.3161 20.7896 28.7823C20.0127 29.3521 19.5465 30.2844 19.2357 31.165C18.5105 33.3922 18.5623 35.6195 19.1321 37.8468C19.7537 40.2813 20.0645 42.7675 20.2717 45.2538C20.3752 46.6523 20.3753 48.0509 20.5306 49.4494C20.686 50.8479 21.722 50.2781 22.7061 50.1746C23.1723 50.1228 23.6903 50.1746 24.1564 50.1746L27.7305 50.2264C28.4556 50.2264 29.2844 50.1746 30.0095 50.2781C30.3721 50.3299 30.7865 50.4853 31.0455 50.1228C31.3045 49.7602 31.3045 48.8278 31.3563 48.4134C31.5117 46.6005 31.7188 44.7876 31.7188 42.9747C31.7706 42.1978 31.8224 41.4208 31.926 40.6439C32.185 38.6756 32.7548 36.7073 33.0656 34.7908C33.1692 34.221 33.2728 33.5994 33.3246 33.0297C33.3246 32.0455 33.5835 30.388 32.7548 29.6628Z" fill="#FFDA3B"/>
<path d="M26.7982 26.9694L28.3521 28.0053L26.4356 32.2009L24.4673 30.5434L26.7982 26.9694Z" fill="white"/>
<path d="M22.8616 27.332L21.8774 28.3161L22.5508 32.2009L24.4673 30.5434L22.8616 27.332Z" fill="white"/>
<path d="M25.2891 22.5076C25.2373 23.0255 24.6675 23.4399 23.9941 23.4399C23.3208 23.4399 22.751 23.0255 22.6992 22.5076C22.6992 22.5076 23.554 22.9219 23.9941 22.9219C24.4173 22.9219 25.2891 22.5076 25.2891 22.5076Z" fill="#D09483"/>
<path d="M35.0857 47.0149C35.1893 48.8278 34.6713 53.4378 34.1533 54.8881C34.1533 54.8881 35.5001 55.1471 36.1216 55.3025C36.3288 55.3543 36.5878 55.4061 36.795 55.4579C36.8986 55.4579 38.1417 51.4177 38.1935 51.0551C38.8151 48.8796 39.3331 46.4451 39.1259 44.1661C38.6597 39.6079 36.8986 35.2051 34.2569 31.4757C33.6872 30.647 33.0138 29.8182 32.185 29.3003C32.0296 29.1967 31.8743 29.0931 31.6671 29.0931C30.2167 28.8341 29.7506 31.2168 29.8542 32.1491C29.906 33.0297 30.3721 33.8584 30.7865 34.5318C31.8225 36.2929 32.962 37.6396 33.6354 39.5561C34.5159 41.9906 34.9821 44.3733 35.0857 47.0149Z" fill="#FFC70E"/>
<path d="M29.9578 20.5984C30.0096 20.4948 30.0096 20.3394 30.0614 20.2358C30.2686 19.4588 30.3722 18.6301 30.2686 17.8013C30.165 16.8172 29.7506 15.8848 28.9737 15.2632C28.0931 14.5381 26.9536 14.1237 25.7622 14.0719C24.1047 14.0719 22.1882 15.0042 21.5149 16.5582C21.3077 17.0243 21.2559 17.5941 21.1005 18.0603C20.9969 18.5783 20.7897 19.0962 20.4271 19.4588C20.7379 19.5624 21.0487 19.4588 21.3077 19.3034C22.2918 18.7337 23.2242 17.8531 23.8457 16.9207C24.1565 17.4905 24.5191 18.0085 24.9853 18.4747C25.0371 18.5265 25.0889 18.5783 25.1407 18.5783C25.5033 18.889 25.8658 19.1998 26.2802 19.4588C26.7982 19.8214 27.368 20.1322 27.9377 20.2876C28.2485 20.3912 28.6111 20.443 28.9219 20.5984C29.2327 20.7537 29.4916 21.0127 29.5434 21.3235C29.4916 21.1163 29.647 21.0127 29.7506 20.8055C29.8542 20.8573 29.906 20.7019 29.9578 20.5984Z" fill="#110809"/>
<path d="M29.0773 12.3108C28.4557 12.3626 27.9895 12.777 27.8341 13.3985C27.5751 14.2791 28.0931 15.1596 27.5751 15.9366C27.3162 16.351 27.7305 16.7136 28.0931 16.6618C28.6629 17.0243 29.6988 16.7136 30.2168 16.5064C30.8384 16.2474 31.4081 15.7812 31.4599 15.1078C31.5635 13.8129 30.5276 12.1554 29.0773 12.3108Z" fill="#110809"/>
</g>
</svg>
