<svg width="50" height="51" viewBox="0 0 50 51" fill="none" xmlns="http://www.w3.org/2000/svg">
<path fill-rule="evenodd" clip-rule="evenodd" d="M28.8019 34.5128C28.6922 36.4566 27.0319 38 25 38C22.9681 38 21.3078 36.4566 21.1981 34.5128H16.5426C15.1385 34.5128 14 33.4113 14 32.0513C14 30.6931 15.1375 29.5897 16.5393 29.5897C16.5377 29.5897 16.5385 24.6664 16.5385 24.6664C16.5385 21.1986 18.7748 18.1582 22.0385 16.978V16.8698C22.0385 15.2854 23.3663 14 25 14C26.6355 14 27.9615 15.2846 27.9615 16.8698V16.978C31.2251 18.1585 33.4615 21.1993 33.4615 24.6664V29.589C34.8604 29.5897 36 30.6926 36 32.0513C36 33.4099 34.8606 34.5128 33.4574 34.5128H28.8019ZM22.8951 34.5128C23.0012 35.5494 23.9031 36.359 25 36.359C26.0969 36.359 26.9988 35.5494 27.1049 34.5128H22.8951ZM18.2308 24.6664C18.2308 21.722 20.2462 19.1624 23.1191 18.3589L23.7308 18.1878V16.8698C23.7308 16.1923 24.3003 15.641 25 15.641C25.7012 15.641 26.2692 16.1913 26.2692 16.8698V18.1879L26.8809 18.3589C29.7536 19.1625 31.7692 21.7227 31.7692 24.6664V29.589C31.7692 30.4977 32.5256 31.2308 33.4607 31.2308C33.9265 31.2308 34.3077 31.5997 34.3077 32.0513C34.3077 32.5029 33.9266 32.8718 33.4574 32.8718H16.5426C16.0722 32.8718 15.6923 32.5042 15.6923 32.0513C15.6923 31.5993 16.0722 31.2308 16.5393 31.2308C17.4726 31.2308 18.2308 30.4951 18.2308 29.589V24.6664Z" fill="#242424"/>
<circle cx="31.2958" cy="19.4625" r="3.12921" fill="#7A40F2" stroke="white" stroke-width="1.08333"/>
</svg>
