<svg width="44" height="44" viewBox="0 0 44 44" fill="none" xmlns="http://www.w3.org/2000/svg">
<path fill-rule="evenodd" clip-rule="evenodd" d="M22 10C18.552 10 15.1063 11.4344 12.4767 14.3125C12.3991 14.3962 12.3678 14.5193 12.3948 14.6353C12.4217 14.7513 12.5028 14.8427 12.6074 14.8749C12.712 14.9072 12.8243 14.8754 12.9019 14.7917C17.9292 9.28933 26.0708 9.28933 31.0981 14.7917C31.1757 14.8754 31.288 14.9072 31.3926 14.8749C31.4972 14.8427 31.5783 14.7513 31.6052 14.6353C31.6322 14.5193 31.6009 14.3962 31.5233 14.3125C28.8937 11.4344 25.448 10 22 10ZM22 13.0938C19.5101 13.0938 17.0207 14.1303 15.1221 16.2083C15.0444 16.2921 15.0132 16.4151 15.0401 16.5311C15.0671 16.6472 15.1481 16.7385 15.2527 16.7708C15.3573 16.803 15.4696 16.7713 15.5472 16.6875C19.1125 12.7853 24.8875 12.7853 28.4528 16.6875C28.5304 16.7713 28.6427 16.803 28.7473 16.7708C28.8519 16.7385 28.9329 16.6472 28.9599 16.5311C28.9868 16.4151 28.9556 16.2921 28.8779 16.2083C26.9793 14.1303 24.4899 13.0938 22 13.0938ZM17.8714 18.2292C19.0094 16.9836 20.5069 16.3542 22 16.3542C23.4931 16.3542 24.9906 16.9836 26.1286 18.2292C26.2046 18.3148 26.2334 18.4385 26.2041 18.5539C26.1749 18.6692 26.092 18.7586 25.9868 18.7883C25.8816 18.818 25.77 18.7836 25.694 18.6979C23.6498 16.4605 20.3502 16.4605 18.306 18.6979C18.23 18.7836 18.1184 18.818 18.0132 18.7883C17.908 18.7586 17.8251 18.6692 17.7959 18.5539C17.7666 18.4385 17.7954 18.3148 17.8714 18.2292ZM22 18.75C21.6726 18.75 21.4048 19.0478 21.4048 19.4062C21.4048 19.6431 21.5246 19.845 21.6977 19.9583V25.1875H11.2674C10.0188 25.1875 9 26.3004 9 27.6771V30.5C9 31.8768 10.0188 33 11.2674 33H32.7326C33.9812 33 35 31.8768 35 30.5V27.6771C35 26.3004 33.9812 25.1875 32.7326 25.1875H22.3023V19.9583C22.4754 19.845 22.5952 19.6431 22.5952 19.4062C22.5952 19.0478 22.3274 18.75 22 18.75ZM34.3953 27.6771C34.3953 26.6581 33.6567 25.8542 32.7326 25.8542H11.2674C10.3433 25.8542 9.60465 26.6581 9.60465 27.6771V30.5C9.60465 31.519 10.3433 32.3333 11.2674 32.3333H32.7326C33.6567 32.3333 34.3953 31.519 34.3953 30.5V27.6771ZM13.2231 27.6667C12.5105 27.6667 11.9193 28.3137 11.9193 29.0938C11.9193 29.8739 12.5105 30.5208 13.2231 30.5208C13.9357 30.5208 14.5174 29.8739 14.5174 29.0938C14.5174 28.3137 13.9357 27.6667 13.2231 27.6667ZM13.9128 29.0938C13.9128 28.6726 13.6078 28.3438 13.2231 28.3438C12.8384 28.3438 12.5334 28.6726 12.5334 29.0938C12.5334 29.5149 12.8384 29.8542 13.2231 29.8542C13.6078 29.8542 13.9128 29.5149 13.9128 29.0938Z" fill="white"/>
<path d="M12.4767 14.3125L12.7333 14.5505L12.7351 14.5486L12.4767 14.3125ZM12.3948 14.6353L12.0539 14.7145L12.0539 14.7145L12.3948 14.6353ZM12.9019 14.7917L13.1586 15.0296L13.1603 15.0277L12.9019 14.7917ZM31.0981 14.7917L30.8397 15.0278L30.8414 15.0296L31.0981 14.7917ZM31.3926 14.8749L31.2895 14.5405L31.2895 14.5405L31.3926 14.8749ZM31.5233 14.3125L31.2649 14.5486L31.2667 14.5505L31.5233 14.3125ZM15.1221 16.2083L15.3787 16.4464L15.3805 16.4444L15.1221 16.2083ZM15.0401 16.5311L15.381 16.4519V16.4519L15.0401 16.5311ZM15.2527 16.7708L15.3559 16.4363H15.3559L15.2527 16.7708ZM15.5472 16.6875L15.804 16.9254L15.8056 16.9236L15.5472 16.6875ZM28.4528 16.6875L28.1944 16.9236L28.196 16.9254L28.4528 16.6875ZM28.9599 16.5311L28.6189 16.4519V16.4519L28.9599 16.5311ZM28.8779 16.2083L28.6195 16.4444L28.6213 16.4464L28.8779 16.2083ZM17.8714 18.2292L17.613 17.9931L17.6096 17.9968L17.8714 18.2292ZM26.1286 18.2292L26.3904 17.9968L26.387 17.9931L26.1286 18.2292ZM25.9868 18.7883L26.0819 19.1251L26.0819 19.1251L25.9868 18.7883ZM25.694 18.6979L25.9559 18.4657L25.9524 18.4618L25.694 18.6979ZM18.306 18.6979L18.0475 18.4618L18.0441 18.4657L18.306 18.6979ZM18.0132 18.7883L17.9181 19.1251H17.9181L18.0132 18.7883ZM21.6977 19.9583H22.0477V19.7691L21.8894 19.6655L21.6977 19.9583ZM21.6977 25.1875V25.5375H22.0477V25.1875H21.6977ZM22.3023 25.1875H21.9523V25.5375H22.3023V25.1875ZM22.3023 19.9583L22.1106 19.6655L21.9523 19.7691V19.9583H22.3023ZM12.7351 14.5486C15.2991 11.7424 18.6512 10.35 22 10.35V9.65C18.4527 9.65 14.9136 11.1265 12.2184 14.0764L12.7351 14.5486ZM12.7357 14.5561C12.7351 14.5534 12.7351 14.5504 12.7358 14.5479C12.7364 14.5455 12.7367 14.5469 12.7333 14.5505L12.2202 14.0745C12.0595 14.2477 12.002 14.4911 12.0539 14.7145L12.7357 14.5561ZM12.7105 14.5405C12.7234 14.5444 12.7307 14.5508 12.7338 14.5542C12.7367 14.5576 12.7363 14.5587 12.7357 14.5561L12.0539 14.7145C12.106 14.9389 12.2684 15.1367 12.5043 15.2094L12.7105 14.5405ZM12.6452 14.5538C12.6488 14.5498 12.6567 14.5436 12.6695 14.54C12.6826 14.5363 12.6973 14.5364 12.7105 14.5405L12.5043 15.2094C12.7444 15.2834 12.9946 15.2066 13.1586 15.0296L12.6452 14.5538ZM31.3565 14.5556C26.1904 8.90136 17.8096 8.90136 12.6435 14.5556L13.1603 15.0277C18.0488 9.6773 25.9512 9.6773 30.8397 15.0277L31.3565 14.5556ZM31.2895 14.5405C31.3027 14.5364 31.3174 14.5363 31.3305 14.54C31.3433 14.5436 31.3512 14.5498 31.3548 14.5538L30.8414 15.0296C31.0054 15.2066 31.2556 15.2834 31.4957 15.2094L31.2895 14.5405ZM31.2643 14.5561C31.2637 14.5587 31.2633 14.5576 31.2662 14.5542C31.2693 14.5508 31.2766 14.5444 31.2895 14.5405L31.4957 15.2094C31.7316 15.1367 31.894 14.9389 31.9461 14.7145L31.2643 14.5561ZM31.2667 14.5505C31.2633 14.5469 31.2636 14.5455 31.2642 14.5479C31.2649 14.5504 31.2649 14.5534 31.2643 14.5561L31.9461 14.7145C31.998 14.4911 31.9405 14.2477 31.7798 14.0745L31.2667 14.5505ZM22 10.35C25.3488 10.35 28.7009 11.7424 31.2649 14.5486L31.7816 14.0764C29.0864 11.1265 25.5473 9.65 22 9.65V10.35ZM15.3805 16.4444C17.2134 14.4383 19.6094 13.4437 22 13.4437V12.7438C19.4108 12.7438 16.8279 13.8224 14.8637 15.9723L15.3805 16.4444ZM15.381 16.4519C15.3804 16.4493 15.3805 16.4462 15.3811 16.4438C15.3817 16.4413 15.382 16.4427 15.3787 16.4464L14.8655 15.9703C14.7048 16.1435 14.6473 16.3869 14.6992 16.6103L15.381 16.4519ZM15.3559 16.4363C15.3687 16.4403 15.3761 16.4466 15.3791 16.4501C15.3821 16.4534 15.3816 16.4545 15.381 16.4519L14.6992 16.6103C14.7513 16.8347 14.9137 17.0325 15.1496 17.1052L15.3559 16.4363ZM15.2905 16.4496C15.2942 16.4457 15.3021 16.4395 15.3149 16.4358C15.3279 16.4322 15.3426 16.4322 15.3559 16.4363L15.1496 17.1052C15.3897 17.1793 15.64 17.1024 15.804 16.9254L15.2905 16.4496ZM28.7112 16.4514C25.0071 12.3974 18.9929 12.3974 15.2888 16.4514L15.8056 16.9236C19.2321 13.1733 24.7679 13.1733 28.1944 16.9236L28.7112 16.4514ZM28.6441 16.4363C28.6574 16.4322 28.6721 16.4322 28.6851 16.4358C28.6979 16.4395 28.7058 16.4457 28.7095 16.4496L28.196 16.9254C28.36 17.1024 28.6103 17.1793 28.8504 17.1052L28.6441 16.4363ZM28.6189 16.4519C28.6184 16.4545 28.6179 16.4534 28.6209 16.4501C28.6239 16.4466 28.6313 16.4403 28.6441 16.4363L28.8504 17.1052C29.0863 17.0325 29.2487 16.8347 29.3008 16.6103L28.6189 16.4519ZM28.6213 16.4464C28.618 16.4427 28.6183 16.4413 28.6189 16.4438C28.6195 16.4462 28.6196 16.4493 28.6189 16.4519L29.3008 16.6103C29.3527 16.3869 29.2952 16.1435 29.1345 15.9703L28.6213 16.4464ZM22 13.4437C24.3906 13.4437 26.7866 14.4383 28.6195 16.4444L29.1363 15.9723C27.1721 13.8224 24.5892 12.7438 22 12.7438V13.4437ZM22 16.0042C20.4068 16.0042 18.8161 16.6763 17.613 17.9931L18.1298 18.4652C19.2027 17.2909 20.607 16.7042 22 16.7042V16.0042ZM26.387 17.9931C25.1839 16.6763 23.5932 16.0042 22 16.0042V16.7042C23.393 16.7042 24.7973 17.2909 25.8702 18.4652L26.387 17.9931ZM26.5434 18.6399C26.5998 18.4175 26.5469 18.1732 26.3904 17.9968L25.8669 18.4615C25.8639 18.4581 25.8643 18.457 25.865 18.4596C25.8656 18.4623 25.8655 18.4653 25.8649 18.4678L26.5434 18.6399ZM26.0819 19.1251C26.3199 19.0579 26.4867 18.8635 26.5434 18.6399L25.8649 18.4678C25.8643 18.4702 25.864 18.4688 25.8673 18.4652C25.8707 18.4616 25.8785 18.4552 25.8917 18.4515L26.0819 19.1251ZM25.4322 18.9301C25.5919 19.1102 25.84 19.1934 26.0819 19.1251L25.8917 18.4515C25.9053 18.4476 25.92 18.448 25.9327 18.4519C25.9452 18.4558 25.9526 18.462 25.9559 18.4657L25.4322 18.9301ZM18.5644 18.934C20.4698 16.8485 23.5302 16.8485 25.4356 18.934L25.9524 18.4618C23.7694 16.0726 20.2306 16.0726 18.0476 18.4618L18.5644 18.934ZM17.9181 19.1251C18.16 19.1934 18.4081 19.1102 18.5678 18.9301L18.0441 18.4657C18.0474 18.462 18.0548 18.4558 18.0673 18.4519C18.08 18.448 18.0947 18.4476 18.1083 18.4515L17.9181 19.1251ZM17.4566 18.6399C17.5133 18.8635 17.6801 19.0579 17.9181 19.1251L18.1083 18.4515C18.1215 18.4552 18.1293 18.4616 18.1327 18.4652C18.136 18.4688 18.1357 18.4702 18.1351 18.4678L17.4566 18.6399ZM17.6096 17.9968C17.4531 18.1732 17.4002 18.4175 17.4566 18.6399L18.1351 18.4678C18.1345 18.4653 18.1344 18.4623 18.135 18.4596C18.1357 18.457 18.1361 18.4581 18.1331 18.4615L17.6096 17.9968ZM21.7548 19.4062C21.7548 19.2072 21.8981 19.1 22 19.1V18.4C21.4471 18.4 21.0548 18.8884 21.0548 19.4062H21.7548ZM21.8894 19.6655C21.8127 19.6153 21.7548 19.5223 21.7548 19.4062H21.0548C21.0548 19.7639 21.2364 20.0747 21.506 20.2512L21.8894 19.6655ZM22.0477 25.1875V19.9583H21.3477V25.1875H22.0477ZM11.2674 25.5375H21.6977V24.8375H11.2674V25.5375ZM9.35 27.6771C9.35 26.4627 10.2416 25.5375 11.2674 25.5375V24.8375C9.79589 24.8375 8.65 26.138 8.65 27.6771H9.35ZM9.35 30.5V27.6771H8.65V30.5H9.35ZM11.2674 32.65C10.2434 32.65 9.35 31.7164 9.35 30.5H8.65C8.65 32.0371 9.79409 33.35 11.2674 33.35V32.65ZM32.7326 32.65H11.2674V33.35H32.7326V32.65ZM34.65 30.5C34.65 31.7164 33.7566 32.65 32.7326 32.65V33.35C34.2059 33.35 35.35 32.0371 35.35 30.5H34.65ZM34.65 27.6771V30.5H35.35V27.6771H34.65ZM32.7326 25.5375C33.7584 25.5375 34.65 26.4627 34.65 27.6771H35.35C35.35 26.138 34.2041 24.8375 32.7326 24.8375V25.5375ZM22.3023 25.5375H32.7326V24.8375H22.3023V25.5375ZM21.9523 19.9583V25.1875H22.6523V19.9583H21.9523ZM22.2452 19.4062C22.2452 19.5223 22.1873 19.6153 22.1106 19.6655L22.494 20.2512C22.7636 20.0747 22.9452 19.7639 22.9452 19.4062H22.2452ZM22 19.1C22.1019 19.1 22.2452 19.2072 22.2452 19.4062H22.9452C22.9452 18.8884 22.5529 18.4 22 18.4V19.1ZM32.7326 26.2042C33.4345 26.2042 34.0453 26.8212 34.0453 27.6771H34.7453C34.7453 26.4951 33.8789 25.5042 32.7326 25.5042V26.2042ZM11.2674 26.2042H32.7326V25.5042H11.2674V26.2042ZM9.95465 27.6771C9.95465 26.8212 10.5655 26.2042 11.2674 26.2042V25.5042C10.1211 25.5042 9.25465 26.4951 9.25465 27.6771H9.95465ZM9.95465 30.5V27.6771H9.25465V30.5H9.95465ZM11.2674 31.9833C10.5679 31.9833 9.95465 31.3586 9.95465 30.5H9.25465C9.25465 31.6793 10.1186 32.6833 11.2674 32.6833V31.9833ZM32.7326 31.9833H11.2674V32.6833H32.7326V31.9833ZM34.0453 30.5C34.0453 31.3586 33.4321 31.9833 32.7326 31.9833V32.6833C33.8814 32.6833 34.7453 31.6793 34.7453 30.5H34.0453ZM34.0453 27.6771V30.5H34.7453V27.6771H34.0453ZM12.2693 29.0938C12.2693 28.4765 12.7329 28.0167 13.2231 28.0167V27.3167C12.2881 27.3167 11.5693 28.1508 11.5693 29.0938H12.2693ZM13.2231 30.1708C12.7329 30.1708 12.2693 29.711 12.2693 29.0938H11.5693C11.5693 30.0368 12.2881 30.8708 13.2231 30.8708V30.1708ZM14.1674 29.0938C14.1674 29.7144 13.7102 30.1708 13.2231 30.1708V30.8708C14.1612 30.8708 14.8674 30.0333 14.8674 29.0938H14.1674ZM13.2231 28.0167C13.7102 28.0167 14.1674 28.4731 14.1674 29.0938H14.8674C14.8674 28.1542 14.1612 27.3167 13.2231 27.3167V28.0167ZM13.2231 28.6938C13.3882 28.6938 13.5628 28.8386 13.5628 29.0938H14.2628C14.2628 28.5067 13.8273 27.9937 13.2231 27.9937V28.6938ZM12.8834 29.0938C12.8834 28.8386 13.058 28.6938 13.2231 28.6938V27.9937C12.6189 27.9937 12.1834 28.5067 12.1834 29.0938H12.8834ZM13.2231 29.5042C13.064 29.5042 12.8834 29.3554 12.8834 29.0938H12.1834C12.1834 29.6743 12.6129 30.2042 13.2231 30.2042V29.5042ZM13.5628 29.0938C13.5628 29.3554 13.3822 29.5042 13.2231 29.5042V30.2042C13.8333 30.2042 14.2628 29.6743 14.2628 29.0938H13.5628Z" fill="white"/>
</svg>
