<svg width="44" height="44" viewBox="0 0 44 44" fill="none" xmlns="http://www.w3.org/2000/svg">
<path fill-rule="evenodd" clip-rule="evenodd" d="M14.2575 18.9816H30.7571C30.9602 18.9816 31.1199 18.822 31.1199 18.6188V9.86114C31.1199 8.89613 30.329 8.10526 29.364 8.10526H15.6506C14.6856 8.10526 13.8947 8.89613 13.8947 9.86114V18.6188C13.8947 18.822 14.0544 18.9816 14.2575 18.9816ZM30.3943 18.256H14.6203V9.86114C14.6203 9.2952 15.0847 8.83083 15.6506 8.83083H29.364C29.9299 8.83083 30.3943 9.2952 30.3943 9.86114V18.256Z" fill="#7A40F2"/>
<path d="M14.6203 18.256H14.2729V18.6034H14.6203V18.256ZM30.3943 18.256V18.6034H30.7417V18.256H30.3943ZM30.7571 18.6342H14.2575V19.329H30.7571V18.6342ZM30.7725 18.6188C30.7725 18.6237 30.7716 18.6264 30.7711 18.6276C30.7705 18.629 30.7698 18.63 30.769 18.6308C30.7682 18.6315 30.7672 18.6323 30.7659 18.6328C30.7647 18.6333 30.762 18.6342 30.7571 18.6342V19.329C31.1521 19.329 31.4672 19.0138 31.4672 18.6188H30.7725ZM30.7725 9.86114V18.6188H31.4672V9.86114H30.7725ZM29.364 8.45262C30.1371 8.45262 30.7725 9.08798 30.7725 9.86114H31.4672C31.4672 8.70428 30.5208 7.75789 29.364 7.75789V8.45262ZM15.6506 8.45262H29.364V7.75789H15.6506V8.45262ZM14.2421 9.86114C14.2421 9.08798 14.8775 8.45262 15.6506 8.45262V7.75789C14.4938 7.75789 13.5474 8.70428 13.5474 9.86114H14.2421ZM14.2421 18.6188V9.86114H13.5474V18.6188H14.2421ZM14.2575 18.6342C14.2526 18.6342 14.2499 18.6333 14.2487 18.6328C14.2474 18.6323 14.2463 18.6315 14.2456 18.6308C14.2448 18.63 14.2441 18.629 14.2435 18.6276C14.243 18.6264 14.2421 18.6237 14.2421 18.6188H13.5474C13.5474 19.0138 13.8625 19.329 14.2575 19.329V18.6342ZM14.6203 18.6034H30.3943V17.9087H14.6203V18.6034ZM14.2729 9.86114V18.256H14.9677V9.86114H14.2729ZM15.6506 8.48346C14.8928 8.48346 14.2729 9.10335 14.2729 9.86114H14.9677C14.9677 9.48704 15.2765 9.1782 15.6506 9.1782V8.48346ZM29.364 8.48346H15.6506V9.1782H29.364V8.48346ZM30.7417 9.86114C30.7417 9.10335 30.1218 8.48346 29.364 8.48346V9.1782C29.7381 9.1782 30.0469 9.48704 30.0469 9.86114H30.7417ZM30.7417 18.256V9.86114H30.0469V18.256H30.7417Z" fill="#7A40F2"/>
<path fill-rule="evenodd" clip-rule="evenodd" d="M14.2575 18.5263H30.7571C30.9602 18.5263 31.1199 18.6859 31.1199 18.8891V34.3946C31.1199 35.3596 30.329 36.1505 29.364 36.1505H15.6506C14.6856 36.1505 13.8947 35.3596 13.8947 34.3946V18.8891C13.8947 18.6859 14.0544 18.5263 14.2575 18.5263ZM30.3943 19.2519H14.6203V34.3946C14.6203 34.9605 15.0847 35.4249 15.6506 35.4249H29.364C29.9299 35.4249 30.3943 34.9605 30.3943 34.3946V19.2519Z" fill="#7A40F2"/>
<path d="M14.6203 19.2519H14.2729V18.9045H14.6203V19.2519ZM30.3943 19.2519V18.9045H30.7417V19.2519H30.3943ZM30.7571 18.8737H14.2575V18.1789H30.7571V18.8737ZM30.7725 18.8891C30.7725 18.8842 30.7716 18.8815 30.7711 18.8803C30.7705 18.8789 30.7698 18.8779 30.769 18.8771C30.7682 18.8764 30.7672 18.8756 30.7659 18.8751C30.7647 18.8746 30.762 18.8737 30.7571 18.8737V18.1789C31.1521 18.1789 31.4672 18.4941 31.4672 18.8891H30.7725ZM30.7725 34.3946V18.8891H31.4672V34.3946H30.7725ZM29.364 35.8031C30.1371 35.8031 30.7725 35.1678 30.7725 34.3946H31.4672C31.4672 35.5515 30.5208 36.4979 29.364 36.4979V35.8031ZM15.6506 35.8031H29.364V36.4979H15.6506V35.8031ZM14.2421 34.3946C14.2421 35.1678 14.8775 35.8031 15.6506 35.8031V36.4979C14.4938 36.4979 13.5474 35.5515 13.5474 34.3946H14.2421ZM14.2421 18.8891V34.3946H13.5474V18.8891H14.2421ZM14.2575 18.8737C14.2526 18.8737 14.2499 18.8746 14.2487 18.8751C14.2474 18.8756 14.2463 18.8764 14.2456 18.8771C14.2448 18.8779 14.2441 18.8789 14.2435 18.8803C14.243 18.8815 14.2421 18.8842 14.2421 18.8891H13.5474C13.5474 18.4941 13.8625 18.1789 14.2575 18.1789V18.8737ZM14.6203 18.9045H30.3943V19.5992H14.6203V18.9045ZM14.2729 34.3946V19.2519H14.9677V34.3946H14.2729ZM15.6506 35.7723C14.8928 35.7723 14.2729 35.1524 14.2729 34.3946H14.9677C14.9677 34.7687 15.2765 35.0775 15.6506 35.0775V35.7723ZM29.364 35.7723H15.6506V35.0775H29.364V35.7723ZM30.7417 34.3946C30.7417 35.1524 30.1218 35.7723 29.364 35.7723V35.0775C29.7381 35.0775 30.0469 34.7687 30.0469 34.3946H30.7417ZM30.7417 19.2519V34.3946H30.0469V19.2519H30.7417Z" fill="#7A40F2"/>
<path d="M17.5661 15.9125H17.3629C16.8623 15.9125 16.456 15.5062 16.456 15.0056V12.873C16.456 12.3724 16.8623 11.9661 17.3629 11.9661H17.5661C18.0667 11.9661 18.4731 12.3724 18.4731 12.873V15.0056C18.4731 15.5062 18.0667 15.9125 17.5661 15.9125Z" fill="#7A40F2"/>
<path d="M17.5661 26.5211H17.3629C16.8623 26.5211 16.456 26.1147 16.456 25.6141V22.0957C16.456 21.5951 16.8623 21.1888 17.3629 21.1888H17.5661C18.0667 21.1888 18.4731 21.5951 18.4731 22.0957V25.6141C18.4731 26.1147 18.0667 26.5211 17.5661 26.5211Z" fill="#7A40F2"/>
</svg>
