<svg width="51" height="53" viewBox="0 0 51 53" fill="none" xmlns="http://www.w3.org/2000/svg">
<circle cx="25.0962" cy="25.963" r="19.963" fill="#FF9060"/>
<mask id="mask0_0_146" style="mask-type:luminance" maskUnits="userSpaceOnUse" x="5" y="6" width="41" height="40">
<circle cx="25.0962" cy="25.963" r="19.963" fill="white"/>
</mask>
<g mask="url(#mask0_0_146)">
<path fill-rule="evenodd" clip-rule="evenodd" d="M16.0541 41.8197C12.7603 49.4935 35.027 51.9117 35.027 45.6326C35.027 39.3535 33.6638 34.7419 26.2582 36.3075C26.2582 36.3075 19.3479 34.146 16.0541 41.8197Z" fill="#E0FF66"/>
<path fill-rule="evenodd" clip-rule="evenodd" d="M28.8416 30.0677L22.3948 30.8585L22.3353 36.5511C22.3353 36.5511 22.7051 38.0256 26.0387 38.067C29.185 38.1061 29.3944 36.4832 29.3944 36.4832L28.8416 30.0677Z" fill="#F5CDC0"/>
<path fill-rule="evenodd" clip-rule="evenodd" d="M29.0023 32.6447L28.8416 30.0677L29.0023 32.6447Z" fill="#E5B4AD"/>
<path opacity="0.140137" fill-rule="evenodd" clip-rule="evenodd" d="M22.6915 35.6471C22.4805 35.6471 22.361 35.637 22.361 35.637L22.3948 31.1618L28.8416 30.0677L29.0023 32.6447C26.8974 35.411 23.7163 35.6471 22.6915 35.6471Z" fill="#E49789"/>
<path fill-rule="evenodd" clip-rule="evenodd" d="M18.9579 22.7617C18.9579 18.6384 21.9458 15.2957 25.6317 15.2957C29.3171 15.2957 32.305 18.6384 32.305 22.7617C32.305 26.8851 29.3171 30.2276 25.6317 30.2276C21.9458 30.2276 18.9579 26.8851 18.9579 22.7617Z" fill="#7B0000"/>
<path fill-rule="evenodd" clip-rule="evenodd" d="M33.0697 26.4787C33.0697 27.1053 32.3078 27.9921 31.4334 27.7373C30.8316 27.562 30.0617 27.1053 30.0617 26.4787C30.0617 25.8524 30.9391 25.2227 31.5657 25.2227C32.5767 25.2227 33.0697 25.8524 33.0697 26.4787Z" fill="#F5CDC0"/>
<path fill-rule="evenodd" clip-rule="evenodd" d="M31.9354 26.9434C31.9365 26.8066 31.959 26.672 32.0038 26.5427C32.0513 26.4138 32.1014 26.2829 32.2446 26.1754C32.2769 26.1498 32.3354 26.1306 32.3867 26.1304C32.4139 26.133 32.4441 26.1349 32.4678 26.1438C32.4893 26.155 32.5113 26.1667 32.5315 26.1805C32.5697 26.2086 32.5891 26.2421 32.6168 26.2733C32.6528 26.3255 32.6524 26.37 32.6547 26.408C32.6554 26.5581 32.6097 26.6844 32.5519 26.809C32.5364 26.675 32.5282 26.538 32.5048 26.4262C32.4975 26.4 32.487 26.3763 32.4821 26.3761L32.4275 26.3314C32.3926 26.3098 32.386 26.3178 32.35 26.3375C32.2769 26.3843 32.2057 26.501 32.1406 26.6057C32.0766 26.7155 32.0082 26.8282 31.9354 26.9434Z" fill="#EEA08E"/>
<path fill-rule="evenodd" clip-rule="evenodd" d="M18.1024 26.4787C18.1024 27.1053 18.8644 27.9921 19.739 27.7373C20.3405 27.562 21.1105 27.1053 21.1105 26.4787C21.1105 25.8524 20.233 25.2227 19.6064 25.2227C18.5957 25.2227 18.1024 25.8524 18.1024 26.4787Z" fill="#F5CDC0"/>
<path fill-rule="evenodd" clip-rule="evenodd" d="M19.2368 26.9434C19.164 26.8282 19.0956 26.7155 19.0316 26.6057C18.9667 26.501 18.8953 26.3843 18.8225 26.3375C18.7861 26.3178 18.7796 26.3098 18.7449 26.3314L18.6901 26.3761C18.6854 26.3763 18.6747 26.4 18.6676 26.4262C18.644 26.538 18.636 26.675 18.6203 26.809C18.5625 26.6844 18.5168 26.5581 18.5177 26.408C18.5198 26.37 18.5194 26.3255 18.5554 26.2733C18.5831 26.2421 18.6025 26.2086 18.6407 26.1805C18.6608 26.1667 18.6828 26.155 18.7046 26.1438C18.7283 26.1349 18.7583 26.133 18.7854 26.1304C18.8367 26.1306 18.8953 26.1498 18.9276 26.1754C19.0707 26.2829 19.1209 26.4138 19.1684 26.5427C19.2132 26.672 19.2356 26.8066 19.2368 26.9434Z" fill="#EEA08E"/>
<path fill-rule="evenodd" clip-rule="evenodd" d="M31.5615 24.8473C31.6732 29.2216 29.6026 33.4027 26.0064 33.4947C22.4102 33.5866 19.8128 29.8524 19.7011 25.4781C19.5891 21.104 22.005 17.7458 25.6014 17.6539C29.1976 17.5619 31.4495 20.473 31.5615 24.8473Z" fill="#F5CDC0"/>
<path fill-rule="evenodd" clip-rule="evenodd" d="M32.924 16.3701C32.924 18.7837 30.9675 20.7402 28.5539 20.7402C26.1402 20.7402 24.1836 18.7837 24.1836 16.3701C24.1836 13.9566 26.1402 12 28.5539 12C30.9675 12 32.924 13.9566 32.924 16.3701Z" fill="#7B0000"/>
<path fill-rule="evenodd" clip-rule="evenodd" d="M22.6442 16.2678C22.6442 16.2678 25.0336 23.8527 31.6625 24.5184C31.6625 24.5184 33.7903 16.0858 24.8425 16.0858L22.6442 16.2678Z" fill="#7B0000"/>
<path fill-rule="evenodd" clip-rule="evenodd" d="M19.4645 25.2228C19.4645 25.2228 19.5308 24.9712 19.4947 24.2062C19.3368 20.8588 20.802 17.7146 23.1684 16.1089L24.3157 15.4769L23.6186 18.552C23.6186 18.552 24.8898 22.38 19.4645 25.2228Z" fill="#7B0000"/>
<path fill-rule="evenodd" clip-rule="evenodd" d="M23.617 25.0693C23.6112 25.3115 23.461 25.5043 23.2813 25.4998C23.1022 25.4956 22.9614 25.2956 22.9675 25.0534C22.9731 24.8112 23.1235 24.6187 23.3029 24.6229C23.4823 24.6273 23.6229 24.8271 23.617 25.0693Z" fill="#172133"/>
<path fill-rule="evenodd" clip-rule="evenodd" d="M28.2958 25.0693C28.29 25.3115 28.1396 25.5043 27.9604 25.4998C27.781 25.4956 27.6402 25.2956 27.6463 25.0534C27.6519 24.8112 27.8023 24.6187 27.9815 24.6229C28.1612 24.6273 28.3017 24.8271 28.2958 25.0693Z" fill="#172133"/>
<path fill-rule="evenodd" clip-rule="evenodd" d="M24.2757 27.3604C24.5036 27.6209 24.7364 27.8593 24.991 28.0458C25.2459 28.2287 25.523 28.3519 25.8029 28.3425C26.0835 28.3453 26.3655 28.2184 26.6347 28.0497C26.9038 27.8766 27.1556 27.6562 27.4261 27.4372C27.2875 27.756 27.0907 28.0502 26.8258 28.2947C26.6932 28.4179 26.5412 28.5229 26.3709 28.6074C26.1983 28.6857 26.0053 28.7356 25.8067 28.7405C25.6083 28.7396 25.4101 28.6939 25.2368 28.6103C25.0651 28.5229 24.9114 28.4121 24.7868 28.2786C24.5345 28.0158 24.3591 27.6993 24.2757 27.3604Z" fill="#D1746F"/>
<path fill-rule="evenodd" clip-rule="evenodd" d="M25.4314 26.5375C25.522 26.3998 25.6316 26.2918 25.7483 26.1946C25.8635 26.0958 25.9881 26.0112 26.1186 25.9365L26.1114 26.289C25.9985 26.2035 25.9158 26.1018 25.8518 25.9962C25.7888 25.8896 25.741 25.7823 25.708 25.6709C25.6394 25.4502 25.6113 25.2235 25.6377 24.9951C25.7635 25.1855 25.872 25.3696 25.987 25.5387C26.0479 25.6203 26.1003 25.7048 26.1652 25.772C26.2275 25.8404 26.2903 25.9009 26.3528 25.9412L26.6121 26.1084L26.3454 26.2939C26.2219 26.3801 26.0924 26.4567 25.9537 26.5188C25.816 26.5825 25.6715 26.6357 25.5082 26.6586C25.4651 26.6647 25.4253 26.6347 25.4192 26.5919L25.4314 26.5375Z" fill="#D1746F"/>
</g>
</svg>
