<svg width="118" height="996" viewBox="0 0 118 996" fill="none" xmlns="http://www.w3.org/2000/svg">
<path fill-rule="evenodd" clip-rule="evenodd" d="M0 30C0 13.4315 13.4315 0 30 0H88C104.569 0 118 13.4315 118 30V167.992C118 179.042 109.042 188 97.9922 188H56.5C41.3122 188 29 200.312 29 215.5C29 230.688 41.3122 243 56.5 243H97.9922C109.042 243 118 251.958 118 263.008V579V966C118 982.569 104.569 996 88 996H30C13.4315 996 0 982.569 0 966V30Z" fill="#7A40F2"/>
<mask id="mask0_0_351" style="mask-type:luminance" maskUnits="userSpaceOnUse" x="0" y="0" width="118" height="996">
<path fill-rule="evenodd" clip-rule="evenodd" d="M0 30C0 13.4315 13.4315 0 30 0H88C104.569 0 118 13.4315 118 30V167.992C118 179.042 109.042 188 97.9922 188H56.5C41.3122 188 29 200.312 29 215.5C29 230.688 41.3122 243 56.5 243H97.9922C109.042 243 118 251.958 118 263.008V579V966C118 982.569 104.569 996 88 996H30C13.4315 996 0 982.569 0 966V30Z" fill="white"/>
</mask>
<g mask="url(#mask0_0_351)">
<path fill-rule="evenodd" clip-rule="evenodd" d="M76.6566 78.2514L66.2602 67.804C62.5212 64.0653 56.4788 64.0653 52.7398 67.804L42.3434 78.2514C42.0085 78.5855 41.9079 79.0899 42.0888 79.5278C42.2697 79.9658 42.6962 80.2504 43.1681 80.2479H44.93V91.6371C44.9369 96.2529 48.6588 99.9931 53.2522 100H55.039C55.6829 99.9931 56.2012 99.4667 56.2011 98.8196V89.2261H62.7989V98.8196C62.7988 99.4667 63.3171 99.9931 63.961 100H65.7478C70.3412 99.9931 74.0631 96.2529 74.07 91.6371V80.2479H75.8319C76.3037 80.2504 76.7303 79.9658 76.9112 79.5278C77.0921 79.0899 76.9915 78.5855 76.6566 78.2514ZM54.3893 69.4615C55.744 68.0981 57.5827 67.332 59.5 67.332C61.4173 67.332 63.256 68.0981 64.6107 69.4615L73.0078 77.8998H45.9922L54.3893 69.4615ZM65.7478 97.6518C69.0507 97.6449 71.7264 94.9561 71.7333 91.6371V80.2479H47.2667V91.6371C47.2736 94.9561 49.9493 97.6449 53.2522 97.6518H53.8644V88.0458C53.8713 87.3988 54.3952 86.878 55.039 86.878H63.961C64.6048 86.878 65.1287 87.3988 65.1356 88.0458V97.6518H65.7478Z" fill="white"/>
</g>
<path d="M66.35 572.2C64.8366 572.2 63.6 573.437 63.6 574.95C63.6 576.463 64.8366 577.7 66.35 577.7C67.8634 577.7 69.1 576.463 69.1 574.95C69.1 573.437 67.8634 572.2 66.35 572.2Z" stroke="white" stroke-width="1.4"/>
<path d="M56.3895 570.649C54.2693 570.649 52.5395 572.379 52.5395 574.499C52.5395 576.619 54.2693 578.349 56.3895 578.349C58.5097 578.349 60.2395 576.619 60.2395 574.499C60.2395 572.379 58.5097 570.649 56.3895 570.649Z" stroke="white" stroke-width="1.6"/>
<path d="M70.2942 581.436C71.4819 582.262 72.1275 583.332 72.1275 584.418V587.466C72.1275 588.018 71.6798 588.466 71.1275 588.466H58.9275V584.418C58.9275 583.332 59.5732 582.262 60.7609 581.436C61.9485 580.61 63.6414 580.081 65.5275 580.081C67.4136 580.081 69.1065 580.61 70.2942 581.436Z" stroke="white" stroke-width="1.4"/>
<path d="M63.2467 582.638C64.9443 583.635 65.8672 584.928 65.8672 586.241V590.132C65.8672 590.685 65.4195 591.132 64.8672 591.132H48C47.4477 591.132 47 590.685 47 590.132V586.241C47 584.928 47.9228 583.635 49.6204 582.638C51.318 581.64 53.7377 581 56.4336 581C59.1294 581 61.5491 581.64 63.2467 582.638Z" fill="#7512FF" stroke="white" stroke-width="1.6"/>
<path fill-rule="evenodd" clip-rule="evenodd" d="M63.1073 581.641C63.1073 581.641 62.4904 581.373 61.925 581.103C61.5245 580.912 60.5013 580.696 60.5013 580.696L62.4714 579.697L64.8289 581L63.1073 581.641Z" fill="#6F5CEA"/>
<rect x="66.667" y="587.436" width="1.39757" height="2" fill="#6F5CEA"/>
<mask id="path-10-inside-1_0_351" fill="white">
<path fill-rule="evenodd" clip-rule="evenodd" d="M68.5 661.5H66.5V681.5H68.5V661.5ZM65.9881 660C65.4424 660 65 660.442 65 660.988V682.012C65 682.558 65.4424 683 65.9881 683H69.0119C69.5576 683 70 682.558 70 682.012V660.988C70 660.442 69.5576 660 69.0119 660H65.9881ZM61.0119 665.5H57.9881C57.7185 665.5 57.5 665.719 57.5 665.988V682.012C57.5 682.281 57.7185 682.5 57.9881 682.5H61.0119C61.2815 682.5 61.5 682.281 61.5 682.012V665.988C61.5 665.719 61.2815 665.5 61.0119 665.5ZM57.9881 665C57.4424 665 57 665.442 57 665.988V682.012C57 682.558 57.4424 683 57.9881 683H61.0119C61.5576 683 62 682.558 62 682.012V665.988C62 665.442 61.5576 665 61.0119 665H57.9881ZM49.9881 671.5H53.0119C53.2815 671.5 53.5 671.719 53.5 671.988V682.012C53.5 682.281 53.2815 682.5 53.0119 682.5H49.9881C49.7185 682.5 49.5 682.281 49.5 682.012V671.988C49.5 671.719 49.7185 671.5 49.9881 671.5ZM49 671.988C49 671.442 49.4424 671 49.9881 671H53.0119C53.5576 671 54 671.442 54 671.988V682.012C54 682.558 53.5576 683 53.0119 683H49.9881C49.4424 683 49 682.558 49 682.012V671.988Z"/>
</mask>
<path d="M66.5 661.5V659.8H64.8V661.5H66.5ZM68.5 661.5H70.2V659.8H68.5V661.5ZM66.5 681.5H64.8V683.2H66.5V681.5ZM68.5 681.5V683.2H70.2V681.5H68.5ZM66.5 663.2H68.5V659.8H66.5V663.2ZM68.2 681.5V661.5H64.8V681.5H68.2ZM68.5 679.8H66.5V683.2H68.5V679.8ZM66.8 661.5V681.5H70.2V661.5H66.8ZM66.7 660.988C66.7 661.381 66.3813 661.7 65.9881 661.7V658.3C64.5035 658.3 63.3 659.504 63.3 660.988H66.7ZM66.7 682.012V660.988H63.3V682.012H66.7ZM65.9881 681.3C66.3813 681.3 66.7 681.619 66.7 682.012H63.3C63.3 683.496 64.5035 684.7 65.9881 684.7V681.3ZM69.0119 681.3H65.9881V684.7H69.0119V681.3ZM68.3 682.012C68.3 681.619 68.6187 681.3 69.0119 681.3V684.7C70.4965 684.7 71.7 683.496 71.7 682.012H68.3ZM68.3 660.988V682.012H71.7V660.988H68.3ZM69.0119 661.7C68.6187 661.7 68.3 661.381 68.3 660.988H71.7C71.7 659.504 70.4965 658.3 69.0119 658.3V661.7ZM65.9881 661.7H69.0119V658.3H65.9881V661.7ZM57.9881 667.2H61.0119V663.8H57.9881V667.2ZM59.2 665.988C59.2 666.657 58.6574 667.2 57.9881 667.2V663.8C56.7797 663.8 55.8 664.78 55.8 665.988H59.2ZM59.2 682.012V665.988H55.8V682.012H59.2ZM57.9881 680.8C58.6574 680.8 59.2 681.343 59.2 682.012H55.8C55.8 683.22 56.7797 684.2 57.9881 684.2V680.8ZM61.0119 680.8H57.9881V684.2H61.0119V680.8ZM59.8 682.012C59.8 681.343 60.3426 680.8 61.0119 680.8V684.2C62.2203 684.2 63.2 683.22 63.2 682.012H59.8ZM59.8 665.988V682.012H63.2V665.988H59.8ZM61.0119 667.2C60.3426 667.2 59.8 666.657 59.8 665.988H63.2C63.2 664.78 62.2203 663.8 61.0119 663.8V667.2ZM58.7 665.988C58.7 666.381 58.3813 666.7 57.9881 666.7V663.3C56.5035 663.3 55.3 664.504 55.3 665.988H58.7ZM58.7 682.012V665.988H55.3V682.012H58.7ZM57.9881 681.3C58.3813 681.3 58.7 681.619 58.7 682.012H55.3C55.3 683.496 56.5035 684.7 57.9881 684.7V681.3ZM61.0119 681.3H57.9881V684.7H61.0119V681.3ZM60.3 682.012C60.3 681.619 60.6187 681.3 61.0119 681.3V684.7C62.4965 684.7 63.7 683.496 63.7 682.012H60.3ZM60.3 665.988V682.012H63.7V665.988H60.3ZM61.0119 666.7C60.6187 666.7 60.3 666.381 60.3 665.988H63.7C63.7 664.504 62.4965 663.3 61.0119 663.3V666.7ZM57.9881 666.7H61.0119V663.3H57.9881V666.7ZM53.0119 669.8H49.9881V673.2H53.0119V669.8ZM55.2 671.988C55.2 670.78 54.2203 669.8 53.0119 669.8V673.2C52.3426 673.2 51.8 672.657 51.8 671.988H55.2ZM55.2 682.012V671.988H51.8V682.012H55.2ZM53.0119 684.2C54.2203 684.2 55.2 683.22 55.2 682.012H51.8C51.8 681.343 52.3426 680.8 53.0119 680.8V684.2ZM49.9881 684.2H53.0119V680.8H49.9881V684.2ZM47.8 682.012C47.8 683.22 48.7797 684.2 49.9881 684.2V680.8C50.6574 680.8 51.2 681.343 51.2 682.012H47.8ZM47.8 671.988V682.012H51.2V671.988H47.8ZM49.9881 669.8C48.7797 669.8 47.8 670.78 47.8 671.988H51.2C51.2 672.657 50.6574 673.2 49.9881 673.2V669.8ZM49.9881 669.3C48.5035 669.3 47.3 670.504 47.3 671.988H50.7C50.7 672.381 50.3813 672.7 49.9881 672.7V669.3ZM53.0119 669.3H49.9881V672.7H53.0119V669.3ZM55.7 671.988C55.7 670.504 54.4965 669.3 53.0119 669.3V672.7C52.6187 672.7 52.3 672.381 52.3 671.988H55.7ZM55.7 682.012V671.988H52.3V682.012H55.7ZM53.0119 684.7C54.4965 684.7 55.7 683.496 55.7 682.012H52.3C52.3 681.619 52.6187 681.3 53.0119 681.3V684.7ZM49.9881 684.7H53.0119V681.3H49.9881V684.7ZM47.3 682.012C47.3 683.496 48.5035 684.7 49.9881 684.7V681.3C50.3813 681.3 50.7 681.619 50.7 682.012H47.3ZM47.3 671.988V682.012H50.7V671.988H47.3Z" fill="white" mask="url(#path-10-inside-1_0_351)"/>
<path d="M59.397 501.73L60.1058 501.097L60.1058 501.097L59.397 501.73ZM60.603 501.73L59.8942 501.097L59.8942 501.097L60.603 501.73ZM69 486.054H69.95V486.054L69 486.054ZM60 476.05C54.5073 476.05 50.05 480.542 50.05 486.054H51.95C51.95 481.581 55.5674 477.95 60 477.95V476.05ZM50.05 486.054C50.05 487.791 50.6095 489.66 51.3941 491.445C52.1839 493.242 53.2325 495.022 54.2785 496.597C56.3707 499.747 58.5034 502.155 58.6883 502.362L60.1058 501.097C59.9477 500.92 57.8819 498.588 55.8613 495.546C54.851 494.024 53.8646 492.344 53.1335 490.681C52.3973 489.006 51.95 487.415 51.95 486.054H50.05ZM58.6883 502.362C59.3885 503.147 60.613 503.145 61.3118 502.362L59.8942 501.097C59.95 501.035 60.0497 501.034 60.1058 501.097L58.6883 502.362ZM61.3117 502.362C61.4966 502.155 63.6293 499.747 65.7215 496.597C66.7675 495.022 67.8161 493.242 68.6059 491.445C69.3905 489.66 69.95 487.791 69.95 486.054H68.05C68.05 487.415 67.6027 489.006 66.8665 490.681C66.1354 492.344 65.149 494.024 64.1387 495.546C62.1181 498.588 60.0523 500.92 59.8942 501.097L61.3117 502.362ZM69.95 486.054C69.9499 480.542 65.4926 476.05 60 476.05V477.95C64.4325 477.95 68.0499 481.581 68.05 486.054L69.95 486.054ZM60 489.659C58.0332 489.659 56.4219 488.047 56.4219 486.054H54.5219C54.5219 489.085 56.9731 491.559 60 491.559V489.659ZM56.4219 486.054C56.4219 484.062 58.0332 482.449 60 482.449V480.549C56.9732 480.549 54.5219 483.023 54.5219 486.054H56.4219ZM60 482.449C61.9667 482.449 63.578 484.062 63.578 486.054H65.478C65.478 483.023 63.0268 480.549 60 480.549V482.449ZM63.578 486.054C63.578 488.047 61.9667 489.659 60 489.659V491.559C63.0268 491.559 65.478 489.085 65.478 486.054H63.578Z" fill="white"/>
<path fill-rule="evenodd" clip-rule="evenodd" d="M48.3176 307.315C48.7041 307.948 49.3859 308.334 50.12 308.333H58.6969V318.333H54.244C53.7838 318.333 53.4107 318.706 53.4107 319.167C53.4107 319.627 53.7838 320 54.244 320H64.7928C65.253 320 65.6261 319.627 65.6261 319.167C65.6261 318.706 65.253 318.333 64.7928 318.333H60.3399V308.333H68.9168C69.6459 308.321 70.3174 307.929 70.6945 307.296C71.0716 306.663 71.1015 305.877 70.7735 305.217L66.6658 296.809C66.122 295.699 65.0043 294.998 63.7822 295H55.2546C54.0159 294.983 52.8779 295.69 52.3299 296.817L48.2222 305.225C47.895 305.892 47.9311 306.682 48.3176 307.315ZM53.8333 297.559C54.1002 297.01 54.6518 296.664 55.2546 296.667H63.7822C64.3968 296.651 64.9643 296.999 65.2363 297.559L69.344 305.967C69.4182 306.117 69.4103 306.295 69.3232 306.438C69.2362 306.581 69.0823 306.667 68.9168 306.667H50.0871C49.9216 306.667 49.7678 306.581 49.6807 306.438C49.5936 306.295 49.5857 306.117 49.6599 305.967L53.8333 297.559Z" fill="white"/>
<path d="M50.12 308.333V308.083H50.1199L50.12 308.333ZM48.3176 307.315L48.531 307.185L48.3176 307.315ZM58.6969 308.333H58.9469V308.083H58.6969V308.333ZM58.6969 318.333V318.583H58.9469V318.333H58.6969ZM60.3399 318.333H60.0899V318.583H60.3399V318.333ZM60.3399 308.333V308.083H60.0899V308.333H60.3399ZM68.9168 308.333V308.584L68.9212 308.583L68.9168 308.333ZM70.7735 305.217L70.5489 305.327L70.5496 305.328L70.7735 305.217ZM66.6658 296.809L66.8904 296.699L66.8903 296.699L66.6658 296.809ZM63.7822 295V295.25L63.7828 295.25L63.7822 295ZM55.2546 295L55.2511 295.25H55.2546V295ZM52.3299 296.817L52.5545 296.927L52.5547 296.926L52.3299 296.817ZM48.2222 305.225L48.4466 305.335L48.4468 305.335L48.2222 305.225ZM55.2546 296.667L55.2535 296.917H55.2546V296.667ZM53.8333 297.559L54.0573 297.67L54.0581 297.668L53.8333 297.559ZM63.7822 296.667V296.917L63.7886 296.917L63.7822 296.667ZM65.2363 297.559L65.0115 297.668L65.0117 297.668L65.2363 297.559ZM69.344 305.967L69.1194 306.077L69.1199 306.078L69.344 305.967ZM68.9168 306.667L68.9175 306.417H68.9168V306.667ZM50.0871 306.667V306.417L50.0864 306.417L50.0871 306.667ZM49.6807 306.438L49.8941 306.308H49.8941L49.6807 306.438ZM49.6599 305.967L49.436 305.856L49.4358 305.856L49.6599 305.967ZM50.1199 308.083C49.4741 308.084 48.8726 307.745 48.531 307.185L48.1042 307.446C48.5355 308.152 49.2977 308.584 50.12 308.583L50.1199 308.083ZM58.6969 308.083H50.12V308.583H58.6969V308.083ZM58.9469 318.333V308.333H58.4469V318.333H58.9469ZM54.244 318.583H58.6969V318.083H54.244V318.583ZM53.6607 319.167C53.6607 318.845 53.9219 318.583 54.244 318.583V318.083C53.6457 318.083 53.1607 318.568 53.1607 319.167H53.6607ZM54.244 319.75C53.9219 319.75 53.6607 319.489 53.6607 319.167H53.1607C53.1607 319.765 53.6457 320.25 54.244 320.25V319.75ZM64.7928 319.75H54.244V320.25H64.7928V319.75ZM65.3761 319.167C65.3761 319.489 65.1149 319.75 64.7928 319.75V320.25C65.3911 320.25 65.8761 319.765 65.8761 319.167H65.3761ZM64.7928 318.583C65.115 318.583 65.3761 318.845 65.3761 319.167H65.8761C65.8761 318.568 65.3911 318.083 64.7928 318.083V318.583ZM60.3399 318.583H64.7928V318.083H60.3399V318.583ZM60.0899 308.333V318.333H60.5899V308.333H60.0899ZM68.9168 308.083H60.3399V308.583H68.9168V308.083ZM70.4797 307.168C70.1463 307.727 69.5539 308.072 68.9125 308.084L68.9212 308.583C69.7379 308.569 70.4884 308.13 70.9093 307.424L70.4797 307.168ZM70.5496 305.328C70.8398 305.913 70.8133 306.608 70.4797 307.168L70.9093 307.424C71.3299 306.718 71.3631 305.842 70.9974 305.106L70.5496 305.328ZM66.4412 296.918L70.5489 305.327L70.9981 305.107L66.8904 296.699L66.4412 296.918ZM63.7828 295.25C64.9078 295.248 65.9389 295.893 66.4413 296.919L66.8903 296.699C66.305 295.504 65.1007 294.747 63.7817 294.75L63.7828 295.25ZM55.2546 295.25H63.7822V294.75H55.2546V295.25ZM52.5547 296.926C53.061 295.885 54.1108 295.234 55.2511 295.25L55.2581 294.75C53.921 294.732 52.6948 295.495 52.1051 296.708L52.5547 296.926ZM48.4468 305.335L52.5545 296.927L52.1053 296.707L47.9976 305.115L48.4468 305.335ZM48.531 307.185C48.1891 306.625 48.1571 305.925 48.4466 305.335L47.9978 305.115C47.633 305.858 47.6731 306.74 48.1042 307.446L48.531 307.185ZM55.2557 296.417C54.5554 296.414 53.9168 296.816 53.6086 297.449L54.0581 297.668C54.2836 297.205 54.7482 296.915 55.2535 296.917L55.2557 296.417ZM63.7822 296.417H55.2546V296.917H63.7822V296.417ZM65.4612 297.449C65.147 296.803 64.4899 296.399 63.7758 296.417L63.7886 296.917C64.3037 296.904 64.7817 297.195 65.0115 297.668L65.4612 297.449ZM69.5687 305.857L65.461 297.449L65.0117 297.668L69.1194 306.077L69.5687 305.857ZM69.5366 306.568C69.6685 306.352 69.6803 306.083 69.5681 305.856L69.1199 306.078C69.1562 306.151 69.1522 306.238 69.1099 306.308L69.5366 306.568ZM68.9162 306.917C69.1701 306.918 69.4046 306.784 69.5366 306.568L69.1099 306.308C69.0677 306.377 68.9945 306.417 68.9175 306.417L68.9162 306.917ZM50.0871 306.917H68.9168V306.417H50.0871V306.917ZM49.4673 306.568C49.5993 306.784 49.8338 306.918 50.0878 306.917L50.0864 306.417C50.0095 306.417 49.9362 306.377 49.8941 306.308L49.4673 306.568ZM49.4358 305.856C49.3237 306.083 49.3355 306.352 49.4673 306.568L49.8941 306.308C49.8517 306.238 49.8478 306.151 49.884 306.078L49.4358 305.856ZM53.6094 297.447L49.436 305.856L49.8838 306.078L54.0573 297.67L53.6094 297.447Z" fill="white"/>
<path fill-rule="evenodd" clip-rule="evenodd" d="M70.4513 391.888C70.5918 398.663 70.7571 407.931 59.5218 411.824C59.3755 411.874 59.2163 411.874 59.07 411.824C47.8347 407.928 48 398.663 48.1378 391.888C48.1653 391.158 48.1653 390.455 48.1653 389.78C48.1653 389.4 48.4737 389.091 48.8541 389.091C53.0088 389.091 56.1716 387.893 58.8138 385.325C59.0813 385.064 59.5078 385.064 59.7753 385.325C62.4175 387.896 65.5803 389.091 69.735 389.091C70.1154 389.091 70.4238 389.4 70.4238 389.78C70.4238 390.416 70.436 391.069 70.4489 391.76L70.4513 391.888ZM49.5315 391.048C49.5248 391.334 49.5181 391.624 49.5181 391.921C49.3776 398.569 49.2343 406.831 59.2959 410.446C69.352 406.834 69.2033 398.572 69.0765 391.924C69.0745 391.829 69.0723 391.735 69.0701 391.641C69.0608 391.239 69.0517 390.848 69.0517 390.466C65.0816 390.35 61.9601 389.157 59.2959 386.769C56.6317 389.157 53.5102 390.345 49.5429 390.463C49.5406 390.657 49.5361 390.851 49.5315 391.048Z" fill="white"/>
<path d="M59.5218 411.824L59.4073 411.493L59.407 411.493L59.5218 411.824ZM70.4513 391.888L70.1014 391.894L70.1014 391.895L70.4513 391.888ZM59.07 411.824L59.1848 411.493L59.1847 411.493L59.07 411.824ZM48.1378 391.888L47.788 391.875L47.7878 391.881L48.1378 391.888ZM58.8138 385.325L59.0577 385.576L59.0581 385.576L58.8138 385.325ZM59.7753 385.325L59.531 385.576L59.5312 385.576L59.7753 385.325ZM70.4489 391.76L70.7989 391.753V391.753L70.4489 391.76ZM49.5181 391.921L49.8681 391.928V391.921H49.5181ZM49.5315 391.048L49.8814 391.056L49.5315 391.048ZM59.2959 410.446L59.1776 410.776L59.2959 410.818L59.4142 410.776L59.2959 410.446ZM69.0765 391.924L69.4265 391.917L69.4265 391.916L69.0765 391.924ZM69.0701 391.641L69.42 391.633L69.0701 391.641ZM69.0517 390.466H69.4017V390.126L69.0619 390.116L69.0517 390.466ZM59.2959 386.769L59.5296 386.508L59.2959 386.299L59.0623 386.508L59.2959 386.769ZM49.5429 390.463L49.5324 390.114L49.1968 390.124L49.1929 390.459L49.5429 390.463ZM59.6364 412.154C65.3516 410.174 68.1986 406.808 69.5809 403.057C70.953 399.335 70.8713 395.258 70.8013 391.88L70.1014 391.895C70.1719 395.293 70.2431 399.237 68.9241 402.815C67.6154 406.366 64.9274 409.58 59.4073 411.493L59.6364 412.154ZM58.9552 412.154C59.1759 412.231 59.416 412.231 59.6366 412.154L59.407 411.493C59.3351 411.518 59.2568 411.518 59.1848 411.493L58.9552 412.154ZM47.7878 391.881C47.7192 395.258 47.6382 399.334 49.0106 403.056C50.3933 406.807 53.2402 410.173 58.9553 412.154L59.1847 411.493C53.6645 409.579 50.9764 406.365 49.6674 402.814C48.348 399.236 48.4186 395.293 48.4877 391.895L47.7878 391.881ZM47.8153 389.78C47.8153 390.456 47.8153 391.152 47.788 391.875L48.4875 391.901C48.5153 391.163 48.5153 390.454 48.5153 389.78H47.8153ZM48.8541 388.741C48.2804 388.741 47.8153 389.206 47.8153 389.78H48.5153C48.5153 389.593 48.667 389.441 48.8541 389.441V388.741ZM58.5698 385.074C56.0014 387.57 52.9301 388.741 48.8541 388.741V389.441C53.0875 389.441 56.3419 388.215 59.0577 385.576L58.5698 385.074ZM60.0196 385.074C59.6162 384.681 58.9729 384.681 58.5695 385.074L59.0581 385.576C59.1896 385.447 59.3994 385.447 59.531 385.576L60.0196 385.074ZM69.735 388.741C65.6589 388.741 62.5877 387.573 60.0194 385.074L59.5312 385.576C62.2472 388.218 65.5018 389.441 69.735 389.441V388.741ZM70.7738 389.78C70.7738 389.206 70.3087 388.741 69.735 388.741V389.441C69.9221 389.441 70.0738 389.593 70.0738 389.78H70.7738ZM70.7989 391.753C70.7859 391.062 70.7738 390.412 70.7738 389.78H70.0738C70.0738 390.42 70.0861 391.076 70.099 391.766L70.7989 391.753ZM70.8013 391.881L70.7989 391.753L70.099 391.766L70.1014 391.894L70.8013 391.881ZM49.8681 391.921C49.8681 391.629 49.8747 391.342 49.8814 391.056L49.1816 391.04C49.1749 391.325 49.1681 391.619 49.1681 391.921H49.8681ZM59.4143 410.117C54.4796 408.344 52.0788 405.451 50.9105 402.203C49.7318 398.925 49.7975 395.264 49.868 391.928L49.1681 391.913C49.0981 395.226 49.0219 399.02 50.2518 402.439C51.4923 405.888 54.0506 408.934 59.1776 410.776L59.4143 410.117ZM68.7266 391.93C68.7902 395.266 68.8539 398.928 67.6754 402.205C66.5075 405.453 64.1093 408.345 59.1776 410.117L59.4142 410.776C64.5386 408.935 67.0941 405.89 68.3342 402.442C69.5636 399.023 69.4896 395.229 69.4265 391.917L68.7266 391.93ZM68.7202 391.649C68.7224 391.743 68.7245 391.837 68.7266 391.931L69.4265 391.916C69.4244 391.821 69.4222 391.726 69.42 391.633L68.7202 391.649ZM68.7017 390.466C68.7017 390.853 68.7109 391.248 68.7202 391.649L69.42 391.633C69.4107 391.23 69.4017 390.843 69.4017 390.466H68.7017ZM59.0623 387.029C61.7942 389.479 64.9974 390.698 69.0415 390.816L69.0619 390.116C65.1658 390.003 62.126 388.836 59.5296 386.508L59.0623 387.029ZM49.5533 390.813C53.5941 390.693 56.7974 389.479 59.5296 387.029L59.0623 386.508C56.4661 388.836 53.4263 389.997 49.5324 390.114L49.5533 390.813ZM49.8814 391.056C49.886 390.86 49.8906 390.663 49.8928 390.467L49.1929 390.459C49.1907 390.65 49.1862 390.843 49.1816 391.04L49.8814 391.056Z" fill="white"/>
<path fill-rule="evenodd" clip-rule="evenodd" d="M62.1309 400.919C62.3426 401.489 62.0529 402.122 61.4835 402.335C60.0788 402.885 58.5185 402.885 57.1139 402.335H57.1111C56.5432 402.122 56.2538 401.491 56.4637 400.922L57.3233 398.5C56.9313 398.038 56.7156 397.453 56.7144 396.847C56.7117 395.497 57.7496 394.373 59.0956 394.268C60.4415 394.163 61.6409 395.113 61.8471 396.447C61.9613 397.183 61.7502 397.932 61.2686 398.5L62.1309 400.919ZM58.1614 396.436C57.9931 396.92 58.1499 397.458 58.552 397.775H58.5493C58.7792 397.958 58.8677 398.267 58.7697 398.544L57.8495 401.134C58.7897 401.444 59.8049 401.444 60.7451 401.134L59.8249 398.544C59.7269 398.267 59.8154 397.958 60.0453 397.775C60.4474 397.458 60.6042 396.92 60.4359 396.436C60.2677 395.951 59.8113 395.627 59.2987 395.627C58.7861 395.627 58.3297 395.951 58.1614 396.436Z" fill="white"/>
<path d="M61.4835 402.335L61.466 402.288L61.4652 402.289L61.4835 402.335ZM62.1309 400.919L62.0838 400.936L62.084 400.936L62.1309 400.919ZM57.1139 402.335L57.1321 402.289L57.1233 402.285H57.1139V402.335ZM57.1111 402.335L57.0936 402.382L57.1021 402.385H57.1111V402.335ZM56.4637 400.922L56.5106 400.939L56.5108 400.938L56.4637 400.922ZM57.3233 398.5L57.3704 398.517L57.38 398.49L57.3614 398.468L57.3233 398.5ZM56.7144 396.847L56.6644 396.847V396.847L56.7144 396.847ZM59.0956 394.268L59.0917 394.218L59.0956 394.268ZM61.8471 396.447L61.7977 396.455L61.7977 396.455L61.8471 396.447ZM61.2686 398.5L61.2304 398.468L61.2118 398.49L61.2215 398.517L61.2686 398.5ZM58.552 397.775V397.825H58.6959L58.583 397.736L58.552 397.775ZM58.1614 396.436L58.1142 396.419L58.1614 396.436ZM58.5493 397.775V397.725H58.4062L58.5181 397.815L58.5493 397.775ZM58.7697 398.544L58.8168 398.561L58.8168 398.561L58.7697 398.544ZM57.8495 401.134L57.8024 401.117L57.7853 401.165L57.8338 401.181L57.8495 401.134ZM60.7451 401.134L60.7608 401.181L60.8093 401.165L60.7922 401.117L60.7451 401.134ZM59.8249 398.544L59.7778 398.561L59.7778 398.561L59.8249 398.544ZM60.0453 397.775L60.0143 397.736L60.0142 397.736L60.0453 397.775ZM60.4359 396.436L60.4832 396.419L60.4359 396.436ZM61.501 402.382C62.0962 402.16 62.3991 401.497 62.1778 400.902L62.084 400.936C62.2861 401.48 62.0096 402.085 61.466 402.288L61.501 402.382ZM57.0957 402.382C58.512 402.936 60.0853 402.936 61.5017 402.382L61.4652 402.289C60.0723 402.834 58.525 402.834 57.1321 402.289L57.0957 402.382ZM57.1111 402.385H57.1139V402.285H57.1111V402.385ZM56.4168 400.904C56.1974 401.499 56.4999 402.16 57.0936 402.382L57.1287 402.288C56.5865 402.085 56.3102 401.482 56.5106 400.939L56.4168 400.904ZM57.2761 398.483L56.4166 400.905L56.5108 400.938L57.3704 398.517L57.2761 398.483ZM56.6644 396.847C56.6656 397.465 56.8855 398.062 57.2851 398.532L57.3614 398.468C56.9771 398.015 56.7656 397.441 56.7644 396.847L56.6644 396.847ZM59.0917 394.218C57.7197 394.325 56.6617 395.471 56.6644 396.847L56.7644 396.847C56.7618 395.523 57.7796 394.421 59.0995 394.318L59.0917 394.218ZM61.8966 396.44C61.6863 395.08 60.4637 394.111 59.0917 394.218L59.0995 394.318C60.4194 394.215 61.5955 395.147 61.7977 396.455L61.8966 396.44ZM61.3067 398.532C61.7977 397.953 62.013 397.19 61.8966 396.44L61.7977 396.455C61.9097 397.177 61.7027 397.911 61.2304 398.468L61.3067 398.532ZM62.178 400.902L61.3157 398.483L61.2215 398.517L62.0838 400.936L62.178 400.902ZM58.583 397.736C58.1976 397.432 58.0474 396.916 58.2086 396.452L58.1142 396.419C57.9389 396.924 58.1022 397.484 58.521 397.815L58.583 397.736ZM58.5493 397.825H58.552V397.725H58.5493V397.825ZM58.8168 398.561C58.922 398.264 58.827 397.933 58.5804 397.736L58.5181 397.815C58.7314 397.984 58.8135 398.271 58.7226 398.527L58.8168 398.561ZM57.8966 401.151L58.8168 398.561L58.7226 398.527L57.8024 401.117L57.8966 401.151ZM60.7294 401.086C59.7994 401.394 58.7952 401.394 57.8652 401.086L57.8338 401.181C58.7842 401.495 59.8104 401.495 60.7608 401.181L60.7294 401.086ZM59.7778 398.561L60.698 401.151L60.7922 401.117L59.872 398.527L59.7778 398.561ZM60.0142 397.736C59.7676 397.933 59.6726 398.264 59.7778 398.561L59.872 398.527C59.7811 398.271 59.8632 397.984 60.0764 397.815L60.0142 397.736ZM60.3887 396.452C60.55 396.916 60.3997 397.432 60.0143 397.736L60.0763 397.815C60.4951 397.484 60.6584 396.924 60.4832 396.419L60.3887 396.452ZM59.2987 395.677C59.79 395.677 60.2274 395.988 60.3887 396.452L60.4832 396.419C60.3079 395.915 59.8326 395.577 59.2987 395.577V395.677ZM58.2086 396.452C58.3699 395.988 58.8074 395.677 59.2987 395.677V395.577C58.7648 395.577 58.2894 395.915 58.1142 396.419L58.2086 396.452Z" fill="white"/>
<mask id="path-19-inside-2_0_351" fill="white">
<rect x="48" y="213.409" width="10.4545" height="13.5909" rx="1.56818"/>
</mask>
<rect x="48" y="213.409" width="10.4545" height="13.5909" rx="1.56818" stroke="#7A40F2" stroke-width="3.34545" mask="url(#path-19-inside-2_0_351)"/>
<mask id="path-20-inside-3_0_351" fill="white">
<rect x="60.4293" y="204" width="10.4545" height="13.5909" rx="1.56818"/>
</mask>
<rect x="60.4293" y="204" width="10.4545" height="13.5909" rx="1.56818" stroke="#7A40F2" stroke-width="3.34545" mask="url(#path-20-inside-3_0_351)"/>
<rect x="48" y="204" width="10.4545" height="7.31818" rx="1.56818" fill="#7A40F2"/>
<rect x="60.4293" y="219.682" width="10.4545" height="7.31818" rx="1.56818" fill="#7A40F2"/>
<path d="M72.0255 921.051C72.0306 921.046 72.0306 921.046 72.0357 921.041C72.051 921.02 72.0663 921.005 72.0765 920.985C72.0816 920.98 72.0816 920.974 72.0867 920.969C72.0969 920.949 72.1122 920.929 72.1224 920.908C72.1224 920.903 72.1276 920.898 72.1276 920.898C72.1378 920.878 72.148 920.857 72.1582 920.832C72.1582 920.827 72.1582 920.827 72.1633 920.821C72.1735 920.801 72.1786 920.776 72.1888 920.75C72.1888 920.745 72.1888 920.74 72.1939 920.74C72.199 920.714 72.2092 920.694 72.2092 920.668C72.2092 920.658 72.2092 920.653 72.2143 920.643C72.2194 920.622 72.2194 920.602 72.2245 920.582C72.2296 920.551 72.2296 920.526 72.2296 920.495C72.2296 920.464 72.2296 920.439 72.2245 920.408C72.2245 920.388 72.2194 920.367 72.2143 920.347C72.2143 920.337 72.2143 920.332 72.2092 920.321C72.2041 920.296 72.199 920.276 72.1939 920.25C72.1939 920.245 72.1939 920.24 72.1888 920.24C72.1837 920.214 72.1735 920.194 72.1633 920.168C72.1633 920.163 72.1633 920.163 72.1582 920.158C72.148 920.138 72.1378 920.112 72.1276 920.092C72.1276 920.087 72.1224 920.082 72.1224 920.082C72.1122 920.061 72.102 920.041 72.0867 920.02C72.0816 920.015 72.0816 920.01 72.0765 920.005C72.0612 919.985 72.051 919.964 72.0357 919.949C72.0306 919.944 72.0306 919.944 72.0255 919.939C72.0051 919.918 71.9898 919.893 71.9643 919.872L66.9184 914.832C66.5765 914.49 66.0204 914.49 65.6786 914.832C65.3367 915.173 65.3367 915.73 65.6786 916.071L69.2296 919.622H55.1122C54.6276 919.622 54.2347 920.015 54.2347 920.495C54.2347 920.98 54.6276 921.372 55.1122 921.372H69.2347L65.7092 924.898C65.3673 925.24 65.3673 925.796 65.7092 926.138C65.8776 926.306 66.102 926.393 66.3265 926.393C66.551 926.393 66.7755 926.306 66.9439 926.138L71.9592 921.122C71.9847 921.092 72.0051 921.071 72.0255 921.051Z" fill="white" stroke="white" stroke-width="0.3"/>
<path d="M51.7806 909.75H58.3112C58.7959 909.75 59.1888 909.357 59.1888 908.878C59.1888 908.393 58.7959 908 58.3112 908H51.7806C49.1633 908 47.0306 910.133 47.0306 912.75V928.245C47.0306 930.862 49.1633 932.995 51.7806 932.995H58.2041C58.6888 932.995 59.0816 932.602 59.0816 932.122C59.0816 931.638 58.6888 931.245 58.2041 931.245H51.7806C50.1275 931.245 48.7806 929.898 48.7806 928.245V912.75C48.7857 911.092 50.1275 909.75 51.7806 909.75Z" fill="white" stroke="white" stroke-width="0.3"/>
</svg>
