<svg width="13" height="18" viewBox="0 0 13 18" fill="none" xmlns="http://www.w3.org/2000/svg">
<path d="M5.69535 0.315899C5.79368 0.165842 6.01208 0.167048 6.1105 0.317041C6.83542 1.42174 9.27313 5.13813 10.5162 7.05273C11.3207 8.29166 11.8194 9.638 11.7925 11.183C11.7289 14.8315 8.82042 17.32 6.10455 17.3166C4.29264 17.3141 2.77333 16.7109 1.54811 15.2921C-0.176068 13.2955 -0.495582 10.4026 0.768766 7.98311C1.2428 7.07591 1.84046 6.24348 2.3925 5.38463C3.29045 3.98819 5.08678 1.24459 5.69535 0.315899Z" stroke="#9897AD" stroke-width="1.4"/>
<path fill-rule="evenodd" clip-rule="evenodd" d="M3.31692 9.13318C2.89554 10.019 2.58896 10.7773 2.78614 11.7917C2.88125 12.281 3.12189 12.7266 3.48218 13.0806C3.65141 13.2469 3.64644 13.516 3.47108 13.6815C3.40651 13.7423 3.32788 13.7807 3.24595 13.7967C3.10482 13.8241 2.95386 13.7852 2.84693 13.6799C2.3662 13.2077 2.04505 12.6129 1.91821 11.9604C1.67372 10.7026 2.04383 9.78002 2.5151 8.78939C2.61734 8.57484 2.87945 8.47756 3.10078 8.57267C3.32226 8.66759 3.41898 8.91867 3.31692 9.13318Z" fill="#9897AD" stroke="#9897AD" stroke-width="0.5"/>
</svg>
