<svg width="11" height="19" viewBox="0 0 11 19" fill="none" xmlns="http://www.w3.org/2000/svg">
<path d="M9.47638 11.6362C9.3461 11.4001 9.04182 11.3105 8.79677 11.4359C8.55165 11.5613 8.4586 11.8544 8.58884 12.0904C8.85444 12.5718 8.99486 13.1167 8.99486 13.6661C8.99486 14.5802 8.62084 15.4354 7.94167 16.0742C7.26281 16.7128 6.36513 17.052 5.41519 17.0309C3.53241 16.9881 2.00266 15.4765 2.00517 13.6614C2.00693 12.3808 2.74799 11.2287 3.93902 10.6546C4.10922 10.5727 4.21668 10.4051 4.21668 10.2218V2.9542C4.21668 2.41044 4.67603 1.96804 5.24064 1.96804H5.75929C6.3239 1.96804 6.78325 2.41044 6.78325 2.9542V9.92009C6.78325 10.1874 7.00831 10.4041 7.28584 10.4041C7.56337 10.4041 7.78842 10.1874 7.78842 9.92009V9.34036H8.99797C9.27549 9.34036 9.50055 9.12368 9.50055 8.85632C9.50055 8.58897 9.27549 8.37229 8.99797 8.37229H7.78842V7.61881H8.26384C8.54137 7.61881 8.76643 7.40213 8.76643 7.13478C8.76643 6.86746 8.54137 6.65074 8.26384 6.65074H7.78842V5.89726H8.99797C9.27549 5.89726 9.50055 5.68058 9.50055 5.41323C9.50055 5.14587 9.27549 4.92919 8.99797 4.92919H7.78842V4.17575H8.26384C8.54137 4.17575 8.76643 3.95906 8.76643 3.69171C8.76643 3.42436 8.54137 3.20768 8.26384 3.20768H7.78842V2.9542C7.78842 1.87666 6.8782 1 5.75933 1H5.24068C4.12184 1 3.21158 1.87666 3.21158 2.9542V9.93446C1.84176 10.7119 1.00218 12.1131 1 13.6602C0.996729 15.9973 2.96673 17.9436 5.3914 17.9987C5.42815 17.9996 5.46463 18 5.50128 18C6.68362 18 7.79608 17.5644 8.64397 16.7668C9.51845 15.9443 10 14.8431 10 13.666C10 12.9588 9.81893 12.2569 9.47638 11.6362Z" fill="#9897AD" stroke="#9897AD" stroke-width="0.2"/>
</svg>
