<svg width="370" height="217" viewBox="0 0 370 217" fill="none" xmlns="http://www.w3.org/2000/svg">
<path opacity="0.286551" d="M49.0145 169.405C102.24 177.362 79.9123 151.846 113.033 150.399C146.589 148.953 132.446 104.718 191.762 130.113C227.1 139.88 206.907 77.3696 267.974 95.8046C285.167 100.995 297.52 119.676 317.094 124.392C327.284 126.847 348.087 111.263 354.105 118.39C377.587 146.199 368.109 213.237 368.109 213.237L0 212.418C0 212.418 17.4843 164.703 49.0145 169.405Z" fill="#FACA65"/>
<path opacity="0.286551" d="M195.058 214.418C241.975 222.375 225.88 168.851 255.076 167.405C278.072 166.28 280.925 135.563 305.09 140.396C320.095 143.397 320.095 154.401 332.098 141.397C344.102 108.387 357.106 124.392 357.106 124.392L354.105 216.419C354.105 216.419 167.264 209.717 195.058 214.418Z" fill="#FACA65"/>
<path d="M326.322 180.913C326.322 180.874 326.322 180.913 326.322 180.913C326.283 180.835 326.243 180.796 326.203 180.757C323.654 177.483 324.451 172.69 324.69 171.638C324.69 171.56 324.729 171.521 324.729 171.443V171.405C324.809 170.937 324.849 170.469 324.849 170.002C324.849 165.832 321.384 162.403 317.083 162.403C312.821 162.403 309.317 165.793 309.317 170.002C309.317 170.469 309.356 170.937 309.476 171.405V171.443C309.476 171.521 309.516 171.56 309.516 171.638C309.755 172.729 310.511 177.522 308.002 180.757C307.963 180.796 307.963 180.835 307.923 180.874C307.923 180.874 307.923 180.874 307.923 180.913C306.768 182.627 306.091 184.692 306.091 186.914C306.091 192.876 311.029 197.708 317.123 197.708C323.216 197.708 328.154 192.876 328.154 186.914C328.194 184.692 327.517 182.627 326.322 180.913Z" fill="#FAB833"/>
<path d="M317.123 172.696V210.708" stroke="white" stroke-width="0.754941"/>
<path d="M310.936 180.768L317.114 189.594" stroke="white" stroke-width="0.754941"/>
<path d="M321.582 174.304L317.169 179.6" stroke="white" stroke-width="0.754941"/>
<path d="M293.313 167.909C293.313 167.87 293.313 167.909 293.313 167.909C293.273 167.831 293.233 167.792 293.193 167.753C290.644 164.48 291.441 159.687 291.68 158.634C291.68 158.557 291.72 158.518 291.72 158.44V158.401C291.799 157.933 291.839 157.465 291.839 156.998C291.839 152.828 288.374 149.399 284.073 149.399C279.812 149.399 276.307 152.789 276.307 156.998C276.307 157.465 276.347 157.933 276.466 158.401V158.44C276.466 158.518 276.506 158.557 276.506 158.634C276.745 159.726 277.502 164.519 274.993 167.753C274.953 167.792 274.953 167.831 274.913 167.87C274.913 167.87 274.913 167.87 274.913 167.909C273.758 169.623 273.081 171.689 273.081 173.91C273.081 179.872 278.019 184.704 284.113 184.704C290.206 184.704 295.145 179.872 295.145 173.91C295.184 171.689 294.507 169.623 293.313 167.909Z" fill="#FAB833"/>
<path d="M284.114 159.693L284.104 209.917" stroke="white" stroke-width="0.754941"/>
<path d="M277.926 167.764L284.104 176.59" stroke="white" stroke-width="0.754941"/>
<path d="M288.573 161.3L284.16 166.596" stroke="white" stroke-width="0.754941"/>
<path opacity="0.654971" fill-rule="evenodd" clip-rule="evenodd" d="M47.396 25.1521C41.4322 26.659 36.3193 22.6304 36.3193 22.6304C36.3193 22.6304 30.3527 15.3936 39.8026 12.9318C42.3157 12.2772 42.9401 11.0642 43.527 9.92395C44.0366 8.93398 44.518 7.9988 46.1828 7.53133C49.0647 6.72206 50.4669 7.93011 51.5936 8.90067C52.8066 9.94566 53.7 10.7153 55.7765 8.39538C60.8782 2.69567 67.308 12.9318 67.308 12.9318C67.308 12.9318 78.5471 7.08681 81.4989 15.9872C84.4507 24.8876 74.2343 26.5705 69.0263 25.1521C67.8104 24.8209 66.5679 25.6535 65.0605 26.6637C63.2395 27.8841 61.0318 29.3636 58.0172 29.3636C55.0252 29.3636 53.0029 27.9065 51.3167 26.6917C49.8975 25.6693 48.7165 24.8184 47.396 25.1521ZM274.712 40.9601C265.518 43.2532 257.635 37.1227 257.635 37.1227C257.635 37.1227 248.437 26.1102 263.005 22.3641C266.88 21.3679 267.842 19.522 268.747 17.7869C269.533 16.2804 270.275 14.8573 272.842 14.1459C277.284 12.9144 279.446 14.7527 281.183 16.2297C283.053 17.8199 284.431 18.9911 287.632 15.4608C295.497 6.7873 305.41 22.3641 305.41 22.3641C305.41 22.3641 322.737 13.4695 327.287 27.0135C331.838 40.5576 316.088 43.1186 308.059 40.9601C306.184 40.4561 304.269 41.7232 301.945 43.2605C299.137 45.1175 295.734 47.3689 291.086 47.3689C286.474 47.3689 283.356 45.1517 280.756 43.303C278.568 41.7471 276.748 40.4523 274.712 40.9601Z" fill="url(#paint0_linear_1_262)"/>
<g opacity="0.288272" filter="url(#filter0_f_1_262)">
<ellipse cx="175.557" cy="199.394" rx="39.3282" ry="3.88426" fill="#FFA446"/>
</g>
<path d="M161.158 191.835L159.222 176.072L167.703 177.454L168.809 194.048L160.697 192.296L161.158 191.835Z" fill="#ECACA1"/>
<path d="M170.1 189.992C170.1 189.992 163.278 192.48 160.236 188.056L145.302 195.799L171.943 196.721L170.1 189.992Z" fill="#FF234A"/>
<path d="M145.21 198.196L171.851 199.21L171.943 196.813L145.302 195.799L145.21 198.196Z" fill="white"/>
<path d="M153.875 80.0158C153.875 80.0158 150.188 94.3044 152.4 135.234L155.719 182.156H172.865L167.979 80.7533L153.875 80.0158Z" fill="#6451C5"/>
<path d="M202.364 183.354L193.238 170.264L200.52 165.747L209.554 179.943L202.364 184V183.354Z" fill="#ECACA1"/>
<path d="M207.895 176.072C207.895 176.072 204.392 182.525 199.138 181.142L193.053 196.813L213.703 179.943L207.895 176.072Z" fill="#FF234A"/>
<path d="M194.621 198.657L215.27 181.695L213.795 179.851L193.146 196.813L194.621 198.657Z" fill="white"/>
<path d="M177.751 84.4407C177.751 84.4407 183.651 90.0639 183.466 106.196C183.282 122.328 188.352 139.106 188.352 139.106L169.823 141.042C169.823 141.042 159.314 119.01 155.811 85.8234L177.751 84.4407Z" fill="#6451C5"/>
<path d="M184.112 131.086C184.112 131.086 205.683 153.118 212.043 168.789L195.082 177.454L170.007 141.134L184.112 131.086Z" fill="#6451C5"/>
<path d="M171.298 143.162C171.298 143.162 167.242 139.936 165.122 131.086C163.094 122.236 159.959 107.118 159.959 107.118L156.272 102.509" stroke="#B2ACC7" stroke-width="0.55"/>
<circle cx="176.184" cy="8.57313" r="8.57313" fill="#081669"/>
<circle cx="168.164" cy="15.8557" r="7.09818" fill="#FF234A"/>
<path d="M157.747 34.2003L161.342 45.078L171.298 41.0219L165.767 24.7054L157.747 34.2003Z" fill="#ECACA1"/>
<path d="M159.867 40.561C159.775 40.3767 161.711 33.7394 161.711 33.7394L157.563 35.5831L159.867 40.561Z" fill="#ED9083"/>
<path d="M154.705 11.6152C154.705 11.6152 149.543 12.4449 149.266 18.9899C149.266 18.9899 149.082 23.6913 148.989 30.513C148.897 34.1081 152.124 36.9659 155.627 36.2284C157.747 35.7675 160.144 34.8456 162.264 33.1863L165.214 30.4208C172.22 22.5851 165.767 10.1403 155.442 11.523C155.258 11.523 154.981 11.523 154.705 11.6152Z" fill="#ECACA1"/>
<path d="M150.188 24.9819L147.699 27.563C147.238 27.9318 147.33 28.8536 147.791 28.8536L150.096 29.1302V24.9819H150.188Z" fill="#ECACA1"/>
<path d="M151.478 20.7414C151.478 20.7414 149.727 20.4649 149.635 21.2024C149.635 21.2024 149.543 21.7555 151.017 21.9398C152.492 22.1242 152.953 22.032 153.138 21.5711C153.322 21.1102 152.308 20.8336 151.478 20.7414Z" fill="#03041F"/>
<circle cx="151.047" cy="25.1408" r="0.737506" transform="rotate(-10.7481 151.047 25.1408)" fill="#03041F"/>
<path d="M149.795 30.7809C150.163 31.1496 151.546 30.9653 151.823 30.2278" stroke="#1D0A05" stroke-width="0.585933" stroke-linecap="round" stroke-linejoin="round"/>
<path d="M161.619 23.2304C161.619 23.2304 164.661 7.46692 151.017 13.8276C151.017 13.8276 156.272 5.16231 168.256 10.4168C170.745 11.523 173.326 14.5651 173.879 17.2384C174.617 21.5711 172.22 25.3506 168.348 32.1723L163.739 26.8256C163.555 25.9037 161.619 23.2304 161.619 23.2304Z" fill="#081669"/>
<path d="M166.043 18.6212L163.278 25.1663C145.855 19.7274 153.783 11.523 153.783 11.523C153.783 11.523 167.887 7.28254 166.043 18.6212Z" fill="#081669"/>
<path d="M157.194 21.7555L160.328 25.6272L162.725 21.1102L157.194 21.7555Z" fill="#03041F"/>
<path d="M156.272 12.3527C156.272 12.3527 150.28 13.3667 149.45 17.515C149.45 17.515 148.436 12.998 154.06 10.9699C159.591 8.84968 156.272 12.3527 156.272 12.3527Z" fill="#03041F"/>
<circle cx="163.278" cy="24.521" r="3.41081" fill="#ECACA1"/>
<path d="M162.172 25.8116C162.172 25.8116 161.987 23.3226 164.384 23.507" stroke="#1D0A05" stroke-width="0.585933" stroke-linecap="round" stroke-linejoin="round"/>
<path d="M180.24 44.5249C180.24 44.5249 193.975 53.2824 196.096 79.7393C196.372 82.8735 194.16 85.5469 191.025 86.0078C188.075 86.4687 184.296 84.625 183.466 81.7673L174.248 54.573L180.24 44.5249Z" fill="#F8D44E"/>
<path d="M152.492 47.3826L142.444 66.9257C141.062 70.0599 142.352 73.6551 145.302 75.3144C148.436 76.9737 152.4 75.7754 154.06 72.6411L165.306 53.7433C166.965 50.7013 166.228 47.0139 163.555 44.8015C160.052 41.7594 154.428 43.05 152.492 47.3826Z" fill="#F8D44E"/>
<circle cx="117.002" cy="58.7213" r="6.17634" fill="#ECACA1"/>
<path d="M115.803 52.7293C115.803 52.7293 116.08 50.2404 119.03 51.5309C121.519 52.6371 125.022 56.5089 122.164 61.9477L115.803 52.7293Z" fill="#ECACA1"/>
<path d="M135.346 60.0119L121.703 56.5089L118.661 64.6211L133.318 68.7694L135.346 60.0119Z" fill="#EDAC9F"/>
<path d="M149.911 64.5289L125.298 56.1401L122.901 67.6632L145.671 75.6832C149.174 77.1581 153.23 75.0379 153.875 71.2583C154.52 68.3084 152.769 65.4507 149.911 64.5289Z" fill="#F8D44E"/>
<path d="M119.03 59.7353L114.973 63.0539C114.789 63.2383 114.42 63.1461 114.328 62.7774L107.691 48.7654C107.507 48.3966 107.599 48.0279 107.783 47.8435L111.839 44.5249C112.024 44.3405 112.392 44.4327 112.484 44.8015L119.122 58.8135C119.306 59.09 119.214 59.4587 119.03 59.7353Z" fill="#0F35A9"/>
<path d="M119.767 59.09L115.434 62.6852C115.158 62.8696 114.881 62.7774 114.697 62.4086L108.152 48.3045C107.967 47.9357 108.06 47.567 108.336 47.3826L112.669 43.7874C112.945 43.6031 113.222 43.6953 113.406 44.064L119.951 58.1682C120.044 58.4447 120.044 58.9056 119.767 59.09Z" fill="#6C51F7"/>
<path d="M120.689 54.7574L120.781 52.7293L117.462 50.1481C117.002 49.7794 116.264 49.8716 115.895 50.2403C115.619 50.5169 115.434 50.9778 115.987 51.6231L120.412 55.0339" fill="#ECACA1"/>
<path d="M156.088 45.8155C154.06 48.6732 150.741 54.573 150.649 62.5009C150.649 62.6852 150.649 62.9618 150.649 63.1461C150.833 64.8976 150.28 78.08 150.003 84.9016C149.911 86.6531 150.833 90.0639 152.308 90.8936C155.442 92.6451 168.993 94.2122 180.24 91.0779C181.807 90.617 182.729 88.9577 182.268 87.2984C181.07 83.1501 176.829 73.2864 179.779 65.4508C186.877 46.7374 180.055 43.3266 175.078 42.4047C174.432 42.3125 172.035 43.7875 171.39 43.7875L159.591 43.9718C158.208 43.8797 156.917 44.6171 156.088 45.8155Z" fill="#FDD656"/>
<path d="M154.152 51.07C154.152 51.07 150.188 54.7574 150.741 65.1742C150.741 65.1742 150.464 70.1522 150.464 75.6832" stroke="#F3A12D" stroke-width="0.55"/>
<path d="M168.717 38.533C168.717 38.533 173.234 53.1902 188.352 54.9417C202.548 56.6011 201.073 52.4528 212.873 53.7433C212.873 53.7433 211.029 57.7073 204.208 64.3445C200.428 67.9397 200.613 70.613 200.613 70.613C200.613 70.613 178.396 71.4427 169.639 60.0119C163.37 51.8997 161.895 41.4829 161.895 41.4829L168.717 38.533Z" fill="#FF5A4C"/>
<path d="M214.993 57.4307C215.178 57.4307 215.454 57.2464 215.454 57.062C215.454 56.7854 215.362 56.6011 215.085 56.5089L208.079 55.4027C207.803 55.4027 207.619 55.4949 207.526 55.7714C207.526 56.048 207.619 56.2323 207.895 56.3245L214.993 57.4307C214.993 57.4307 214.901 57.4307 214.993 57.4307Z" fill="#FF5A4C"/>
<path d="M212.412 60.7494C212.596 60.7494 212.873 60.565 212.873 60.3806C212.873 60.1041 212.781 59.9197 212.504 59.8275L205.498 58.7213C205.222 58.6291 205.037 58.8135 204.945 59.09C204.945 59.3666 205.037 59.551 205.314 59.6431L212.412 60.7494Z" fill="#FF5A4C"/>
<path d="M209.093 64.3446C209.278 64.3446 209.554 64.1602 209.554 63.9758C209.554 63.6993 209.462 63.5149 209.186 63.4227L202.18 62.3165C201.903 62.3165 201.719 62.4087 201.627 62.6852C201.627 62.9618 201.719 63.1462 201.995 63.2383L209.093 64.3446C209.001 64.3446 209.001 64.3446 209.093 64.3446Z" fill="#FF5A4C"/>
<path d="M205.959 68.585C206.144 68.585 206.42 68.4007 206.42 68.2163C206.42 67.9397 206.328 67.7554 206.051 67.6632L199.045 66.557C198.769 66.4648 198.584 66.6492 198.492 66.9257C198.492 67.2023 198.584 67.3866 198.861 67.4788L205.959 68.585Z" fill="#FF5A4C"/>
<path d="M156.18 36.7815C159.037 37.3346 165.951 38.2564 170.929 34.3847C171.482 33.9238 172.22 34.1081 172.496 34.7534L175.262 41.6672C175.446 42.036 175.354 42.4047 175.078 42.7734C173.326 44.8015 166.136 52.084 155.627 43.9718C155.35 43.7875 155.258 43.5109 155.258 43.2344L154.981 37.8877C154.981 37.2424 155.534 36.6893 156.18 36.7815Z" fill="#FF6C58"/>
<ellipse cx="161.342" cy="74.6378" rx="5.53105" ry="5.31536" fill="#ECACA1"/>
<path d="M156.088 73.3786C156.088 73.3786 154.244 71.7193 156.549 70.0599C158.853 68.4006 162.817 67.4788 166.136 71.9958L156.088 73.3786Z" fill="#ECACA1"/>
<path d="M164.384 71.9036L173.234 73.7473L171.298 80.8455L163.37 78.6331L164.384 71.9036Z" fill="#EDAC9F"/>
<path d="M183.743 74.4848C183.19 74.3004 168.625 71.9958 168.625 71.9958L167.15 82.2283L189.827 86.1L183.743 74.4848Z" fill="#F8D44E"/>
<path d="M186.785 74.8535L168.625 71.9958" stroke="#F3A12D" stroke-width="0.55"/>
<path d="M181.346 84.4407L167.242 82.2282L167.518 79.7393" stroke="#F3A12D" stroke-width="0.55"/>
<g opacity="0.319987" filter="url(#filter1_f_1_262)">
<ellipse cx="106.126" cy="192.897" rx="24.2767" ry="6.79746" fill="#FFA446"/>
</g>
<path d="M98.3311 149.638C98.3311 149.638 138.798 130.812 158.563 78.9821" stroke="#372482" stroke-width="0.783978"/>
<ellipse cx="161.342" cy="74.6378" rx="5.53105" ry="5.31536" fill="#ECACA1"/>
<path d="M124.143 177.662C125.525 178.307 127.185 178.953 128.752 179.414C130.319 179.875 131.978 180.151 133.545 179.967C135.113 179.875 136.495 179.229 137.233 177.939C138.062 176.648 138.247 174.897 138.155 173.237C138.155 172.961 138.339 172.776 138.616 172.776C138.892 172.776 139.076 172.961 139.076 173.145C139.261 174.067 139.353 174.989 139.353 175.911C139.353 176.832 139.169 177.846 138.8 178.768C138.431 179.69 137.694 180.612 136.864 181.165C136.034 181.81 135.02 182.179 134.006 182.364C132.07 182.824 130.135 182.732 128.291 182.456C126.447 182.179 124.604 181.81 122.76 181.165C121.746 180.796 121.193 179.782 121.561 178.768C121.93 177.754 122.944 177.201 123.958 177.57C123.866 177.57 123.958 177.662 124.143 177.662Z" fill="#AD4600"/>
<path d="M113.541 178.4C113.541 178.4 110.407 175.634 107.181 179.045C103.954 182.456 114.002 190.66 114.002 190.66C114.002 190.66 108.195 189.923 107.089 193.702H120.547C121.101 193.702 121.654 193.241 121.654 192.596C121.654 191.582 121.285 190.66 120.732 189.923L117.782 186.235L113.541 178.4Z" fill="#AB4600"/>
<path d="M94.7359 170.748L90.1267 190.844C90.1267 190.844 86.3472 189.923 85.6097 193.702H91.9704L102.295 174.067L94.7359 170.748Z" fill="#A94612"/>
<path d="M95.0125 144.199L125.433 178.123C126.908 179.782 127.738 181.995 127.646 184.299C127.553 187.065 126.724 190.291 123.59 190.66C118.058 191.398 112.159 189.923 101.465 179.506C101.465 179.506 93.8141 177.293 92.5235 162.544L85.9784 153.233L95.0125 144.199Z" fill="#FF8149"/>
<path d="M118.335 178.4C118.335 178.4 115.201 175.634 111.974 179.045C108.748 182.456 118.796 190.66 118.796 190.66C118.796 190.66 112.988 189.923 111.882 193.702H125.341C125.894 193.702 126.447 193.241 126.447 192.596C126.447 191.582 126.079 190.66 125.525 189.923L122.576 186.235L118.335 178.4Z" fill="#FF8149"/>
<path d="M95.0125 144.199C95.0125 144.199 93.261 141.342 90.3111 141.342C88.4674 141.342 86.5315 141.802 84.2269 143.831C82.0145 145.859 77.5897 144.568 77.5897 144.568C77.5897 144.568 75.8382 150.929 85.9784 153.141L95.0125 144.199Z" fill="#FF8149"/>
<path d="M92.0626 141.802C92.0626 141.802 86.9003 147.334 89.758 149.822C92.6157 152.311 93.7219 147.334 96.4874 145.951C96.4874 145.951 97.9624 144.199 95.7499 142.448C93.3531 140.604 92.0626 141.802 92.0626 141.802Z" fill="#5430B8"/>
<circle cx="78.4056" cy="145.78" r="1.38276" fill="#5430B8"/>
<path d="M88.9283 157.935L87.3612 155.354C87.8221 155.354 95.1046 154.893 98.792 148.44L100.544 150.56C96.3952 157.935 89.5736 157.935 88.9283 157.935Z" fill="#FED748"/>
<circle cx="86.5786" cy="143.95" r="0.553105" fill="#28233C"/>
<path d="M97.5936 175.358L99.806 190.844C99.806 190.844 96.303 190.476 95.8421 193.702H103.125L105.521 174.067L97.5936 175.358Z" fill="#FF8149"/>
<path d="M97.0405 163.005C94.3672 168.352 97.5936 172.961 97.5936 172.961L98.2389 181.349" stroke="#AB4600" stroke-width="0.643162" stroke-linecap="round" stroke-linejoin="round"/>
<path d="M113.541 177.662C113.541 177.662 110.038 180.612 113.265 185.867C115.293 189.093 118.796 190.752 118.796 190.752" stroke="#AB4600" stroke-width="0.643162" stroke-linecap="round" stroke-linejoin="round"/>
<path d="M104.507 182.271L105.429 172.223" stroke="#AB4600" stroke-width="0.643162" stroke-linecap="round" stroke-linejoin="round"/>
<defs>
<filter id="filter0_f_1_262" x="133.589" y="192.87" width="83.9356" height="13.0478" filterUnits="userSpaceOnUse" color-interpolation-filters="sRGB">
<feFlood flood-opacity="0" result="BackgroundImageFix"/>
<feBlend mode="normal" in="SourceGraphic" in2="BackgroundImageFix" result="shape"/>
<feGaussianBlur stdDeviation="1.31942" result="effect1_foregroundBlur_1_262"/>
</filter>
<filter id="filter1_f_1_262" x="79.2093" y="183.46" width="53.8326" height="18.8742" filterUnits="userSpaceOnUse" color-interpolation-filters="sRGB">
<feFlood flood-opacity="0" result="BackgroundImageFix"/>
<feBlend mode="normal" in="SourceGraphic" in2="BackgroundImageFix" result="shape"/>
<feGaussianBlur stdDeviation="1.31942" result="effect1_foregroundBlur_1_262"/>
</filter>
<linearGradient id="paint0_linear_1_262" x1="328.097" y1="6.66863" x2="34.4611" y2="6.66863" gradientUnits="userSpaceOnUse">
<stop stop-color="#FFC36E"/>
<stop offset="1" stop-color="#FED57F"/>
</linearGradient>
</defs>
</svg>
