<svg width="10" height="18" viewBox="0 0 10 18" fill="none" xmlns="http://www.w3.org/2000/svg">
<path d="M8.97528 11.2355C8.83893 10.9885 8.5205 10.8947 8.26405 11.0259C8.00753 11.1572 7.91015 11.4639 8.04646 11.7109C8.32441 12.2146 8.47136 12.7849 8.47136 13.3598C8.47136 14.3165 8.07994 15.2115 7.36918 15.88C6.65875 16.5483 5.71932 16.9032 4.7252 16.8812C2.75484 16.8364 1.15394 15.2545 1.15658 13.355C1.15842 12.0148 1.93394 10.8091 3.18036 10.2083C3.35848 10.1225 3.47094 9.94718 3.47094 9.75534V2.14975C3.47094 1.58069 3.95166 1.11772 4.54253 1.11772H5.0853C5.67617 1.11772 6.15689 1.58069 6.15689 2.14975V9.43962C6.15689 9.71938 6.39241 9.94617 6.68285 9.94617C6.97328 9.94617 7.20881 9.71941 7.20881 9.43962V8.83293H8.47461C8.76504 8.83293 9.00057 8.60617 9.00057 8.32639C9.00057 8.0466 8.76504 7.81984 8.47461 7.81984H7.20881V7.03131H7.70634C7.99678 7.03131 8.2323 6.80455 8.2323 6.52477C8.2323 6.24502 7.99678 6.01822 7.70634 6.01822H7.20881V5.2297H8.47461C8.76504 5.2297 9.00057 5.00293 9.00057 4.72315C9.00057 4.44336 8.76504 4.2166 8.47461 4.2166H7.20881V3.42811H7.70634C7.99678 3.42811 8.2323 3.20135 8.2323 2.92156C8.2323 2.64178 7.99678 2.41501 7.70634 2.41501H7.20881V2.14975C7.20881 1.02209 6.25625 0.104657 5.08534 0.104657H4.54256C3.37169 0.104657 2.41909 1.02209 2.41909 2.14975V9.45467C0.985561 10.2683 0.106927 11.7347 0.104654 13.3537C0.101226 15.7995 2.16286 17.8363 4.7003 17.894C4.73876 17.8949 4.77693 17.8953 4.81529 17.8953C6.05262 17.8953 7.21682 17.4395 8.10415 16.6048C9.01929 15.744 9.52325 14.5916 9.52325 13.3598C9.52325 12.6197 9.33376 11.8851 8.97528 11.2355Z" fill="#9897AD" stroke="#9897AD" stroke-width="0.2"/>
</svg>
